<?xml version="1.0" encoding="UTF-8" standalone="no"?>
<!-- Created with Inkscape (http://www.inkscape.org/) -->

<svg
   xmlns:dc="http://purl.org/dc/elements/1.1/"
   xmlns:cc="http://creativecommons.org/ns#"
   xmlns:rdf="http://www.w3.org/1999/02/22-rdf-syntax-ns#"
   xmlns:svg="http://www.w3.org/2000/svg"
   xmlns="http://www.w3.org/2000/svg"
   xmlns:sodipodi="http://sodipodi.sourceforge.net/DTD/sodipodi-0.dtd"
   xmlns:inkscape="http://www.inkscape.org/namespaces/inkscape"
   width="48"
   height="48"
   id="svg4865"
   version="1.1"
   inkscape:version="0.91 r13725"
   viewBox="0 0 48 48"
   sodipodi:docname="fire1.svg">
  <defs
     id="defs4867">
    <inkscape:path-effect
       effect="spiro"
       id="path-effect5086"
       is_visible="true" />
    <inkscape:path-effect
       effect="spiro"
       id="path-effect5078"
       is_visible="true" />
    <inkscape:path-effect
       effect="spiro"
       id="path-effect5054"
       is_visible="true" />
  </defs>
  <sodipodi:namedview
     id="base"
     pagecolor="#ffffff"
     bordercolor="#666666"
     borderopacity="1.0"
     inkscape:pageopacity="0.0"
     inkscape:pageshadow="2"
     inkscape:zoom="9.8708837"
     inkscape:cx="19.75"
     inkscape:cy="22.642857"
     inkscape:current-layer="layer1"
     showgrid="true"
     inkscape:grid-bbox="true"
     inkscape:document-units="px"
     inkscape:window-width="1436"
     inkscape:window-height="856"
     inkscape:window-x="4"
     inkscape:window-y="0"
     inkscape:window-maximized="1" />
  <metadata
     id="metadata4870">
    <rdf:RDF>
      <cc:Work
         rdf:about="">
        <dc:format>image/svg+xml</dc:format>
        <dc:type
           rdf:resource="http://purl.org/dc/dcmitype/StillImage" />
        <dc:title />
      </cc:Work>
    </rdf:RDF>
  </metadata>
  <g
     id="layer1"
     inkscape:label="Layer 1"
     inkscape:groupmode="layer">
    <path
       style="fill:none;fill-rule:evenodd;stroke:#000000;stroke-width:1px;stroke-linecap:butt;stroke-linejoin:miter;stroke-opacity:1"
       d="m 22.565217,3.1561077 c -0.03826,-0.036155 -0.09063,-0.05698 -0.143271,-0.05698 -0.05264,0 -0.105006,0.020825 -0.143271,0.05698 -0.03911,0.036952 -0.06239,0.087417 -0.08124,0.1378095 -0.01885,0.050393 -0.03444,0.1025372 -0.06203,0.1487329 -0.03953,0.066199 -0.101284,0.1161098 -0.165523,0.1587498 -0.06424,0.04264 -0.13244,0.079638 -0.192655,0.1277926 -0.118277,0.094588 -0.199964,0.2277122 -0.262295,0.3657375 -0.06233,0.1380253 -0.107569,0.2831783 -0.167519,0.4222543 -0.116183,0.2695261 -0.28797,0.5149373 -0.501449,0.7163561 -0.26235,0.218527 -0.482471,0.4875644 -0.644721,0.7879917 C 20.023399,6.3508333 19.914044,6.7175693 19.699793,7.0244306 19.583201,7.19142 19.436969,7.337652 19.269979,7.4542443 18.80924,7.9857588 18.40071,8.5625073 18.052174,9.173499 c -0.190819,0.3345097 -0.363898,0.6795584 -0.573085,1.002899 -0.425688,0.657985 -0.992847,1.213932 -1.432712,1.862525 -0.517768,0.763464 -0.85313,1.646309 -1.432712,2.363976 -0.138326,0.171282 -0.289536,0.331762 -0.429814,0.501449 -0.771464,0.933199 -1.183332,2.104642 -1.79089,3.151967 -0.571099,0.984476 -1.33288,1.896828 -1.575984,3.008695 -0.09429,0.431265 -0.108118,0.885651 -0.286542,1.289441 -0.07367,0.166727 -0.174982,0.323597 -0.214907,0.50145 -0.04723,0.210406 -0.0041,0.429118 0,0.64472 0.008,0.41331 -0.127375,0.813793 -0.214907,1.217806 -0.1953903,0.90184 -0.1536559,1.836021 -0.1100814,2.757755 0.043574,0.921734 0.087117,1.855607 -0.1048253,2.758187 -0.032743,0.15397 -0.072308,0.306788 -0.092965,0.462839 -0.020657,0.156052 -0.021879,0.317056 0.021329,0.468423 0.067721,0.237243 0.2369147,0.42986 0.3581787,0.644721 0.21614,0.382967 0.279929,0.837924 0.501449,1.217805 0.120052,0.205874 0.282677,0.38307 0.42462,0.574508 0.141944,0.191439 0.266527,0.406315 0.291736,0.643298 0.0053,0.04982 0.0061,0.100146 0.01442,0.149554 0.0083,0.04941 0.02474,0.09885 0.05722,0.136988 0.03934,0.0462 0.09743,0.07097 0.151699,0.09812 0.02713,0.01357 0.05394,0.0282 0.07774,0.04702 0.02379,0.01882 0.04459,0.04212 0.05711,0.06976 0.01499,0.03311 0.01737,0.07065 0.0146,0.106882 -0.0028,0.03624 -0.01042,0.07192 -0.0146,0.108025 -0.01387,0.119742 0.01111,0.242088 0.05994,0.352297 0.04883,0.110209 0.1208,0.208961 0.20198,0.298068 0.16236,0.178216 0.361606,0.31953 0.526071,0.495805 0.290727,0.311602 0.465502,0.724297 0.787992,1.002898 0.176812,0.152749 0.389431,0.257285 0.580638,0.391579 0.0956,0.06715 0.186437,0.142327 0.261506,0.231844 0.07507,0.08952 0.134119,0.194089 0.160754,0.30784 0.0087,0.03716 0.01393,0.0751 0.02346,0.112062 0.0095,0.03696 0.02377,0.07349 0.04818,0.102845 0.02087,0.0251 0.04847,0.04402 0.07805,0.05783 0.02958,0.01381 0.06121,0.02272 0.09301,0.03008 0.06361,0.01472 0.129893,0.02393 0.187115,0.05537 0.04008,0.02202 0.07403,0.05425 0.101129,0.09109 0.0271,0.03683 0.04755,0.07822 0.06387,0.120933 0.03264,0.08543 0.04902,0.176179 0.07782,0.26298 0.02879,0.0868 0.07263,0.172645 0.146184,0.226984 0.03678,0.02717 0.08054,0.0456 0.126117,0.04934 0.04557,0.0037 0.09284,-0.0078 0.129606,-0.03497 0.02719,-0.02011 0.04774,-0.04771 0.07164,-0.07164 0.05019,-0.05026 0.115812,-0.08426 0.185203,-0.09943 0.06939,-0.01517 0.142357,-0.01182 0.210977,0.0065 0.13724,0.03669 0.253659,0.131663 0.338519,0.245591 0.16972,0.227854 0.220096,0.520922 0.339835,0.778575 0.214456,0.461465 0.653461,0.795482 1.137088,0.953743 0.483626,0.15826 1.008409,0.154438 1.509925,0.06828 1.003032,-0.172311 1.933304,-0.661557 2.940565,-0.80712 0.357866,-0.05172 0.722781,-0.05953 1.074534,-0.143271 0.434936,-0.103547 0.843833,-0.32178 1.289441,-0.358178 0.238116,-0.01945 0.477867,0.01415 0.716356,0 0.57516,-0.03413 1.094684,-0.33947 1.647619,-0.501449 0.261392,-0.07657 0.532147,-0.121459 0.787992,-0.214907 0.601734,-0.219785 1.079306,-0.69378 1.448994,-1.216962 0.369688,-0.523183 0.649453,-1.103752 0.986617,-1.648462 0.483729,-0.781494 1.083391,-1.48544 1.719254,-2.149069 0.233648,-0.24385 0.472506,-0.482708 0.716356,-0.716356 0.008,-0.310572 0.173047,-0.613092 0.429814,-0.787992 0.05749,-0.03916 0.119254,-0.07232 0.173028,-0.116442 0.05377,-0.04413 0.100235,-0.101818 0.113514,-0.1701 0.0092,-0.04719 0.002,-0.09581 -0.004,-0.143516 -0.0059,-0.04771 -0.01037,-0.09713 0.004,-0.143026 0.01021,-0.03271 0.02961,-0.06202 0.05292,-0.08715 0.02331,-0.02513 0.0505,-0.04632 0.07833,-0.06631 0.05567,-0.03998 0.115872,-0.07702 0.155293,-0.133085 0.02927,-0.04162 0.04533,-0.09239 0.04533,-0.143271 0,-0.05088 -0.01606,-0.101647 -0.04533,-0.143271 0.161685,-0.11538 0.269225,-0.303575 0.286542,-0.50145 0.01251,-0.142921 -0.01965,-0.287698 0,-0.429813 0.02261,-0.163539 0.111293,-0.308978 0.185431,-0.456491 0.03707,-0.07376 0.07105,-0.149613 0.09157,-0.229569 0.02052,-0.07996 0.02721,-0.164568 0.0095,-0.245203 -0.01059,-0.04836 -0.02967,-0.09437 -0.04554,-0.141261 -0.01587,-0.04689 -0.02871,-0.09584 -0.0261,-0.145282 0.0029,-0.05409 0.02413,-0.105748 0.05156,-0.152454 0.02743,-0.0467 0.0611,-0.08939 0.09171,-0.134088 0.197862,-0.288943 0.260609,-0.655335 0.227907,-1.004001 -0.0327,-0.348667 -0.154367,-0.68311 -0.299547,-1.001796 -0.25816,-0.566689 -0.597335,-1.108013 -0.716356,-1.719255 -0.05557,-0.285394 -0.06165,-0.580566 -0.143272,-0.859627 -0.141261,-0.482935 -0.497161,-0.880029 -0.64472,-1.361077 -0.06459,-0.210556 -0.0874,-0.431685 -0.143271,-0.64472 -0.122367,-0.466578 -0.39709,-0.875499 -0.644721,-1.289441 -0.422521,-0.706289 -0.783092,-1.472882 -0.859627,-2.29234 -0.01717,-0.183854 -0.01989,-0.369058 -0.04426,-0.552097 -0.02438,-0.183039 -0.07182,-0.366455 -0.170645,-0.522437 -0.113387,-0.178961 -0.287752,-0.311982 -0.406631,-0.487342 -0.05944,-0.08768 -0.104837,-0.187291 -0.11471,-0.292758 -0.0049,-0.05273 -8.48e-4,-0.106506 0.01416,-0.157299 0.01501,-0.05079 0.04109,-0.09854 0.07736,-0.137135 0.02314,-0.02463 0.05027,-0.04546 0.07164,-0.07164 0.02348,-0.02875 0.03938,-0.06343 0.04716,-0.09973 0.0078,-0.03629 0.0075,-0.07415 5.93e-4,-0.110615 -0.01388,-0.07293 -0.05413,-0.139042 -0.105501,-0.19263 -0.10275,-0.107177 -0.24502,-0.164919 -0.37207,-0.241748 -0.362139,-0.218992 -0.602163,-0.597883 -0.751486,-0.993869 -0.149324,-0.395985 -0.219831,-0.81641 -0.323048,-1.226835 -0.05699,-0.226622 -0.124544,-0.451815 -0.22608,-0.662281 -0.101535,-0.210467 -0.238514,-0.406662 -0.41864,-0.555525 -0.05258,-0.04345 -0.108588,-0.08271 -0.159762,-0.127805 -0.05117,-0.04509 -0.09799,-0.0969 -0.126781,-0.158737 -0.0474,-0.101819 -0.04149,-0.219032 -0.04436,-0.331307 -0.0014,-0.05614 -0.0054,-0.112623 -0.0197,-0.16692 -0.01433,-0.0543 -0.03963,-0.106657 -0.07921,-0.146493 -0.04257,-0.04285 -0.09872,-0.06877 -0.151728,-0.09773 -0.0265,-0.01448 -0.05259,-0.02999 -0.07607,-0.04898 -0.02349,-0.01899 -0.04439,-0.04162 -0.05874,-0.0682 -0.01766,-0.03271 -0.02478,-0.07023 -0.02648,-0.10737 -0.0017,-0.03714 0.0018,-0.07429 0.0041,-0.111395 0.0023,-0.03711 0.0034,-0.0746 -0.0031,-0.111224 -0.0064,-0.03662 -0.02081,-0.07263 -0.04616,-0.09983 -0.0297,-0.03186 -0.07143,-0.04901 -0.111065,-0.06707 -0.01982,-0.009 -0.03951,-0.01855 -0.05757,-0.03072 -0.01806,-0.01218 -0.03452,-0.02715 -0.04627,-0.04548 -0.01359,-0.0212 -0.02042,-0.04612 -0.02362,-0.0711 -0.0032,-0.02498 -0.003,-0.05024 -0.0035,-0.07542 -5.52e-4,-0.02518 -0.0019,-0.05054 -0.0082,-0.07492 -0.0063,-0.02438 -0.01785,-0.04793 -0.03627,-0.06511 -0.01399,-0.01305 -0.03142,-0.02197 -0.04957,-0.02801 -0.01815,-0.006 -0.03709,-0.0093 -0.056,-0.01217 -0.03782,-0.0057 -0.07741,-0.0104 -0.109339,-0.03146 -0.02147,-0.01416 -0.03803,-0.03506 -0.04921,-0.05822 -0.01118,-0.02316 -0.01719,-0.04856 -0.02013,-0.07411 -0.0059,-0.05111 2.9e-4,-0.102834 -0.0023,-0.15421 -0.0056,-0.1108986 -0.05364,-0.2191308 -0.13216,-0.2976465 -0.07852,-0.078516 -0.18675,-0.12657 -0.297649,-0.1321529 C 26.407426,9.4427732 26.331397,9.2907143 26.218634,9.173499 26.089154,9.0389065 25.915963,8.9521227 25.78882,8.8153209 25.658577,8.6751837 25.585767,8.4929683 25.501642,8.3211407 25.459579,8.2352268 25.41384,8.1506029 25.356074,8.074356 25.298309,7.9981091 25.227917,7.9301549 25.144099,7.884058 c -0.05395,-0.029668 -0.112725,-0.049953 -0.166013,-0.080786 -0.02665,-0.015416 -0.05194,-0.033537 -0.07319,-0.055809 -0.02125,-0.022273 -0.03839,-0.04886 -0.04734,-0.078312 -0.01048,-0.034456 -0.0094,-0.071303 -0.0062,-0.1071733 0.0032,-0.03587 0.0085,-0.071792 0.0062,-0.1077335 -0.0033,-0.052728 -0.02307,-0.1036788 -0.05218,-0.1477724 -0.0291,-0.044093 -0.06733,-0.08163 -0.109056,-0.1140381 C 24.612871,7.1276167 24.51575,7.0829134 24.427743,7.0244306 24.279396,6.9258506 24.158643,6.7886274 24.06893,6.6347559 23.979217,6.4808844 23.919801,6.3105767 23.882071,6.1365043 23.806609,5.7883594 23.816916,5.4283258 23.813097,5.0721171 23.809278,4.7159083 23.789404,4.3522305 23.658568,4.0208983 23.59315,3.8552322 23.499872,3.6993606 23.37565,3.571714 23.251428,3.4440675 23.095466,3.3453839 22.923395,3.2993789 c -0.06319,-0.016895 -0.1282,-0.026709 -0.190774,-0.045763 -0.06257,-0.019054 -0.124022,-0.048553 -0.167404,-0.097508 -0.03318,-0.037438 -0.05411,-0.084493 -0.06644,-0.132972 -0.01233,-0.048479 -0.01647,-0.098636 -0.0193,-0.148578 -0.0028,-0.049942 -0.0044,-0.1000665 -0.01178,-0.1495424 -0.0074,-0.049476 -0.02077,-0.098653 -0.04575,-0.1419925 -0.02824,-0.049001 -0.07114,-0.089431 -0.121726,-0.1147246 -0.05059,-0.025293 -0.10867,-0.035353 -0.164816,-0.028547"
       id="path5052"
       inkscape:path-effect="#path-effect5054"
       inkscape:original-d="m 22.565217,3.1561077 c -0.09551,0 -0.207069,-0.052982 -0.286542,0 -0.08885,0.059235 -0.07295,0.2061762 -0.143271,0.2865424 -0.100684,0.1150669 -0.26776,0.1632453 -0.358178,0.2865424 -0.176935,0.2412742 -0.27233,0.5335948 -0.429814,0.7879918 -0.153419,0.2478307 -0.3343,0.4775707 -0.501449,0.7163561 -0.214907,0.2626639 -0.461778,0.5021435 -0.644721,0.7879917 -0.201476,0.3148059 -0.297755,0.6895233 -0.501449,1.0028985 -0.110423,0.1698822 -0.313621,0.2638241 -0.429814,0.4298137 -1.693733,2.9640327 0.486524,-0.686857 -1.217805,1.7192547 -0.222554,0.3141937 -0.353208,0.6868255 -0.573085,1.002899 -0.443452,0.637462 -0.997095,1.209099 -1.432712,1.862525 -0.510694,0.766041 -0.940899,1.598932 -1.432712,2.363976 -0.119048,0.185184 -0.307697,0.318274 -0.429814,0.501449 -0.662921,0.994381 -1.19307,2.119368 -1.79089,3.151967 -0.578407,0.999065 -1.205686,1.897803 -1.575984,3.008695 -0.139234,0.417704 -0.155212,0.869185 -0.286542,1.289441 -0.05424,0.173576 -0.181394,0.322711 -0.214907,0.50145 -0.0396,0.211226 0.03735,0.433083 0,0.64472 -0.290366,1.645406 -0.214907,-0.548521 -0.214907,1.217806 0,1.838737 -0.2149067,3.69501 -0.2149067,5.515942 0,0.318111 -0.1456709,0.598104 -0.071636,0.931262 0.03206,0.144271 0.3145187,0.542847 0.3581787,0.644721 0.158654,0.370193 0.289032,0.846076 0.501449,1.217805 0.229971,0.40245 0.525859,0.789187 0.716356,1.217806 0.03999,0.08997 0.01441,0.206427 0.07164,0.286542 0.0694,0.09715 0.220315,0.115566 0.286542,0.214907 0.03974,0.0596 -0.02265,0.146947 0,0.214907 0.01566,0.04698 0.701687,1.042604 0.787992,1.14617 0.278294,0.333953 0.516902,0.664036 0.787992,1.002898 0.279036,0.348796 0.778913,0.557955 1.002898,0.931263 0.03885,0.06475 0.01824,0.161513 0.07164,0.214907 0.176776,0.176777 0.181401,-0.03351 0.358178,0.143271 0.238264,0.238265 0.339402,0.512811 0.64472,0.716356 0.0281,0.01873 0.04462,-0.0919 0.07164,-0.07164 0.362219,0.271664 0.684248,0.671072 1.074534,0.931263 1.516981,1.01132 4.008705,0.666013 5.587578,0.214906 0.282419,-0.08069 0.819901,-0.100832 1.074534,-0.143271 0.440444,-0.07341 0.867699,-0.264457 1.289441,-0.358178 0.233099,-0.0518 0.48082,0.03926 0.716356,0 0.592244,-0.09871 1.104979,-0.304126 1.647619,-0.501449 0.952312,-0.346296 -0.05533,0.206753 0.787992,-0.214907 1.085029,-0.542515 1.692211,-1.973345 2.435611,-2.865424 0.561905,-0.674287 1.289104,-1.432152 1.719254,-2.149069 0.164177,-0.273627 0.538909,-0.48821 0.716356,-0.716356 0.490778,-0.08476 0.255909,-0.544525 0.429814,-0.787992 0.07851,-0.109917 0.226134,-0.165725 0.286542,-0.286542 0.04272,-0.08543 -0.04272,-0.201112 0,-0.286542 0.06041,-0.120817 0.226134,-0.165726 0.286543,-0.286543 0.04272,-0.08543 -0.02072,-0.193303 0,-0.286542 -0.188647,-0.33058 0.239851,-0.314683 0.286542,-0.50145 0.03475,-0.138993 -0.03108,-0.289954 0,-0.429813 0.06501,-0.292539 0.253782,-0.603654 0.286543,-0.931263 0.0098,-0.09796 -0.08385,-0.188849 -0.07164,-0.286543 0.01325,-0.105963 0.133603,-0.180193 0.143271,-0.286542 0.03071,-0.337834 -0.03222,-1.69048 -0.07164,-2.005797 -0.07986,-0.638852 -0.538333,-1.125844 -0.716356,-1.719255 -0.08347,-0.278244 -0.0598,-0.581383 -0.143272,-0.859627 -0.144253,-0.480846 -0.478878,-0.887243 -0.64472,-1.361077 -0.07273,-0.207789 -0.06348,-0.43954 -0.143271,-0.64472 -0.615837,-1.58358 -0.12111,0.281392 -0.644721,-1.289441 -0.25321,-0.759631 -0.627442,-1.518388 -0.859627,-2.29234 -0.100238,-0.334127 -0.09581,-0.747017 -0.214907,-1.074534 -0.135466,-0.372533 -0.370447,-0.658967 -0.429814,-1.074534 -0.0048,-0.03343 0.07983,-0.03888 0.07164,-0.07164 -0.06264,-0.250574 -0.304379,-0.418938 -0.429814,-0.64472 -0.397751,-0.715953 -0.690054,-1.494464 -1.074534,-2.220704 -0.214907,-0.405935 -0.403996,-0.826628 -0.64472,-1.217806 -0.07079,-0.115039 -0.226134,-0.165725 -0.286543,-0.286542 -0.390354,-0.780709 0.561004,0.294313 -0.143271,-0.64472 -0.07164,-0.09552 -0.22856,-0.110539 -0.286542,-0.214907 -0.07054,-0.126969 -0.0067,-0.299901 -0.07164,-0.429814 -0.0385,-0.07701 -0.16715,-0.07164 -0.214907,-0.143271 -0.05461,-0.08192 -0.01013,-0.209663 -0.07164,-0.286543 -0.04717,-0.05896 -0.167735,-0.01267 -0.214906,-0.07164 -0.0615,-0.07688 -0.03507,-0.195131 -0.07164,-0.286543 C 26.797316,9.868031 26.547502,9.7457646 26.43354,9.6033126 26.251521,9.5176264 26.314743,9.3016446 26.218634,9.173499 26.121437,9.0439038 25.886157,8.9775487 25.78882,8.8153209 25.611582,8.5199247 25.398584,8.1385426 25.144099,7.884058 25.01564,7.7555991 24.943436,7.8838484 24.857557,7.6691511 c -0.0266,-0.066512 0.03204,-0.150834 0,-0.2149068 C 24.771594,7.2823188 24.513706,7.1963561 24.427743,7.0244306 24.204285,6.5775144 22.975349,3.3409414 22.923395,3.2993789 22.822984,3.2190494 22.629016,3.2677549 22.565217,3.1561077 22.363997,2.8039716 22.874494,2.5830228 22.421946,2.5830228 c -0.06766,0 -0.06256,-0.1432712 -0.286542,-0.1432712"
       inkscape:connector-curvature="0" />
    <path
       style="fill:none;fill-rule:evenodd;stroke:#000000;stroke-width:1px;stroke-linecap:butt;stroke-linejoin:miter;stroke-opacity:1"
       d="m 21.633954,37.039752 c -1.160108,0.133329 -2.361529,-0.122293 -3.366873,-0.716357 -0.913404,-0.539736 -1.655027,-1.34506 -2.195287,-2.258155 -0.540259,-0.913094 -0.885466,-1.932197 -1.099951,-2.971244 -0.170879,-0.827803 -0.258159,-1.70238 0,-2.507247 0.115513,-0.360136 0.298664,-0.701038 0.358178,-1.074534 0.07908,-0.496272 -0.0672,-1.00633 0,-1.504348 0.05281,-0.391333 0.233928,-0.751844 0.408036,-1.106269 0.174108,-0.354425 0.346624,-0.720963 0.379955,-1.114434 0.01284,-0.151528 0.0047,-0.304668 0.02549,-0.455307 0.01041,-0.07532 0.02817,-0.150021 0.05855,-0.219722 0.03038,-0.0697 0.07374,-0.134406 0.130859,-0.184599 0.06474,-0.0569 0.144632,-0.09337 0.214907,-0.143271 0.173935,-0.123511 0.279649,-0.32273 0.345014,-0.525796 0.06536,-0.203066 0.09641,-0.415666 0.156435,-0.620374 0.187515,-0.639484 0.641401,-1.159414 1.002899,-1.719254 0.261199,-0.40451 0.477831,-0.837776 0.64472,-1.289441 0.02856,-0.195156 0.07663,-0.387451 0.143272,-0.573085 0.227625,-0.634056 0.663462,-1.172731 0.931263,-1.790891 0.323909,-0.750929 0.386031,-1.588158 0.64472,-2.363975 0.05269,-0.1555 0.114518,-0.310113 0.131876,-0.473377 0.0087,-0.08163 0.0059,-0.16504 -0.01467,-0.244509 -0.02059,-0.07947 -0.05954,-0.154954 -0.117207,-0.213377 -0.0099,-0.02864 -0.0297,-0.05363 -0.05498,-0.07032 -0.02528,-0.0167 -0.05581,-0.02512 -0.08609,-0.02444 -0.03029,6.8e-4 -0.06022,0.01036 -0.08556,0.02697 -0.02533,0.01661 -0.04605,0.04003 -0.06005,0.0669 -0.028,0.05373 -0.02795,0.120091 -0.0043,0.175886 0.02362,0.05579 0.06941,0.100971 0.12355,0.128167 0.05414,0.0272 0.116204,0.03702 0.176603,0.03226 0.0604,-0.0048 0.119245,-0.02376 0.172921,-0.05186 0.107352,-0.0562 0.193573,-0.146764 0.262292,-0.246567 0.06872,-0.0998 0.122013,-0.209901 0.161706,-0.324386 0.03969,-0.114485 0.06636,-0.235042 0.06205,-0.356136 -0.0022,-0.06055 -0.01253,-0.121153 -0.03477,-0.177509 -0.02224,-0.05636 -0.05681,-0.108589 -0.10395,-0.146645 -0.04714,-0.03806 -0.107728,-0.06122 -0.168159,-0.0569 -0.03021,0.0022 -0.06005,0.01119 -0.08581,0.02714 -0.02575,0.01595 -0.04732,0.03891 -0.0605,0.06618 l 0,0.07164 0,0.501449 c 0,0.230523 0.01552,0.461788 0.06712,0.686462 0.0516,0.224673 0.131748,0.444651 0.147791,0.674615 0.0068,0.09695 0.0013,0.194377 0.006,0.291452 0.0047,0.09708 0.02018,0.195742 0.06566,0.281633 0.05419,0.10234 0.146065,0.178317 0.223977,0.263986 0.03896,0.04283 0.07502,0.08897 0.100412,0.141008 0.02539,0.05203 0.03974,0.110498 0.03379,0.168091 -0.0078,0.07534 -0.04887,0.142666 -0.07164,0.214906 -0.02302,0.07302 -0.02711,0.15146 -0.01576,0.22718 0.01135,0.07572 0.03788,0.148777 0.07426,0.216149 0.07275,0.134745 0.183206,0.245254 0.299684,0.344663 0.09013,0.07692 0.185754,0.149422 0.258556,0.24291 0.0364,0.04674 0.0668,0.09864 0.08539,0.154888 0.01859,0.05625 0.02508,0.117042 0.01423,0.175287 -0.0093,0.04986 -0.03089,0.09685 -0.03925,0.146872 -0.0042,0.02501 -0.0049,0.05089 8.93e-4,0.07556 0.0058,0.02468 0.01866,0.04814 0.03835,0.06411 0.01493,0.01211 0.03319,0.01952 0.05185,0.02412 0.01866,0.0046 0.03786,0.0065 0.05695,0.0087 0.01909,0.0022 0.03827,0.0047 0.05663,0.01035 0.01836,0.0057 0.03603,0.0147 0.04947,0.02845 0.01317,0.01347 0.02177,0.03102 0.02605,0.04937 0.0043,0.01835 0.0044,0.03749 0.0021,0.05619 -0.0046,0.03739 -0.01873,0.07286 -0.02812,0.109352 -0.0089,0.03473 -0.01363,0.07089 -0.0099,0.106562 0.0037,0.03567 0.01617,0.07092 0.03881,0.09874 0.02263,0.02782 0.05591,0.04764 0.09165,0.05066 0.01787,0.0015 0.03613,-0.0012 0.05264,-0.0082 0.01651,-0.007 0.0312,-0.01838 0.04174,-0.03289 0.01054,-0.01452 0.01676,-0.03179 0.02703,-0.0465 0.0051,-0.0074 0.01134,-0.0141 0.01896,-0.01885 0.0076,-0.0047 0.01674,-0.0074 0.02564,-0.0063 0.0087,0.0011 0.01681,0.0057 0.02254,0.01234 0.0057,0.0066 0.0091,0.01515 0.01004,0.02386 9.17e-4,0.0087 -5.75e-4,0.01761 -0.0038,0.02576 -0.0032,0.0082 -0.0081,0.01558 -0.01397,0.02211 -0.01168,0.01307 -0.02686,0.02245 -0.04211,0.03109 -0.01525,0.0086 -0.03093,0.01683 -0.04434,0.0281 -0.02331,0.01959 -0.0386,0.048 -0.044,0.07796 -0.0054,0.02996 -0.0012,0.06132 0.01012,0.08958 0.02264,0.05653 0.07205,0.09879 0.126249,0.126555 0.05419,0.02776 0.113743,0.04299 0.172037,0.06058 0.05829,0.0176 0.116906,0.03833 0.165414,0.07513 0.05437,0.04125 0.09285,0.100568 0.119358,0.163456 0.02651,0.06289 0.0419,0.129789 0.05741,0.19625 0.01551,0.06646 0.03138,0.133292 0.05876,0.195807 0.02737,0.06252 0.06716,0.121112 0.122652,0.160843 0.03534,0.02531 0.07585,0.04221 0.114342,0.06241 0.03849,0.02019 0.07625,0.04484 0.100565,0.08087 0.01728,0.02559 0.02687,0.05575 0.03178,0.08624 0.0049,0.03049 0.0053,0.06149 0.0056,0.09237 2.83e-4,0.03088 4.34e-4,0.06187 0.0048,0.09244 0.0044,0.03057 0.0131,0.06092 0.02943,0.08713 0.02307,0.03702 0.05977,0.06353 0.09809,0.08438 0.03832,0.02084 0.0791,0.03698 0.11682,0.05889 0.08579,0.04983 0.152695,0.128212 0.199779,0.215542 0.04708,0.08733 0.07541,0.183606 0.09586,0.280688 0.04091,0.194163 0.05255,0.397442 0.13417,0.578304 0.07096,0.157235 0.190119,0.286774 0.286543,0.429814 0.228473,0.338928 0.325926,0.748716 0.384946,1.153177 0.05902,0.404461 0.08433,0.815455 0.188139,1.210798 0.06007,0.228789 0.14759,0.45329 0.286542,0.64472 0.09866,0.135913 0.221086,0.252401 0.338141,0.372831 0.117054,0.12043 0.230707,0.24747 0.306663,0.397256 0.07596,0.149786 0.111419,0.326262 0.06537,0.487769 -0.02303,0.08075 -0.06637,0.156221 -0.127667,0.213615 -0.0613,0.05739 -0.140781,0.09607 -0.224327,0.104513 -0.0238,0.0024 -0.04784,0.0024 -0.07164,0 -0.01066,0.09512 -0.01066,0.191425 0,0.286542 0.02979,0.265831 0.14211,0.520499 0.143272,0.787992 6.81e-4,0.156727 -0.03698,0.310674 -0.06489,0.464897 -0.02792,0.154223 -0.04599,0.314628 -0.0067,0.466366 0.01896,0.07333 0.05081,0.142545 0.07988,0.212485 0.02907,0.06994 0.05572,0.141976 0.06339,0.217328 0.0086,0.0843 -0.007,0.169113 -0.02575,0.251746 -0.01878,0.08263 -0.04095,0.165109 -0.04589,0.249704 -0.0094,0.16002 0.04321,0.316581 0.09806,0.467198 0.05485,0.150618 0.113438,0.303808 0.116843,0.464065 0.0031,0.145633 -0.03962,0.287709 -0.07164,0.429813 -0.110679,0.491235 -0.09522,1.00202 -0.05043,1.503573 0.04478,0.501553 0.118343,1.001588 0.122074,1.505123 0.0023,0.310829 -0.02255,0.624275 -0.109346,0.922747 -0.0868,0.298472 -0.238324,0.582478 -0.463738,0.796508 -0.117798,0.111848 -0.255292,0.20464 -0.354152,0.333532 -0.04943,0.06445 -0.08861,0.138013 -0.105094,0.217542 -0.01648,0.07953 -0.009,0.165376 0.02943,0.236917 0.01036,0.01927 0.02281,0.03732 0.0339,0.05618 0.01109,0.01886 0.02092,0.03878 0.02537,0.0602 0.0044,0.02142 0.0031,0.04459 -0.0071,0.06392 -0.0051,0.0097 -0.01243,0.01822 -0.02146,0.0244 -0.009,0.0062 -0.01978,0.0099 -0.03071,0.0102 -0.01374,3.56e-4 -0.02717,-0.0047 -0.03887,-0.0119 -0.0117,-0.0072 -0.02191,-0.01655 -0.03215,-0.02572 -0.01024,-0.0092 -0.0207,-0.01828 -0.03272,-0.02493 -0.01203,-0.0067 -0.02588,-0.01075 -0.03952,-0.0091 -0.01376,0.0017 -0.02649,0.0092 -0.0356,0.01962 -0.0091,0.01044 -0.01475,0.02365 -0.0173,0.03727 -0.0051,0.02724 0.0017,0.05519 0.0093,0.08186 0.0076,0.02666 0.01605,0.05381 0.01427,0.08147 -8.88e-4,0.01383 -0.0044,0.02763 -0.01151,0.03955 -0.0071,0.01192 -0.01783,0.02185 -0.03079,0.02677 -0.01149,0.0044 -0.02418,0.0047 -0.03637,0.003 -0.01218,-0.0016 -0.02402,-0.0051 -0.03593,-0.0082 -0.01191,-0.003 -0.02405,-0.0057 -0.03634,-0.0055 -0.01229,1.35e-4 -0.02486,0.0032 -0.03463,0.01069 -0.01138,0.0087 -0.01794,0.02241 -0.02123,0.03634 -0.0033,0.01393 -0.0037,0.02835 -0.0051,0.04259 -0.0014,0.01424 -0.0041,0.02872 -0.01125,0.04109 -0.0036,0.0062 -0.0083,0.01176 -0.01415,0.01593 -0.0058,0.0042 -0.01274,0.0069 -0.01988,0.0073 -0.0089,5.42e-4 -0.01773,-0.0025 -0.02513,-0.0074 -0.0074,-0.0049 -0.01345,-0.01165 -0.01854,-0.01894 -0.01018,-0.01457 -0.01683,-0.03147 -0.02797,-0.04532 -0.01445,-0.01797 -0.03604,-0.02972 -0.05879,-0.03344 -0.02276,-0.0037 -0.04652,3.96e-4 -0.06732,0.01033 -0.02081,0.0099 -0.03869,0.02553 -0.05251,0.04399 -0.01381,0.01846 -0.02364,0.03973 -0.03009,0.06187 -0.01291,0.04427 -0.01244,0.09126 -0.0097,0.137294 0.0028,0.04603 0.0078,0.09222 0.0035,0.138136 -0.0099,0.105613 -0.06959,0.20312 -0.151661,0.270315 -0.08207,0.06719 -0.184892,0.105826 -0.289603,0.122763 -0.209421,0.03388 -0.422042,-0.01521 -0.63327,-0.0349 -0.168696,-0.01572 -0.34238,-0.01331 -0.50145,-0.07164 -0.144225,-0.05288 -0.265839,-0.15191 -0.389601,-0.242908 -0.123762,-0.091 -0.258069,-0.177723 -0.410174,-0.199211 -0.07605,-0.01074 -0.155396,-0.0042 -0.226213,0.02553 -0.07082,0.02974 -0.132475,0.08367 -0.165277,0.153123 -0.0164,0.03473 -0.02551,0.07298 -0.0256,0.111384 -9.6e-5,0.0384 0.0089,0.0769 0.02679,0.110884 0.0179,0.03398 0.04474,0.06332 0.07748,0.0834 0.03274,0.02008 0.07132,0.03074 0.109698,0.02944 0.02398,-8.17e-4 0.04844,-0.0061 0.07164,0 0.02234,0.0059 0.04143,0.02275 0.05043,0.04403 0.009,0.02128 0.0079,0.04653 -0.0027,0.06708 -0.01056,0.02055 -0.03026,0.03611 -0.0526,0.042 -0.02235,0.0059 -0.04699,0.0021 -0.06676,-0.0098 -0.02524,-0.01527 -0.04118,-0.04192 -0.06335,-0.06137 -0.01108,-0.0097 -0.02409,-0.01779 -0.03857,-0.02059 -0.0072,-0.0014 -0.01478,-0.0015 -0.02196,2.15e-4 -0.0072,0.0017 -0.014,0.0051 -0.0194,0.01011 -0.0055,0.0051 -0.0094,0.01181 -0.01154,0.01901 -0.0021,0.0072 -0.0025,0.01486 -0.0014,0.02229 0.0022,0.01485 0.01,0.02839 0.01976,0.03977 0.01956,0.02276 0.04704,0.03804 0.06482,0.0622 0.01437,0.01953 0.02148,0.04429 0.01965,0.06846 -0.0018,0.02418 -0.01258,0.04759 -0.02972,0.06473 -0.01715,0.01715 -0.04055,0.02789 -0.06473,0.02972 -0.02418,0.0018 -0.04893,-0.0053 -0.06846,-0.01965"
       id="path5076"
       inkscape:path-effect="#path-effect5078"
       inkscape:original-d="m 21.633954,37.039752 c -1.387828,0.331849 -2.22303,-0.144435 -3.366873,-0.716357 -1.957525,-0.978762 -3.295238,-2.742351 -3.295238,-5.229399 0,-0.617007 -0.174317,-1.984297 0,-2.507247 0.118243,-0.35473 0.265877,-0.705331 0.358178,-1.074534 0.0738,-0.295195 -0.100488,-1.001907 0,-1.504348 0.150949,-0.754748 0.487152,-1.518746 0.787991,-2.220703 0.106059,-0.24747 0.109748,-0.649309 0.214907,-0.859628 0.0385,-0.07701 0.16715,-0.07164 0.214907,-0.143271 0.118584,-0.177875 0.40609,-0.982696 0.501449,-1.14617 0.33229,-0.569639 0.670595,-1.137723 1.002899,-1.719254 0.2307,-0.403726 0.436707,-0.942753 0.64472,-1.289441 0.327948,-0.124239 0.05521,-0.396966 0.143272,-0.573085 0.190817,-0.381635 0.931263,-1.338476 0.931263,-1.790891 0,-0.690815 0.459228,-1.807499 0.64472,-2.363975 0.105064,-0.315192 -0.20587,-0.519522 0,-0.931263 0.08903,-0.178068 0.214907,-0.715386 0.214907,-0.931263 0,-0.02388 0,0.04776 0,0.07164 0,0.16715 0,0.3343 0,0.501449 0,0.441526 0.112822,0.952738 0.214907,1.361077 0.128947,0.515787 0.01639,0.241631 0.07164,0.573085 0.01707,0.102402 0.358178,0.549811 0.358178,0.573085 0,0.07551 -0.08644,0.140862 -0.07164,0.214906 0.02159,0.107962 0.29633,0.602448 0.358178,0.787992 0.06786,0.203571 0.305692,0.363142 0.358178,0.573085 0.02316,0.09266 -0.06754,0.219004 0,0.286543 0.05339,0.05339 0.154498,0.02633 0.214907,0.07163 0.415109,0.311332 -0.09829,0.01833 0,0.214907 0.04531,0.09061 0.124294,0.1696 0.214907,0.214907 0.0302,0.0151 0.07163,-0.105405 0.07163,-0.07164 0,0.05339 -0.08458,0.09147 -0.07163,0.143271 0.04165,0.166618 0.358584,0.311098 0.429813,0.429814 0.156847,0.261412 0.164396,0.445062 0.358178,0.716356 0.05004,0.07006 0.172192,0.06852 0.214907,0.143271 0.06041,0.105715 0.01123,0.252464 0.07164,0.358178 0.04271,0.07475 0.169276,0.07026 0.214907,0.143272 0.20368,0.325889 0.284415,0.747388 0.429813,1.074534 0.06993,0.15735 0.20292,0.279292 0.286543,0.429814 0.465231,0.837416 0.573085,1.646594 0.573085,2.363975 0,0.22864 0.286542,0.412758 0.286542,0.64472 0,0.413114 0.358178,1.032385 0.358178,1.575984 0,0.02388 -0.04776,0 -0.07164,0 0,0.09551 -0.02316,0.19388 0,0.286542 0.01996,0.07983 0.143272,0.630729 0.143272,0.787992 0,0.305079 -0.117403,0.610894 -0.07164,0.931263 0.02136,0.149503 0.143271,0.278792 0.143271,0.429813 0,0.630331 -0.200454,-0.27146 -0.07164,0.50145 0.03203,0.192164 0.214906,0.843947 0.214906,0.931263 0,0.542472 -0.161085,-0.106888 -0.07164,0.429813 0.07999,0.479917 0.224333,2.550603 0.07164,3.008696 -0.186381,0.559145 -0.347653,1.155676 -0.573084,1.719255 -0.117284,0.293209 -0.228319,0.586497 -0.429814,0.787991 -0.07164,0.07164 0.143271,0.143272 0,0.214907 -0.04776,0.02388 -0.09551,-0.09551 -0.143271,-0.07164 -0.01447,0.0072 -0.05703,0.271936 -0.07164,0.286542 -0.03377,0.03377 -0.103535,-0.02649 -0.143271,0 -0.04443,0.02962 -0.02388,0.119393 -0.07164,0.143271 -0.0302,0.0151 -0.04776,-0.09551 -0.07164,-0.07163 -0.08462,0.08462 -0.145536,0.288807 -0.214907,0.358178 -0.02378,0.02378 -1.073391,0.358178 -1.074534,0.358178 -0.0976,0 -0.352611,-0.146055 -0.50145,-0.07164 -0.465486,0.232743 -0.914815,0.07164 -1.002898,0.07164 -0.02388,0 0.05475,-0.01689 0.07164,0 0.03776,0.03775 -0.01824,0.143271 -0.07164,0.143271 -0.08694,0 0.02255,-0.237456 -0.143271,-0.07164 -0.03776,0.03776 0.125029,0.143271 0.07164,0.143271 -0.07872,0 -0.263413,-0.09701 -0.143271,0.143272"
       inkscape:connector-curvature="0" />
    <path
       style="fill:none;fill-rule:evenodd;stroke:#000000;stroke-width:1px;stroke-linecap:butt;stroke-linejoin:miter;stroke-opacity:1"
       d="m 20.702692,33.887785 c -0.818657,-0.732307 -1.44246,-1.680488 -1.790891,-2.722154 -0.261259,-0.781057 -0.368788,-1.616134 -0.286542,-2.43561 0.06039,-0.601715 0.221302,-1.189682 0.286542,-1.790891 0.05832,-0.53747 0.042,-1.093286 0.230907,-1.599833 0.09445,-0.253274 0.242055,-0.491087 0.450779,-0.662851 0.208725,-0.171764 0.482173,-0.272613 0.751026,-0.244562 0.09819,0.01025 0.194077,0.03706 0.286543,0.07164 0.339678,0.127039 0.635038,0.359975 0.859627,0.64472 0.17276,0.219033 0.304655,0.467044 0.429814,0.716356 0.408738,0.814192 0.760077,1.673307 0.859627,2.578882 0.0627,0.570334 0.02418,1.147451 0.07164,1.719255 0.05759,0.693864 0.24148,1.388145 0.143271,2.077433 -0.01467,0.102955 -0.03684,0.208088 -0.09505,0.294264 -0.02911,0.04309 -0.06714,0.08067 -0.112724,0.1057 -0.04558,0.02502 -0.0989,0.037 -0.150405,0.02985 -0.03726,-0.0052 -0.0726,-0.02 -0.109731,-0.02603 -0.01857,-0.003 -0.03769,-0.0038 -0.05612,-1.5e-5 -0.01843,0.0038 -0.03617,0.01235 -0.04906,0.02605 -0.0091,0.0097 -0.01559,0.02168 -0.01961,0.03435 -0.004,0.01267 -0.0057,0.02602 -0.0058,0.03932 -2.31e-4,0.02659 0.0055,0.05282 0.0093,0.07915 0.0038,0.02632 0.0055,0.05368 -0.0024,0.07907 -0.004,0.0127 -0.01035,0.02473 -0.01939,0.03448 -0.009,0.0098 -0.02079,0.01714 -0.03374,0.02016 -0.0098,0.0023 -0.02023,0.002 -0.02992,-7.36e-4 -0.0097,-0.0028 -0.01867,-0.008 -0.0258,-0.01518 -0.0071,-0.0071 -0.01241,-0.0161 -0.01518,-0.0258 -0.0028,-0.0097 -0.003,-0.0201 -7.36e-4,-0.02992 -0.03227,0.155356 -0.14206,0.292589 -0.286542,0.358178 -0.08991,0.04082 -0.189313,0.05442 -0.286543,0.07164 -0.45701,0.08095 -0.897812,0.252374 -1.289441,0.501449"
       id="path5084"
       inkscape:path-effect="#path-effect5086"
       inkscape:original-d="m 20.702692,33.887785 c -0.906727,-0.541214 -1.498386,-1.698388 -1.790891,-2.722154 -0.22762,-0.796672 -0.286542,-1.607658 -0.286542,-2.43561 0,-0.800752 -0.07083,-1.076148 0.286542,-1.790891 0.364801,-0.729601 0.973449,-2.277614 1.432712,-2.507246 0.08806,-0.04403 0.188089,0.07164 0.286543,0.07164 0.610247,0 0.609955,0.145375 0.859627,0.64472 0.06819,0.136381 0.350029,0.516893 0.429814,0.716356 0.357275,0.893189 0.623583,1.87075 0.859627,2.578882 0.191789,0.575367 -0.05007,1.110726 0.07164,1.719255 0.104085,0.520424 0.326826,1.526769 0.143271,2.077433 -0.0065,0.01951 -0.332405,0.416927 -0.358178,0.429813 -0.06407,0.03204 -0.155302,-0.03974 -0.214907,0 -0.43141,0.287607 0.503689,-0.0011 -0.07163,0.286543 -0.03021,0.0151 -0.04143,-0.08674 -0.07164,-0.07164 -0.27216,-0.03018 -0.159324,0.273366 -0.286542,0.358178 -0.04641,0.03094 -0.236269,0.02136 -0.286543,0.07164 -0.467816,0.467816 -0.756896,0.634585 -1.289441,0.501449"
       inkscape:connector-curvature="0" />
    <path
       style="fill:#ff0000;fill-opacity:1;stroke:#000000;stroke-width:0.07163561;stroke-opacity:0"
       d="m 18.039163,40.465696 c -0.605708,-0.142627 -0.916851,-0.43622 -1.158775,-1.093413 -0.238285,-0.647308 -0.765196,-1.050667 -1.246695,-0.954367 -0.157428,0.03149 -0.213957,5.01e-4 -0.312629,-0.171441 -0.06625,-0.115433 -0.194477,-0.244403 -0.284951,-0.286601 -0.09047,-0.0422 -0.249703,-0.215945 -0.353842,-0.386104 -0.112291,-0.18348 -0.369991,-0.432057 -0.633252,-0.610834 -0.24468,-0.166159 -0.545506,-0.451006 -0.670284,-0.634679 -0.124506,-0.183274 -0.424626,-0.535148 -0.666934,-0.781941 -0.370706,-0.377569 -0.440559,-0.488572 -0.440559,-0.700089 0,-0.138254 -0.05964,-0.335746 -0.132526,-0.438869 -0.192098,-0.271779 -0.218552,-0.3207 -0.318107,-0.588279 -0.04948,-0.132985 -0.230075,-0.432124 -0.401326,-0.664752 -0.171252,-0.232629 -0.392854,-0.6396 -0.49245,-0.904379 -0.0996,-0.26478 -0.280685,-0.658013 -0.40242,-0.873853 l -0.221337,-0.392435 0.120576,-0.754273 c 0.09677,-0.605324 0.11729,-1.17148 0.103933,-2.866986 -0.01542,-1.956916 -0.0051,-2.161519 0.139988,-2.774582 0.08615,-0.36403 0.15663,-0.867649 0.15663,-1.119155 0,-0.305108 0.04881,-0.567634 0.146682,-0.788883 0.08067,-0.182379 0.209473,-0.661128 0.286218,-1.063887 0.162907,-0.85494 0.40975,-1.410669 1.122381,-2.526867 0.276699,-0.433396 0.688492,-1.158706 0.915095,-1.611801 0.624797,-1.249285 0.937643,-1.758093 1.571145,-2.555286 0.318437,-0.400718 0.798905,-1.1295 1.067707,-1.619516 0.296414,-0.540353 0.782237,-1.263459 1.234615,-1.837622 0.410236,-0.520677 0.923279,-1.262751 1.140095,-1.6490533 0.4893,-0.8717891 1.102189,-1.7356711 1.511886,-2.1310418 0.191554,-0.1848557 0.440502,-0.5576204 0.645856,-0.9670807 0.212946,-0.4245982 0.483804,-0.8265266 0.746711,-1.1080543 0.35467,-0.3797917 0.786764,-1.0920381 0.786764,-1.2968733 0,-0.1068778 0.555273,-0.5178746 0.699669,-0.5178746 0.365393,0 0.588761,0.5712202 0.589372,1.5072062 6.45e-4,1.0267813 0.301806,1.8343535 0.79198,2.123907 0.118161,0.069799 0.226997,0.2219599 0.27618,0.3861198 0.05527,0.184478 0.161547,0.3206002 0.333069,0.4266065 0.145871,0.090153 0.322936,0.2957805 0.420672,0.4885295 0.09283,0.1830666 0.317329,0.4679678 0.498896,0.6331138 0.251944,0.229159 0.330121,0.3510223 0.330121,0.5145999 0,0.1805673 0.03104,0.2179053 0.196998,0.2370013 0.146034,0.0168 0.20336,0.06772 0.22159,0.196831 0.01353,0.09579 0.146966,0.321442 0.296534,0.501449 0.149567,0.180008 0.295243,0.407876 0.323724,0.506375 0.02848,0.0985 0.124848,0.259679 0.214149,0.358178 0.0893,0.0985 0.183496,0.298102 0.209324,0.443561 0.0323,0.181925 0.157616,0.37928 0.40149,0.632305 0.272175,0.282387 0.388088,0.476476 0.498985,0.835517 0.07945,0.257226 0.144452,0.515018 0.144452,0.57287 0,0.232569 0.376225,1.205398 0.58162,1.503929 0.120373,0.174957 0.339444,0.405453 0.486824,0.512214 0.242608,0.175745 0.261665,0.213002 0.201411,0.393767 -0.105583,0.31675 -7.96e-4,0.649926 0.344095,1.094079 0.252908,0.325696 0.320212,0.4706 0.320212,0.689411 0,0.407986 0.200605,1.308304 0.405618,1.820416 0.09866,0.246444 0.357319,0.748131 0.574802,1.114861 0.455817,0.768616 0.491514,0.850439 0.666127,1.526882 0.07126,0.276058 0.259393,0.748437 0.418073,1.049732 0.15868,0.301293 0.3096,0.70403 0.335378,0.89497 0.07995,0.592176 0.248336,1.103852 0.644676,1.958964 0.496947,1.072176 0.533804,1.306394 0.289535,1.839947 -0.12894,0.281642 -0.183425,0.512741 -0.173509,0.735932 0.0087,0.195718 -0.03537,0.421344 -0.1106,0.56624 -0.06878,0.132481 -0.142675,0.411594 -0.16421,0.620248 -0.0321,0.310993 -0.07633,0.40686 -0.245415,0.531867 -0.159133,0.117653 -0.19659,0.191019 -0.16394,0.321108 0.02328,0.09274 0.0075,0.190151 -0.03512,0.216475 -0.04259,0.02632 -0.07744,0.107798 -0.07744,0.181054 0,0.07326 -0.142292,0.299894 -0.316205,0.503638 -0.173912,0.203744 -0.337324,0.454589 -0.363136,0.557433 -0.02581,0.102845 -0.354199,0.50712 -0.729749,0.898388 -0.849189,0.884735 -1.367095,1.579437 -2.081287,2.791777 -0.731186,1.241185 -1.30942,1.848405 -1.922752,2.019133 -0.233846,0.06509 -0.799203,0.245029 -1.256351,0.399855 -0.671619,0.227463 -0.933067,0.281502 -1.361945,0.281502 -0.371321,0 -0.702665,0.05483 -1.102984,0.182512 -0.314719,0.100382 -0.830105,0.215054 -1.145301,0.254826 -0.784987,0.09905 -1.096977,0.171955 -1.970296,0.460409 -1.287918,0.425393 -1.886111,0.519216 -2.455531,0.385133 z m 3.660616,-3.022256 c 0.01342,-0.07017 0.128323,-0.241018 0.255346,-0.379672 0.215398,-0.23512 0.24517,-0.24642 0.442044,-0.167794 0.116101,0.04637 0.533452,0.08827 0.927448,0.09313 0.633897,0.0078 0.742066,-0.0095 0.939711,-0.150496 0.122846,-0.08763 0.263759,-0.256866 0.313142,-0.376087 0.04938,-0.119221 0.113637,-0.216765 0.142786,-0.216765 0.02915,0 0.205287,-0.141817 0.391416,-0.315148 0.29528,-0.274978 0.335669,-0.347023 0.31687,-0.565226 -0.01769,-0.205266 0.02762,-0.304502 0.252841,-0.553792 0.150912,-0.167042 0.357802,-0.484879 0.459756,-0.706306 0.233206,-0.506486 0.283839,-1.355367 0.15749,-2.640339 -0.07115,-0.723568 -0.07026,-1.028506 0.0046,-1.573681 0.07553,-0.550168 0.07577,-0.738659 0.0013,-1.011271 -0.09153,-0.334851 -0.124345,-0.787045 -0.164673,-2.269227 -0.01948,-0.715995 -0.0067,-0.810783 0.139763,-1.037436 0.171631,-0.265581 0.2169,-0.77672 0.09677,-1.092676 -0.03544,-0.0932 -0.215356,-0.34513 -0.399824,-0.55984 -0.469816,-0.546837 -0.515217,-0.657281 -0.648942,-1.578633 -0.136427,-0.939967 -0.27811,-1.390577 -0.592211,-1.883472 -0.122522,-0.192265 -0.244021,-0.491303 -0.269998,-0.664528 -0.02598,-0.173225 -0.123996,-0.418868 -0.217821,-0.545872 -0.09382,-0.127005 -0.227039,-0.325595 -0.296032,-0.441312 -0.06899,-0.115717 -0.199387,-0.287834 -0.289762,-0.382482 -0.09037,-0.09465 -0.215108,-0.299021 -0.277182,-0.454161 -0.06208,-0.15514 -0.167051,-0.321502 -0.23328,-0.369692 -0.06623,-0.04819 -0.163002,-0.192386 -0.215049,-0.320434 -0.05205,-0.128049 -0.119774,-0.232816 -0.150501,-0.232816 -0.07997,0 -0.323761,-0.431835 -0.385391,-0.682667 -0.02875,-0.117028 -0.184287,-0.348235 -0.345629,-0.513793 -0.273164,-0.280302 -0.293787,-0.329886 -0.299715,-0.720605 -0.0052,-0.341614 -0.04092,-0.460642 -0.19229,-0.640492 -0.234988,-0.279196 -0.338989,-1.082062 -0.172986,-1.335414 0.05633,-0.08597 0.138241,-0.323355 0.182028,-0.527526 0.06946,-0.323862 0.06154,-0.412066 -0.06201,-0.691389 -0.164017,-0.370787 -0.35408,-0.495229 -0.756377,-0.495229 -0.238636,0 -0.321769,0.04087 -0.487906,0.239878 -0.114531,0.13719 -0.20026,0.325802 -0.20026,0.440592 0,0.134345 -0.07398,0.266813 -0.223722,0.40061 -0.282657,0.252554 -0.321151,0.6818 -0.08927,0.995437 l 0.149993,0.202877 -0.268812,1.07821 c -0.271913,1.090645 -0.36546,1.327015 -0.867406,2.191707 -0.153078,0.263705 -0.372993,0.769161 -0.4887,1.123236 -0.252976,0.77414 -0.491239,1.261778 -0.896986,1.83581 -0.481707,0.681497 -0.73374,1.177087 -0.892544,1.755073 -0.124232,0.452157 -0.192223,0.574437 -0.429201,0.77191 -0.307922,0.256589 -0.398802,0.475552 -0.466634,1.124278 -0.02943,0.281485 -0.153438,0.664842 -0.362799,1.121581 -0.414492,0.904247 -0.48794,1.245229 -0.430962,2.000737 0.04331,0.574248 0.0303,0.660501 -0.20613,1.367176 -0.346122,1.034521 -0.388292,1.637143 -0.194149,2.774457 0.702536,4.115542 3.356122,6.789204 6.669414,6.719873 0.520342,-0.01089 0.611617,-0.03113 0.63249,-0.140299 l -1e-6,0 z"
       id="path5100"
       inkscape:connector-curvature="0" />
    <path
       style="fill:#ff6600;fill-opacity:1;stroke:#000000;stroke-width:0.07163561;stroke-opacity:0"
       d="m 19.851767,36.384145 c -2.12185,-0.555478 -3.595422,-2.301179 -4.279052,-5.069278 -0.139728,-0.565777 -0.190137,-0.959401 -0.194185,-1.516316 -0.005,-0.684006 0.01679,-0.81385 0.240109,-1.432713 0.228431,-0.633028 0.245935,-0.74305 0.250725,-1.575983 l 0.0051,-0.895445 0.347316,-0.772781 c 0.240643,-0.535434 0.366677,-0.926984 0.410357,-1.274855 0.05441,-0.433325 0.09304,-0.52731 0.28207,-0.686374 0.276381,-0.232559 0.394194,-0.461378 0.595631,-1.15685 0.121507,-0.419507 0.296045,-0.758336 0.713701,-1.385502 0.591357,-0.888002 0.909213,-1.526303 1.046787,-2.102106 0.04707,-0.196998 0.283237,-0.712774 0.52482,-1.14617 0.241582,-0.433395 0.524102,-1.051389 0.627822,-1.373319 l 0.188581,-0.585327 0.08519,0.318528 c 0.0507,0.189575 0.201111,0.444284 0.37152,0.629156 0.178889,0.194072 0.286327,0.379588 0.286327,0.49441 0,0.210671 0.434905,1.081206 0.659691,1.320479 0.08303,0.08838 0.20764,0.178681 0.276915,0.200668 0.06927,0.02199 0.160047,0.137778 0.201718,0.257315 0.04167,0.119537 0.157191,0.314109 0.256712,0.432383 0.09952,0.118274 0.180947,0.258059 0.180947,0.310633 0,0.05257 0.09827,0.17828 0.218385,0.279347 0.153423,0.129098 0.249798,0.304364 0.32399,0.589205 0.05808,0.222995 0.216118,0.586415 0.35119,0.807599 0.262418,0.429716 0.325681,0.651032 0.498503,1.743917 0.130238,0.823589 0.283707,1.17962 0.726844,1.686192 0.310602,0.355065 0.318652,0.374736 0.15337,0.374736 -0.159647,0 -0.178064,0.03493 -0.217187,0.411904 -0.02351,0.226548 -0.01054,0.554625 0.02883,0.729059 0.03937,0.174435 0.06755,0.593503 0.06263,0.931263 -0.01256,0.862139 0.05335,1.766742 0.150093,2.059865 0.06192,0.187605 0.0614,0.419058 -0.0021,0.94166 -0.06213,0.511361 -0.06407,0.887293 -0.0074,1.43477 0.180686,1.745046 0.08075,2.381547 -0.448736,2.857954 -0.272226,0.244937 -0.42585,0.495767 -0.504478,0.82369 -0.03015,0.125736 -0.09455,0.196998 -0.17804,0.196998 -0.167232,0 -0.343589,0.195379 -0.448812,0.497221 l -0.08269,0.237192 -0.414976,-0.03763 c -0.293432,-0.02661 -0.484957,-0.09101 -0.65391,-0.219874 -0.268822,-0.20504 -0.739435,-0.333946 -1.02199,-0.279932 -0.103498,0.01978 -0.283305,0.131101 -0.399573,0.247368 -0.17038,0.170378 -0.211397,0.272873 -0.211397,0.528244 0,0.310524 -0.0046,0.316771 -0.232815,0.312906 -0.128049,-0.0022 -0.473922,-0.06706 -0.768606,-0.144209 z m 0.775591,-2.186755 c 0.03684,0.02277 0.207494,-0.02058 0.379225,-0.09633 0.17173,-0.07575 0.527859,-0.19174 0.791398,-0.257749 0.316354,-0.07924 0.559753,-0.193106 0.716356,-0.335125 0.130457,-0.118308 0.357162,-0.292007 0.503787,-0.385997 0.517648,-0.331822 0.627003,-0.875236 0.454953,-2.260791 -0.06195,-0.498924 -0.112642,-1.165488 -0.112642,-1.481256 0,-1.279422 -0.273213,-2.353502 -0.933198,-3.668676 -0.605668,-1.206935 -1.310005,-1.788978 -2.160606,-1.785461 -0.984247,0.0041 -1.623731,0.72803 -1.784213,2.019912 -0.04053,0.326268 -0.156678,1.140381 -0.258106,1.80914 -0.21005,1.384944 -0.198717,2.117589 0.04757,3.075651 0.303343,1.179999 0.823051,2.128943 1.64164,2.997505 0.354312,0.375942 0.478571,0.467433 0.552038,0.40646 0.05215,-0.04328 0.124953,-0.06005 0.161796,-0.03728 z"
       id="path5102"
       inkscape:connector-curvature="0" />
    <path
       style="fill:#ffcc00;fill-opacity:1;stroke:#000000;stroke-width:0.07163561;stroke-opacity:0"
       d="m 20.303141,32.642344 c -1.009892,-1.361389 -1.340007,-2.826771 -1.03601,-4.598866 0.08111,-0.472795 0.180177,-1.185201 0.220157,-1.583124 0.08277,-0.823755 0.106686,-0.910988 0.334371,-1.219328 0.211861,-0.28691 0.378439,-0.326557 0.723311,-0.172153 0.38729,0.173395 0.63562,0.494142 1.033865,1.335355 0.517761,1.093667 0.634575,1.58743 0.709814,3.000327 0.03567,0.669793 0.09735,1.427339 0.137064,1.683437 0.12878,0.830367 0.108872,0.960255 -0.167369,1.091986 -0.1393,0.06643 -0.284078,0.210424 -0.340269,0.338434 -0.06068,0.138226 -0.165794,0.237629 -0.276895,0.26184 -0.0985,0.02146 -0.365746,0.09912 -0.593882,0.172559 l -0.414793,0.133533 -0.329364,-0.444 z"
       id="path5104"
       inkscape:connector-curvature="0" />
  </g>
</svg>
