<?xml version="1.0" encoding="UTF-8" standalone="no"?>
<!-- Created with Inkscape (http://www.inkscape.org/) -->

<svg
   xmlns:dc="http://purl.org/dc/elements/1.1/"
   xmlns:cc="http://creativecommons.org/ns#"
   xmlns:rdf="http://www.w3.org/1999/02/22-rdf-syntax-ns#"
   xmlns:svg="http://www.w3.org/2000/svg"
   xmlns="http://www.w3.org/2000/svg"
   xmlns:sodipodi="http://sodipodi.sourceforge.net/DTD/sodipodi-0.dtd"
   xmlns:inkscape="http://www.inkscape.org/namespaces/inkscape"
   width="48"
   height="48"
   id="svg4865"
   version="1.1"
   inkscape:version="0.91 r13725"
   viewBox="0 0 48 48"
   sodipodi:docname="fire2.svg">
  <defs
     id="defs4867">
    <inkscape:path-effect
       effect="spiro"
       id="path-effect5086"
       is_visible="true" />
    <inkscape:path-effect
       effect="spiro"
       id="path-effect5078"
       is_visible="true" />
    <inkscape:path-effect
       effect="spiro"
       id="path-effect5054"
       is_visible="true" />
  </defs>
  <sodipodi:namedview
     id="base"
     pagecolor="#ffffff"
     bordercolor="#666666"
     borderopacity="1.0"
     inkscape:pageopacity="0.0"
     inkscape:pageshadow="2"
     inkscape:zoom="9.8708837"
     inkscape:cx="19.75"
     inkscape:cy="22.642857"
     inkscape:current-layer="layer1"
     showgrid="true"
     inkscape:grid-bbox="true"
     inkscape:document-units="px"
     inkscape:window-width="1436"
     inkscape:window-height="856"
     inkscape:window-x="4"
     inkscape:window-y="0"
     inkscape:window-maximized="1" />
  <metadata
     id="metadata4870">
    <rdf:RDF>
      <cc:Work
         rdf:about="">
        <dc:format>image/svg+xml</dc:format>
        <dc:type
           rdf:resource="http://purl.org/dc/dcmitype/StillImage" />
        <dc:title></dc:title>
      </cc:Work>
    </rdf:RDF>
  </metadata>
  <g
     id="layer1"
     inkscape:label="Layer 1"
     inkscape:groupmode="layer">
    <path
       style="fill:none;fill-rule:evenodd;stroke:#000000;stroke-width:1.20134807px;stroke-linecap:butt;stroke-linejoin:miter;stroke-opacity:1"
       d="m 25.200914,0.88954159 c -0.05122,-0.0469561 -0.120355,-0.0738546 -0.189837,-0.0738546 -0.06948,0 -0.138623,0.0268985 -0.189838,0.0738546 -0.0451,0.0413517 -0.0754,0.0961303 -0.102229,0.15112681 -0.02682,0.054996 -0.05127,0.1117504 -0.08761,0.1609801 -0.05668,0.07679 -0.138905,0.130656 -0.223088,0.1756345 -0.08418,0.044978 -0.172466,0.082969 -0.251506,0.1364724 -0.143855,0.097377 -0.250008,0.2414845 -0.335036,0.3929669 -0.08503,0.1514825 -0.151651,0.3126298 -0.234477,0.4653275 -0.164062,0.3024665 -0.39197,0.5701072 -0.664431,0.7802675 -0.33898,0.2242637 -0.631602,0.5182645 -0.85427,0.8582942 -0.233798,0.3570264 -0.391681,0.7641412 -0.664431,1.0923745 -0.158001,0.1901424 -0.352391,0.3499378 -0.569513,0.4681605 -0.601087,0.5657894 -1.142871,1.1945426 -1.613619,1.872642 -0.252946,0.3643623 -0.48572,0.7432784 -0.75935,1.092375 -0.571669,0.7293335 -1.309394,1.3132689 -1.898375,2.0286945 -0.678599,0.824283 -1.151007,1.812403 -1.898376,2.574884 -0.184133,0.187856 -0.383408,0.360285 -0.569513,0.546187 -0.986297,0.985224 -1.5604,2.300401 -2.372969,3.433177 -0.380261,0.530109 -0.813197,1.020584 -1.198264,1.547212 -0.385067,0.526627 -0.7257462,1.098523 -0.8899496,1.729911 -0.1225121,0.471078 -0.1479495,0.97643 -0.3796745,1.404481 -0.098086,0.181188 -0.2324391,0.346908 -0.2847566,0.546189 -0.059712,0.227449 -0.00474,0.467131 0,0.70224 0.00916,0.453978 -0.1691094,0.887358 -0.2847565,1.326455 -0.2563793,0.973438 -0.2069582,1.997894 -0.1523566,3.003046 0.054602,1.005152 0.1109785,2.028244 -0.1323996,3.005014 -0.041657,0.167186 -0.092035,0.332619 -0.1188623,0.502815 -0.026827,0.170196 -0.029248,0.347651 0.023943,0.511532 0.043846,0.135089 0.1236121,0.255646 0.2107278,0.367817 0.087116,0.112172 0.1825671,0.217968 0.263867,0.334424 0.2836737,0.40634 0.3806879,0.920163 0.6644311,1.326454 0.1578712,0.226055 0.3675082,0.409987 0.5531597,0.613845 0.1856518,0.203857 0.3530298,0.440259 0.3960278,0.712611 0.0086,0.05468 0.01213,0.110211 0.0239,0.164307 0.01177,0.0541 0.03272,0.107823 0.07102,0.147799 0.02629,0.02744 0.05965,0.04724 0.09439,0.06266 0.03474,0.01543 0.07111,0.02678 0.106888,0.0396 0.03578,0.01282 0.0713,0.02728 0.102988,0.04827 0.03169,0.02099 0.05957,0.04901 0.07541,0.08355 0.0165,0.03599 0.01908,0.07693 0.01601,0.116402 -0.0031,0.03948 -0.0115,0.07834 -0.01601,0.117678 -0.01626,0.141677 0.01931,0.286436 0.08574,0.412626 0.06643,0.126191 0.162525,0.234898 0.26947,0.329236 0.213889,0.188674 0.471156,0.322352 0.688898,0.506566 0.385474,0.32612 0.633468,0.798571 1.044107,1.092374 0.232447,0.166311 0.504909,0.266252 0.754328,0.405826 0.124709,0.06979 0.244541,0.150211 0.346256,0.250594 0.101715,0.100383 0.185046,0.221716 0.228278,0.357928 0.01285,0.04048 0.02211,0.08204 0.03555,0.122318 0.01344,0.04028 0.03142,0.07979 0.05937,0.111762 0.02789,0.03191 0.06477,0.05511 0.104031,0.07107 0.03926,0.01597 0.08099,0.02501 0.122833,0.03174 0.08369,0.01345 0.170467,0.01839 0.24773,0.05325 0.09717,0.04384 0.168728,0.1308 0.220468,0.224004 0.05174,0.0932 0.08698,0.194584 0.133883,0.290312 0.04691,0.09573 0.10813,0.188392 0.197457,0.246571 0.04466,0.02909 0.0959,0.04884 0.148996,0.05349 0.0531,0.0047 0.108014,-0.0063 0.153465,-0.03411 0.03497,-0.02142 0.06333,-0.05188 0.09492,-0.07803 0.06464,-0.0535 0.143534,-0.08898 0.225882,-0.105091 0.08235,-0.01611 0.168029,-0.01311 0.24985,0.0055 0.163643,0.03721 0.308796,0.135548 0.424178,0.25741 0.230763,0.243724 0.346411,0.571646 0.523872,0.856533 0.350169,0.562145 0.944038,0.946941 1.581311,1.127242 0.637273,0.1803 1.316193,0.169717 1.970007,0.06411 1.307627,-0.211219 2.538194,-0.791424 3.852347,-0.957269 0.473881,-0.0598 0.954886,-0.06508 1.423782,-0.156054 0.574357,-0.111433 1.124826,-0.350338 1.708538,-0.390133 0.315778,-0.02153 0.633084,0.01608 0.949187,0 0.750996,-0.03821 1.451022,-0.374519 2.183132,-0.546187 0.347422,-0.08146 0.703967,-0.126174 1.044107,-0.234081 0.725892,-0.230285 1.335545,-0.736126 1.839355,-1.3072 0.50381,-0.571074 0.918812,-1.213934 1.387884,-1.813869 0.671698,-0.859089 1.452772,-1.627971 2.27805,-2.340803 0.309991,-0.267753 0.626512,-0.527946 0.949188,-0.780268 0.0128,-0.179033 0.07262,-0.354498 0.17186,-0.504058 0.09924,-0.14956 0.237664,-0.272871 0.397653,-0.354236 0.07598,-0.03864 0.156909,-0.06813 0.228441,-0.114496 0.03576,-0.02318 0.06908,-0.05063 0.09594,-0.08373 0.02686,-0.0331 0.04711,-0.07205 0.05529,-0.113881 0.01006,-0.05143 0.0017,-0.10441 -0.005,-0.156378 -0.0067,-0.05197 -0.01157,-0.106025 0.005,-0.155728 0.01323,-0.03963 0.03951,-0.07399 0.07074,-0.101747 0.03123,-0.02776 0.06738,-0.04938 0.104137,-0.06925 0.07351,-0.03973 0.15322,-0.07537 0.2048,-0.141112 0.0346,-0.04411 0.05391,-0.09999 0.05391,-0.156053 0,-0.05606 -0.01931,-0.111945 -0.05391,-0.156053 0.10453,-0.05016 0.195718,-0.127806 0.261895,-0.223005 0.06618,-0.0952 0.107186,-0.207728 0.11778,-0.323184 0.01429,-0.155691 -0.02567,-0.313937 0,-0.468159 0.03035,-0.182313 0.147585,-0.335798 0.245372,-0.492632 0.04889,-0.07842 0.09396,-0.160138 0.121368,-0.248391 0.02741,-0.08825 0.03643,-0.183951 0.01293,-0.273325 -0.01393,-0.05298 -0.03877,-0.102324 -0.05963,-0.152984 -0.02086,-0.05066 -0.03803,-0.104408 -0.03529,-0.159124 0.0031,-0.06209 0.03176,-0.120437 0.06828,-0.170754 0.03652,-0.05032 0.08102,-0.09421 0.121556,-0.141352 0.126692,-0.147361 0.213936,-0.326845 0.261336,-0.515311 0.0474,-0.188466 0.05562,-0.385757 0.03414,-0.5789 -0.04297,-0.386287 -0.202172,-0.750483 -0.390393,-1.090538 -0.340305,-0.614822 -0.787809,-1.188706 -0.949188,-1.872643 -0.07322,-0.310301 -0.08488,-0.63527 -0.189839,-0.93632 -0.09418,-0.270131 -0.259289,-0.508892 -0.42355,-0.743113 -0.16426,-0.23422 -0.331456,-0.47109 -0.430718,-0.739396 -0.08418,-0.227539 -0.116852,-0.470867 -0.189837,-0.70224 -0.165684,-0.525243 -0.527926,-0.960826 -0.85427,-1.404482 -0.548105,-0.745134 -1.024593,-1.578951 -1.139025,-2.496856 -0.02517,-0.201926 -0.03253,-0.406056 -0.06624,-0.606734 -0.03371,-0.200677 -0.09594,-0.40124 -0.218516,-0.563667 -0.147358,-0.195265 -0.370218,-0.321054 -0.526826,-0.508982 -0.0783,-0.09396 -0.139917,-0.205656 -0.155157,-0.327017 -0.0076,-0.06068 -0.0034,-0.123133 0.01518,-0.181403 0.01857,-0.05827 0.05171,-0.112218 0.09729,-0.152999 0.03055,-0.02733 0.06634,-0.04865 0.09493,-0.07803 0.03144,-0.03232 0.05309,-0.07371 0.06349,-0.117588 0.0104,-0.04387 0.0097,-0.09012 -1.91e-4,-0.134104 -0.0198,-0.08798 -0.07568,-0.16494 -0.144916,-0.222718 -0.138471,-0.115554 -0.322112,-0.156815 -0.487895,-0.22783 -0.222588,-0.09535 -0.418077,-0.248231 -0.578215,-0.42987 -0.160137,-0.181639 -0.28592,-0.39165 -0.387393,-0.611513 -0.202946,-0.439728 -0.309472,-0.916539 -0.458174,-1.377446 -0.08236,-0.255282 -0.178581,-0.507721 -0.314973,-0.738695 -0.136393,-0.230975 -0.314902,-0.440792 -0.539295,-0.587761 -0.0694,-0.04545 -0.142822,-0.08472 -0.210487,-0.132715 -0.06767,-0.048 -0.130405,-0.106056 -0.169189,-0.179392 -0.02895,-0.05473 -0.04351,-0.116045 -0.05133,-0.177468 -0.0078,-0.06142 -0.0092,-0.123458 -0.01325,-0.185241 -0.0041,-0.06178 -0.01102,-0.123858 -0.02959,-0.182926 -0.01857,-0.05907 -0.04946,-0.1153828 -0.09567,-0.1566048 -0.05631,-0.050241 -0.130346,-0.074461 -0.200209,-0.1029941 -0.03493,-0.014266 -0.06949,-0.029997 -0.100841,-0.050992 -0.03135,-0.020994 -0.05955,-0.047538 -0.07862,-0.080095 -0.0206,-0.035168 -0.02982,-0.07601 -0.03309,-0.1166391 -0.0033,-0.040629 -8.59e-4,-0.081466 2.41e-4,-0.122211 0.0011,-0.040745 8.56e-4,-0.081875 -0.0076,-0.1217515 -0.0084,-0.039877 -0.02563,-0.078776 -0.05449,-0.1075593 -0.01944,-0.019385 -0.04351,-0.03359 -0.06862,-0.044676 -0.02511,-0.011085 -0.0514,-0.019214 -0.07746,-0.027852 -0.02606,-0.00864 -0.05206,-0.017863 -0.07619,-0.030958 -0.02413,-0.013095 -0.04645,-0.030284 -0.06248,-0.052568 -0.0162,-0.022518 -0.0254,-0.049419 -0.03069,-0.076648 -0.0053,-0.027229 -0.0069,-0.055018 -0.0091,-0.082663 -0.0023,-0.027645 -0.0053,-0.055429 -0.0133,-0.081982 -0.008,-0.026552 -0.02139,-0.052027 -0.04179,-0.070814 -0.0184,-0.016939 -0.04178,-0.027766 -0.06592,-0.034286 -0.02415,-0.00652 -0.04919,-0.00895 -0.07413,-0.010808 -0.02494,-0.00186 -0.04999,-0.00317 -0.07461,-0.00754 -0.02463,-0.00437 -0.04901,-0.011938 -0.07009,-0.025394 -0.02385,-0.015223 -0.04269,-0.037576 -0.05602,-0.062536 -0.01333,-0.024959 -0.02134,-0.052492 -0.02615,-0.080377 -0.0096,-0.055769 -0.0066,-0.1129345 -0.01275,-0.1691952 C 30.881372,8.2448079 30.811909,8.1162614 30.706784,8.0298485 30.601659,7.9434357 30.462099,7.9001647 30.326528,7.911949 30.281736,7.7319695 30.18099,7.566335 30.041773,7.4437885 29.868768,7.2914994 29.643355,7.2080865 29.47226,7.0536547 29.305759,6.9033701 29.202875,6.6974588 29.086447,6.50575 29.028232,6.4098955 28.965472,6.3161194 28.889084,6.2340108 28.812696,6.1519021 28.721914,6.0814588 28.61799,6.039307 c -0.07178,-0.029113 -0.148734,-0.044392 -0.219513,-0.075855 -0.03539,-0.015731 -0.06926,-0.03562 -0.09771,-0.061895 -0.02845,-0.026275 -0.05136,-0.059225 -0.06245,-0.09633 -0.01123,-0.037576 -0.01005,-0.077681 -0.0066,-0.1167463 0.0035,-0.039065 0.0092,-0.0782 0.0066,-0.1173339 -0.0043,-0.064685 -0.03135,-0.1266803 -0.07077,-0.1781408 C 28.128124,5.3415452 28.076776,5.3001099 28.02144,5.2663416 27.910768,5.1988051 27.784659,5.1611799 27.668802,5.102986 27.489386,5.0128671 27.336743,4.8737675 27.218663,4.7113831 27.100582,4.5489987 27.01618,4.3637249 26.95725,4.1717904 26.839391,3.7879212 26.822514,3.3816785 26.793017,2.9812083 c -0.0295,-0.4004701 -0.07468,-0.8084242 -0.242884,-1.1730548 -0.0841,-0.1823152 -0.199,-0.3518596 -0.347185,-0.4873323 -0.148185,-0.1354726 -0.330541,-0.2359546 -0.52744,-0.2752261 -0.08331,-0.016617 -0.168609,-0.022332 -0.251456,-0.041141 -0.08285,-0.018809 -0.165443,-0.052554 -0.223138,-0.11491281 -0.03744,-0.0404713 -0.06257,-0.0911454 -0.07895,-0.14379046 -0.01639,-0.0526451 -0.02443,-0.10749286 -0.03104,-0.16223066 -0.01323,-0.1094756 -0.02244,-0.22403875 -0.07984,-0.3181929 -0.03811,-0.0625114 -0.09655,-0.11240251 -0.164269,-0.14023511 -0.06772,-0.0278326 -0.14435,-0.03346026 -0.215406,-0.0158184"
       id="path5052"
       inkscape:path-effect="#path-effect5054"
       inkscape:original-d="m 25.200914,0.88954159 c -0.126553,0 -0.274371,-0.0577089 -0.379675,0 -0.117728,0.0645198 -0.09666,0.22457071 -0.189837,0.31210691 -0.133408,0.1253329 -0.354788,0.1778096 -0.474594,0.3121069 -0.234442,0.2628001 -0.360843,0.5812008 -0.569513,0.8582944 -0.203283,0.2699415 -0.442955,0.5201783 -0.664431,0.7802675 -0.284756,0.2860981 -0.611866,0.5469434 -0.85427,0.8582942 -0.26696,0.3428921 -0.394532,0.7510407 -0.664431,1.0923745 -0.146313,0.1850386 -0.415555,0.2873617 -0.569513,0.4681605 -2.244234,3.2284758 0.644655,-0.7481366 -1.613619,1.872642 -0.294889,0.3422253 -0.468008,0.7481023 -0.75935,1.092375 -0.587584,0.6943347 -1.321173,1.3169716 -1.898375,2.0286945 -0.676681,0.834386 -1.246712,1.741585 -1.898376,2.574884 -0.157741,0.201706 -0.407705,0.34667 -0.569513,0.546187 -0.878385,1.083097 -1.580844,2.308452 -2.372969,3.433177 -0.766402,1.088199 -1.59756,2.06712 -2.0882136,3.277123 -0.1844881,0.45497 -0.2056593,0.946731 -0.3796745,1.404481 -0.071869,0.189062 -0.2403511,0.351503 -0.2847566,0.546189 -0.052471,0.230071 0.04949,0.471721 0,0.70224 -0.3847414,1.792205 -0.2847565,-0.597459 -0.2847565,1.326455 0,2.002784 -0.2847562,4.024669 -0.2847562,6.00806 0,0.346492 -0.1930172,0.651465 -0.094919,1.014347 0.04248,0.157142 0.4167443,0.591278 0.4745948,0.702241 0.21022,0.403221 0.3829738,0.921561 0.6644311,1.326454 0.3047167,0.438356 0.6967745,0.859596 0.9491875,1.326456 0.05299,0.098 0.01909,0.224844 0.09492,0.312106 0.09196,0.105818 0.291922,0.125877 0.379675,0.234081 0.05266,0.06492 -0.03001,0.160057 0,0.23408 0.02075,0.05117 0.929751,1.135622 1.044107,1.248428 0.368745,0.363748 0.684906,0.72328 1.044107,1.092374 0.369729,0.379915 1.032077,0.607734 1.328862,1.014348 0.05148,0.07053 0.02417,0.175923 0.09492,0.23408 0.234233,0.192549 0.240361,-0.0365 0.474594,0.156054 0.315705,0.259522 0.449715,0.558562 0.854269,0.780267 0.03723,0.0204 0.05912,-0.100099 0.09492,-0.07803 0.479948,0.295901 0.906644,0.730943 1.423782,1.014347 2.010033,1.101548 5.311623,0.725433 7.403665,0.23408 0.374212,-0.08789 1.086387,-0.109828 1.423782,-0.156054 0.583598,-0.07996 1.14972,-0.288051 1.708538,-0.390133 0.308861,-0.05642 0.637097,0.04276 0.949187,0 0.784737,-0.107517 1.464122,-0.33126 2.183132,-0.546187 1.261835,-0.377192 -0.07331,0.225199 1.044107,-0.234081 1.437688,-0.590916 2.242217,-2.149401 3.227239,-3.121069 0.744537,-0.734445 1.708092,-1.559925 2.27805,-2.340803 0.217538,-0.29804 0.714066,-0.531767 0.949188,-0.780268 0.650291,-0.09232 0.339085,-0.593106 0.569513,-0.858294 0.104027,-0.119724 0.299632,-0.180511 0.379674,-0.312107 0.0566,-0.09305 -0.05661,-0.219055 0,-0.312106 0.08004,-0.131596 0.299633,-0.180512 0.379676,-0.312108 0.05661,-0.09305 -0.02745,-0.210549 0,-0.312106 -0.249961,-0.360074 0.317808,-0.342759 0.379675,-0.546189 0.04604,-0.151393 -0.04118,-0.315822 0,-0.468159 0.08614,-0.318639 0.336266,-0.657511 0.379675,-1.014348 0.01299,-0.1067 -0.111103,-0.205698 -0.09492,-0.312108 0.01756,-0.115416 0.177027,-0.196269 0.189837,-0.312106 0.04069,-0.367975 -0.04269,-1.8413 -0.09492,-2.184749 -0.105817,-0.695849 -0.713304,-1.226289 -0.949188,-1.872643 -0.1106,-0.303068 -0.07924,-0.633252 -0.189839,-0.93632 -0.191138,-0.523746 -0.634524,-0.966401 -0.854268,-1.482509 -0.09637,-0.226327 -0.08411,-0.478754 -0.189837,-0.70224 -0.815998,-1.724863 -0.160474,0.306497 -0.85427,-1.404482 -0.335509,-0.827403 -0.831375,-1.653854 -1.139025,-2.496856 -0.132818,-0.363937 -0.12695,-0.813664 -0.284757,-1.170401 -0.179495,-0.40577 -0.49085,-0.717758 -0.569513,-1.170401 -0.0064,-0.03641 0.105777,-0.04235 0.09493,-0.07803 -0.083,-0.272929 -0.403309,-0.456314 -0.569513,-0.70224 -0.527029,-0.779828 -0.914337,-1.627796 -1.423782,-2.418829 -0.284756,-0.442152 -0.535303,-0.900378 -0.854268,-1.326456 -0.0938,-0.125303 -0.299633,-0.180511 -0.379676,-0.312107 -0.517228,-0.8503613 0.743343,0.320571 -0.189837,-0.7022398 -0.09493,-0.104042 -0.302847,-0.120401 -0.379675,-0.2340804 -0.09347,-0.1382968 -0.0089,-0.3266574 -0.09492,-0.4681609 -0.05101,-0.083881 -0.221478,-0.078031 -0.284757,-0.1560532 -0.07236,-0.089229 -0.01342,-0.2283686 -0.09492,-0.3121076 -0.0625,-0.06422 -0.222252,-0.0138 -0.284755,-0.078032 -0.08149,-0.083739 -0.04647,-0.21254 -0.09492,-0.3121076 C 30.808539,8.2002848 30.47753,8.0671102 30.326528,7.911949 30.085349,7.8186181 30.169119,7.583367 30.041773,7.4437885 29.912985,7.3026312 29.601233,7.2303561 29.47226,7.0536547 29.237415,6.7319041 28.955188,6.3164961 28.61799,6.039307 28.447779,5.8993874 28.352107,6.0390787 28.238316,5.8052267 c -0.03525,-0.072446 0.04245,-0.164291 0,-0.2340802 C 28.124413,5.3838823 27.782705,5.2902502 27.668802,5.102986 27.372716,4.6161971 25.744348,1.0908657 25.675508,1.0455951 25.542461,0.95809878 25.285449,1.0111497 25.200914,0.88954159 24.934293,0.50598884 25.610713,0.26532757 25.011077,0.26532757 c -0.08965,0 -0.08289,-0.15605348 -0.379675,-0.15605348"
       inkscape:connector-curvature="0" />
    <path
       style="fill:none;fill-rule:evenodd;stroke:#000000;stroke-width:1.20134807px;stroke-linecap:butt;stroke-linejoin:miter;stroke-opacity:1"
       d="m 23.96697,37.796195 c -1.520172,0.195114 -3.09748,-0.08076 -4.461182,-0.780268 -2.193208,-1.125002 -3.749583,-3.309428 -4.366264,-5.695952 -0.231569,-0.89616 -0.336132,-1.868533 0,-2.730937 0.153263,-0.393223 0.395254,-0.75589 0.474594,-1.170401 0.05149,-0.269008 0.0314,-0.54601 0.0083,-0.818929 -0.02306,-0.272918 -0.04883,-0.548752 -0.0083,-0.819633 0.06537,-0.437276 0.297525,-0.829072 0.524318,-1.208609 0.226792,-0.379537 0.457615,-0.772478 0.519788,-1.21022 0.02364,-0.166411 0.0222,-0.335999 0.05283,-0.501265 0.01532,-0.08263 0.03879,-0.164223 0.07623,-0.239464 0.03744,-0.07524 0.08926,-0.14412 0.155697,-0.195592 0.0857,-0.0664 0.191291,-0.101134 0.284757,-0.156054 0.208065,-0.122257 0.344978,-0.338149 0.435791,-0.561734 0.09081,-0.223586 0.143174,-0.461011 0.22864,-0.686694 0.272396,-0.719292 0.855516,-1.266404 1.328863,-1.872641 0.33799,-0.432879 0.625323,-0.905277 0.854269,-1.404482 0.0427,-0.213604 0.10638,-0.423007 0.189838,-0.624214 0.295348,-0.712049 0.82517,-1.297104 1.233945,-1.950669 0.48459,-0.774792 0.801747,-1.662539 0.854268,-2.574883 0.01944,-0.337639 0.003,-0.676163 0,-1.014348 0.488535,-0.399324 0.775427,-1.026275 0.785118,-1.6571722 0.0097,-0.6308976 -0.25051,-1.2567423 -0.685687,-1.7136306 -0.435176,-0.4568882 -1.037545,-0.7449919 -1.66373,-0.8225677 -0.626185,-0.077576 -1.27284,0.051524 -1.832624,0.3426728 -0.559784,0.2911483 -1.032847,0.7410805 -1.369648,1.2746449 -0.3368,0.5335643 -0.538723,1.1492558 -0.600626,1.7771838 -0.123806,1.255856 0.318245,2.543545 1.130882,3.50901 0.812621,0.965457 1.992504,1.618947 3.244387,1.777851 0.625941,0.07945 1.268582,0.03641 1.874667,-0.139017 0.606086,-0.17543 1.17566,-0.484658 1.638144,-0.913871 0.462484,-0.429213 0.816191,-0.980621 0.983781,-1.588921 0.16759,-0.6083 0.143673,-1.274344 -0.104479,-1.854461 -0.248151,-0.580117 -0.728603,-1.067154 -1.323417,-1.277657 -0.297407,-0.105251 -0.620009,-0.141248 -0.932315,-0.0966 -0.312307,0.04465 -0.613687,0.170683 -0.859697,0.368188 l 0,0.07803 0,0.546187 c 0,0.252984 0.02026,0.507165 0.08788,0.750944 0.06762,0.243778 0.172828,0.479726 0.196872,0.731565 0.01012,0.106011 0.0047,0.212925 0.01155,0.319198 0.0069,0.106273 0.02709,0.214606 0.08337,0.305016 0.07182,0.115379 0.193149,0.188554 0.296497,0.276811 0.05167,0.04413 0.100019,0.09343 0.13416,0.152181 0.03414,0.05875 0.05333,0.127922 0.04394,0.195222 -0.0058,0.04186 -0.02234,0.08146 -0.04081,0.119476 -0.01847,0.03801 -0.03912,0.07509 -0.0541,0.114603 -0.03145,0.08291 -0.03679,0.174717 -0.02079,0.261941 0.016,0.08722 0.05281,0.16995 0.10212,0.243653 0.09863,0.147406 0.244113,0.256733 0.393263,0.352701 0.117061,0.07532 0.239798,0.145577 0.335714,0.246456 0.04796,0.05044 0.08873,0.108431 0.114566,0.173056 0.02584,0.06462 0.03629,0.136141 0.02431,0.204702 -0.0095,0.05428 -0.03258,0.105488 -0.04162,0.159838 -0.0045,0.02718 -0.0054,0.05526 7.26e-4,0.08211 0.0062,0.02685 0.01978,0.05246 0.0409,0.07015 0.01935,0.01621 0.04397,0.02507 0.06883,0.0294 0.02487,0.0043 0.05025,0.0044 0.07548,0.0049 0.02524,5.1e-4 0.05068,0.0015 0.07519,0.0075 0.02451,0.006 0.04829,0.01749 0.06525,0.03619 0.01369,0.0151 0.02236,0.03434 0.02652,0.05429 0.0042,0.01995 0.004,0.04062 0.0014,0.06083 -0.0052,0.04042 -0.01975,0.07903 -0.02788,0.118962 -0.0085,0.04156 -0.0099,0.0849 -7.2e-4,0.12631 0.0092,0.04141 0.02922,0.08084 0.05975,0.110278 0.03053,0.02944 0.07181,0.04833 0.114217,0.04892 0.0212,2.97e-4 0.04251,-0.0039 0.06182,-0.01267 0.01932,-0.0088 0.03661,-0.02206 0.04968,-0.03876 0.01361,-0.01738 0.02254,-0.03814 0.03685,-0.05495 0.0072,-0.0084 0.01572,-0.01581 0.02578,-0.02034 0.01007,-0.0045 0.02174,-0.006 0.03228,-0.0027 0.0093,0.0029 0.01733,0.0094 0.02256,0.01762 0.0052,0.0082 0.0077,0.01806 0.0076,0.0278 -1.35e-4,0.0097 -0.0028,0.01937 -0.0073,0.02804 -0.0044,0.0087 -0.01057,0.01641 -0.01762,0.02313 -0.0141,0.01344 -0.03158,0.02273 -0.04908,0.03128 -0.0175,0.0086 -0.03541,0.01663 -0.05109,0.02819 -0.03073,0.02266 -0.05112,0.0581 -0.05783,0.09569 -0.0067,0.03758 -1.83e-4,0.07701 0.0159,0.111632 0.01609,0.03462 0.04143,0.06455 0.07131,0.08831 0.02988,0.02376 0.06424,0.04152 0.100037,0.05479 0.0716,0.02654 0.148303,0.03525 0.223643,0.04767 0.07534,0.01242 0.151807,0.02943 0.21645,0.07007 0.06591,0.04144 0.115401,0.105194 0.151459,0.174191 0.03606,0.069 0.05974,0.143652 0.08348,0.217793 0.02374,0.07414 0.04793,0.148682 0.08489,0.217201 0.03696,0.06852 0.08779,0.131385 0.15476,0.171082 0.04714,0.02794 0.100396,0.04346 0.15121,0.06397 0.05081,0.02052 0.101335,0.04775 0.133547,0.09208 0.01994,0.02745 0.03177,0.06011 0.03857,0.09335 0.0068,0.03324 0.0088,0.06725 0.01061,0.101125 0.0018,0.03388 0.0035,0.06788 0.0097,0.101238 0.0062,0.03336 0.01711,0.06627 0.03604,0.09442 0.0307,0.04565 0.08007,0.07544 0.130753,0.09684 0.05068,0.0214 0.104167,0.03591 0.154003,0.05922 0.101203,0.04733 0.183399,0.129618 0.243373,0.223879 0.05997,0.09426 0.09902,0.200377 0.129191,0.30795 0.06034,0.215144 0.08837,0.443278 0.196948,0.638572 0.09782,0.17596 0.253479,0.311299 0.379676,0.468161 0.283211,0.352029 0.410948,0.803136 0.492262,1.24757 0.08131,0.444434 0.123856,0.898806 0.267088,1.327313 0.08488,0.253933 0.206086,0.498394 0.379675,0.70224 0.121218,0.142346 0.265749,0.262572 0.403551,0.388932 0.137802,0.12636 0.271161,0.261677 0.362517,0.424803 0.09136,0.163126 0.137549,0.358547 0.09145,0.539741 -0.02305,0.0906 -0.06913,0.175891 -0.135834,0.24139 -0.0667,0.0655 -0.15429,0.110476 -0.247094,0.121723 -0.03149,0.0038 -0.06343,0.0038 -0.09492,0 -0.01397,0.103409 -0.01397,0.208698 0,0.312107 0.01967,0.145603 0.06659,0.285878 0.108788,0.426612 0.0422,0.140735 0.08016,0.284759 0.08105,0.431682 10e-4,0.171441 -0.04829,0.338527 -0.08501,0.505994 -0.03672,0.167467 -0.06064,0.344587 -0.0099,0.508354 0.02503,0.08079 0.06726,0.154931 0.1058,0.230217 0.03854,0.07529 0.0741,0.153952 0.08404,0.237943 0.01091,0.09224 -0.0097,0.185167 -0.03448,0.274699 -0.02473,0.08953 -0.05387,0.178835 -0.06044,0.271489 -0.01253,0.176773 0.05763,0.347955 0.1302,0.509632 0.07257,0.161676 0.150396,0.327548 0.154555,0.504716 0.0038,0.15984 -0.05289,0.313898 -0.09492,0.468159 -0.144428,0.530115 -0.119309,1.091212 -0.05797,1.637214 0.06133,0.546003 0.15789,1.090496 0.152895,1.63991 -0.0032,0.348496 -0.04816,0.699486 -0.16788,1.026788 -0.119719,0.327302 -0.317279,0.63073 -0.591469,0.845855 -0.147523,0.115744 -0.316642,0.206157 -0.443941,0.343833 -0.06365,0.06884 -0.116119,0.149701 -0.142049,0.239798 -0.02593,0.0901 -0.02374,0.189973 0.01648,0.274662 0.01967,0.04142 0.04827,0.07957 0.05711,0.124559 0.0044,0.02249 0.0035,0.04655 -0.0061,0.06739 -0.0048,0.01042 -0.01168,0.01991 -0.02042,0.02733 -0.0087,0.0074 -0.01934,0.01271 -0.03061,0.01481 -0.0174,0.0032 -0.03552,-0.0013 -0.05133,-0.0092 -0.01581,-0.0079 -0.02969,-0.01919 -0.04346,-0.0303 -0.01377,-0.01111 -0.02772,-0.02228 -0.04361,-0.03007 -0.01589,-0.0078 -0.03411,-0.01202 -0.05144,-0.0084 -0.01461,0.003 -0.02783,0.01152 -0.03762,0.02277 -0.0098,0.01126 -0.01627,0.02517 -0.01986,0.03965 -0.0072,0.02897 -0.003,0.05942 0.0021,0.08884 0.005,0.02941 0.01094,0.05929 0.0071,0.08888 -0.0019,0.0148 -0.0063,0.02939 -0.0141,0.04214 -0.0077,0.01275 -0.01894,0.0236 -0.0325,0.02982 -0.01482,0.0068 -0.03174,0.0078 -0.04794,0.0059 -0.01619,-0.0019 -0.03191,-0.0066 -0.04765,-0.01085 -0.01574,-0.0043 -0.03176,-0.0081 -0.04807,-0.0083 -0.0163,-2.07e-4 -0.0331,0.0035 -0.04619,0.01326 -0.0129,0.0096 -0.02126,0.0242 -0.02656,0.03936 -0.0053,0.01516 -0.0079,0.03112 -0.01154,0.04677 -0.0036,0.01565 -0.0085,0.03135 -0.0176,0.04456 -0.0046,0.0066 -0.01021,0.01252 -0.01687,0.01702 -0.0067,0.0045 -0.01436,0.0075 -0.02235,0.0084 -0.01065,0.0011 -0.02146,-0.0018 -0.03081,-0.007 -0.0094,-0.0052 -0.01735,-0.01257 -0.02436,-0.02065 -0.01403,-0.01616 -0.02448,-0.03534 -0.03975,-0.05033 -0.01809,-0.01775 -0.04242,-0.02871 -0.06757,-0.0318 -0.02515,-0.0031 -0.05102,0.0015 -0.07415,0.01188 -0.04625,0.02074 -0.08001,0.06342 -0.09933,0.110279 -0.01931,0.04686 -0.02566,0.09797 -0.02929,0.148525 -0.0036,0.05055 -0.0048,0.101498 -0.01442,0.151254 -0.02598,0.133958 -0.113929,0.251411 -0.226367,0.328726 -0.112437,0.07731 -0.247675,0.116927 -0.383458,0.130447 -0.271567,0.02704 -0.542054,-0.04563 -0.813957,-0.06904 -0.222899,-0.01919 -0.452614,-0.006 -0.664432,-0.07803 -0.193773,-0.06588 -0.356632,-0.197749 -0.52058,-0.320259 -0.163949,-0.122509 -0.340816,-0.24112 -0.543009,-0.272831 -0.101097,-0.01586 -0.206995,-0.0086 -0.301736,0.03005 -0.09474,0.03868 -0.177453,0.110207 -0.221039,0.202793 -0.02179,0.04629 -0.03369,0.09736 -0.03335,0.148528 3.39e-4,0.05116 0.01302,0.102351 0.0377,0.147173 0.02468,0.04482 0.06141,0.08311 0.105791,0.108578 0.04438,0.02546 0.09634,0.03787 0.14736,0.034 0.01592,-0.0012 0.0317,-0.004 0.04763,-0.005 0.01593,-0.0011 0.03227,-3.97e-4 0.04729,0.005 0.02366,0.0086 0.04244,0.02911 0.04962,0.05323 0.0072,0.02412 0.0029,0.05122 -0.01075,0.07238 -0.01361,0.02116 -0.03613,0.0362 -0.06072,0.04151 -0.0246,0.0053 -0.05099,10e-4 -0.07307,-0.01106 -0.01692,-0.0093 -0.03113,-0.02271 -0.04458,-0.03653 -0.01345,-0.01382 -0.02642,-0.02825 -0.04167,-0.04006 -0.01525,-0.01181 -0.03317,-0.02101 -0.05239,-0.02256 -0.0096,-7.74e-4 -0.01943,4.1e-4 -0.02841,0.0039 -0.009,0.0035 -0.01708,0.0094 -0.02279,0.01719 -0.005,0.0068 -0.0081,0.01486 -0.0092,0.02317 -0.0012,0.0083 -4.89e-4,0.01686 0.0017,0.02498 0.0043,0.01625 0.01422,0.03054 0.02601,0.04251 0.02358,0.02394 0.05482,0.03971 0.0765,0.06539 0.02093,0.02479 0.03144,0.05811 0.0285,0.09042 -0.0029,0.03231 -0.01928,0.06319 -0.04434,0.0838 -0.02506,0.0206 -0.05852,0.03066 -0.09079,0.02729 -0.03227,-0.0034 -0.06293,-0.02012 -0.0832,-0.04545"
       id="path5076"
       inkscape:path-effect="#path-effect5078"
       inkscape:original-d="m 23.96697,37.796195 c -1.838903,0.361456 -2.945565,-0.157321 -4.461182,-0.780268 -2.593764,-1.066085 -4.366264,-2.987017 -4.366264,-5.695952 0,-0.672055 -0.230974,-2.161331 0,-2.730937 0.156675,-0.386378 0.352293,-0.768259 0.474594,-1.170401 0.09779,-0.321532 -0.133149,-1.091295 0,-1.638562 0.200011,-0.822085 0.645487,-1.654245 1.044106,-2.418829 0.14053,-0.269548 0.145418,-0.707238 0.284756,-0.936321 0.05101,-0.08388 0.221478,-0.07803 0.284757,-0.156054 0.157126,-0.193744 0.538078,-1.070369 0.664431,-1.248428 0.440292,-0.620461 0.888553,-1.239228 1.328863,-1.872641 0.305683,-0.439746 0.578647,-1.026863 0.854269,-1.404482 0.434538,-0.135323 0.07315,-0.432382 0.189838,-0.624214 0.252837,-0.415683 1.233945,-1.457891 1.233945,-1.950669 0,-0.752448 0.608487,-1.96876 0.854268,-2.574883 0.139212,-0.343313 -0.272782,-0.565872 0,-1.014348 0.117967,-0.193955 0.284757,-0.779211 0.284757,-1.014348 0,-0.02601 0,0.05202 0,0.07803 0,0.182062 0,0.364125 0,0.546187 0,0.480918 0.149491,1.037739 0.284756,1.482509 0.170858,0.561804 0.02172,0.263188 0.09492,0.624214 0.02262,0.111538 0.474594,0.598863 0.474594,0.624214 0,0.08225 -0.114535,0.153429 -0.09492,0.234079 0.02861,0.117594 0.392644,0.656197 0.474594,0.858295 0.08992,0.221733 0.405048,0.39554 0.474594,0.624214 0.03069,0.100927 -0.08949,0.238543 0,0.312107 0.07074,0.05815 0.204713,0.02868 0.284756,0.07802 0.550029,0.339108 -0.130236,0.01996 0,0.234081 0.06004,0.09869 0.164692,0.184731 0.284757,0.23408 0.04002,0.01645 0.09491,-0.114809 0.09491,-0.07803 0,0.05815 -0.11207,0.09963 -0.09491,0.156054 0.05519,0.181483 0.475132,0.338853 0.569512,0.468161 0.207825,0.284734 0.217828,0.484769 0.474593,0.780267 0.0663,0.07631 0.228159,0.07463 0.284757,0.156053 0.08004,0.115147 0.01488,0.274988 0.09492,0.390134 0.05659,0.08142 0.224294,0.07653 0.284756,0.156054 0.269881,0.354964 0.376856,0.814068 0.569512,1.170401 0.09266,0.171389 0.268873,0.30421 0.379676,0.468161 0.616441,0.912128 0.75935,1.793499 0.75935,2.574883 0,0.249038 0.379675,0.449583 0.379675,0.70224 0,0.449971 0.474594,1.124492 0.474594,1.716589 0,0.02601 -0.06328,0 -0.09492,0 0,0.104031 -0.03069,0.211178 0,0.312107 0.02645,0.08695 0.189839,0.687001 0.189839,0.858294 0,0.332298 -0.155562,0.665397 -0.09492,1.014348 0.0283,0.162841 0.189837,0.303665 0.189837,0.46816 0,0.686567 -0.265606,-0.295679 -0.09492,0.546188 0.04244,0.209308 0.284755,0.919242 0.284755,1.014348 0,0.59087 -0.213441,-0.116425 -0.09492,0.468159 0.105989,0.522734 0.297246,2.778161 0.09492,3.277124 -0.246959,0.609031 -0.460648,1.258783 -0.759349,1.872643 -0.155404,0.319368 -0.302528,0.638822 -0.569513,0.858293 -0.09492,0.07803 0.189837,0.156054 0,0.234081 -0.06328,0.02601 -0.126553,-0.104032 -0.189838,-0.07803 -0.01917,0.0078 -0.07557,0.296197 -0.09492,0.312107 -0.04475,0.03678 -0.137186,-0.02885 -0.189838,0 -0.05887,0.03226 -0.03164,0.130044 -0.09492,0.156053 -0.04002,0.01645 -0.06328,-0.104031 -0.09493,-0.07802 -0.112123,0.09217 -0.192838,0.314574 -0.284756,0.390134 -0.03151,0.0259 -1.422267,0.390134 -1.423782,0.390134 -0.129322,0 -0.467217,-0.159086 -0.664432,-0.07803 -0.61678,0.253508 -1.21215,0.07803 -1.328862,0.07803 -0.03164,0 0.07255,-0.0184 0.09492,0 0.05003,0.04112 -0.02417,0.156053 -0.09492,0.156053 -0.115198,0 0.02988,-0.258641 -0.189838,-0.07803 -0.05003,0.04113 0.165667,0.156054 0.09492,0.156054 -0.104306,0 -0.349028,-0.105665 -0.189837,0.156054"
       inkscape:connector-curvature="0" />
    <path
       style="fill:none;fill-rule:evenodd;stroke:#000000;stroke-width:1.20134807px;stroke-linecap:butt;stroke-linejoin:miter;stroke-opacity:1"
       d="m 22.733027,34.363018 c -1.068155,-0.715764 -1.908665,-1.765978 -2.372971,-2.965017 -0.32554,-0.840685 -0.468181,-1.75575 -0.379674,-2.652909 0.06507,-0.659616 0.25218,-1.30023 0.379674,-1.95067 0.11744,-0.59915 0.188383,-1.220292 0.465052,-1.764561 0.138334,-0.272134 0.328977,-0.521619 0.575911,-0.701109 0.246934,-0.179491 0.552798,-0.285347 0.857413,-0.265265 0.129237,0.0085 0.256155,0.03908 0.379676,0.07803 0.429878,0.135566 0.827319,0.376643 1.139024,0.70224 0.223105,0.233049 0.400282,0.50559 0.569514,0.780268 0.53414,0.866958 1.011571,1.798677 1.139025,2.808963 0.07827,0.620412 0.02181,1.251601 0.09492,1.872642 0.04457,0.378618 0.136909,0.749936 0.19584,1.126586 0.05893,0.37665 0.0838,0.765685 -0.006,1.13619 -0.02885,0.119021 -0.07106,0.238246 -0.150696,0.331289 -0.03982,0.04652 -0.08876,0.08576 -0.144629,0.110834 -0.05586,0.02507 -0.118782,0.03558 -0.179268,0.02604 -0.04955,-0.0078 -0.0963,-0.02862 -0.14576,-0.03694 -0.02473,-0.0042 -0.05029,-0.0051 -0.07477,2.96e-4 -0.02449,0.0054 -0.04791,0.01759 -0.06422,0.03664 -0.01879,0.02194 -0.02691,0.05129 -0.02906,0.0801 -0.0022,0.02881 0.0011,0.05771 0.0023,0.08657 0.0012,0.02886 2.85e-4,0.05845 -0.0098,0.08551 -0.0051,0.01353 -0.01241,0.02629 -0.02227,0.03685 -0.0099,0.01056 -0.02228,0.01886 -0.03609,0.02308 -0.02315,0.0071 -0.04969,0.0018 -0.06838,-0.01356 -0.0187,-0.01537 -0.029,-0.04039 -0.02653,-0.06447 -0.065,0.175141 -0.206364,0.320396 -0.379674,0.390134 -0.120214,0.04837 -0.251222,0.06098 -0.379676,0.07803 -0.595828,0.07909 -1.17732,0.264986 -1.708538,0.546187"
       id="path5084"
       inkscape:path-effect="#path-effect5086"
       inkscape:original-d="m 22.733027,34.363018 c -1.201434,-0.5895 -1.985395,-1.849914 -2.372971,-2.965017 -0.301601,-0.867749 -0.379674,-1.751089 -0.379674,-2.652909 0,-0.872193 -0.09385,-1.172159 0.379674,-1.95067 0.48337,-0.794694 1.289842,-2.480816 1.898376,-2.730935 0.116681,-0.04796 0.249222,0.07803 0.379676,0.07803 0.80859,0 0.808204,0.158345 1.139024,0.70224 0.09035,0.148549 0.463797,0.563009 0.569514,0.780268 0.473397,0.972877 0.826261,2.037653 1.139025,2.808963 0.254124,0.626699 -0.06634,1.209822 0.09492,1.872642 0.137915,0.566855 0.433052,1.662983 0.189837,2.262776 -0.0086,0.02125 -0.440444,0.454124 -0.474593,0.46816 -0.08489,0.0349 -0.205779,-0.04329 -0.284757,0 -0.571628,0.313266 0.667399,-0.0012 -0.09491,0.312108 -0.04003,0.01645 -0.0549,-0.09448 -0.09492,-0.07803 -0.360618,-0.03287 -0.211108,0.297755 -0.379674,0.390134 -0.0615,0.0337 -0.313062,0.02326 -0.379676,0.07803 -0.619867,0.509554 -1.002904,0.691201 -1.708538,0.546187"
       inkscape:connector-curvature="0" />
    <path
       style="fill:#ff0000;fill-opacity:1;stroke:#000000;stroke-width:0.0860593;stroke-opacity:0"
       d="m 19.203792,41.527793 c -0.802577,-0.155352 -1.214848,-0.475139 -1.535403,-1.190965 -0.315733,-0.705059 -1.013902,-1.144404 -1.651899,-1.039513 -0.208595,0.0343 -0.283498,5.46e-4 -0.41424,-0.186736 -0.08778,-0.125732 -0.257687,-0.266208 -0.377567,-0.312171 -0.119874,-0.04597 -0.330862,-0.235211 -0.468848,-0.420551 -0.148788,-0.19985 -0.490246,-0.470604 -0.839073,-0.665331 -0.324207,-0.180983 -0.722808,-0.491244 -0.888141,-0.691304 -0.164974,-0.199625 -0.562639,-0.582892 -0.883703,-0.851703 -0.491194,-0.411255 -0.58375,-0.532161 -0.58375,-0.762549 0,-0.150589 -0.07902,-0.365701 -0.1756,-0.478024 C 11.131034,34.63292 11.095982,34.579634 10.964069,34.288182 10.898507,34.143333 10.659215,33.817505 10.432303,33.564123 10.205391,33.310739 9.911763,32.867459 9.7797961,32.579058 9.6478238,32.290655 9.4078822,31.862338 9.2465806,31.627242 L 8.9533041,31.199795 9.11307,30.378227 c 0.1282224,-0.659329 0.1554119,-1.275996 0.1377136,-3.12277 -0.020432,-2.131507 -0.00676,-2.354364 0.1854872,-3.022123 0.1141507,-0.396508 0.2075382,-0.945059 0.2075382,-1.219003 0,-0.332329 0.064674,-0.618277 0.194357,-0.859265 0.1068895,-0.198651 0.277556,-0.720113 0.379245,-1.158805 0.215856,-0.931215 0.542928,-1.536525 1.48718,-2.752307 0.366632,-0.472062 0.912267,-1.262083 1.212521,-1.755602 0.82787,-1.360743 1.242398,-1.914945 2.081802,-2.783261 0.421936,-0.436469 1.058567,-1.230271 1.414736,-1.764005 0.392755,-0.588562 1.036481,-1.376182 1.635892,-2.0015705 0.543572,-0.5671304 1.223365,-1.3754103 1.510651,-1.7961774 0.648334,-0.9495679 1.460425,-1.8905231 2.003283,-2.3211677 0.253813,-0.2013481 0.583675,-0.6073699 0.855774,-1.0533611 0.282158,-0.4624797 0.641051,-0.9002671 0.989408,-1.206912 0.469946,-0.4136757 1.04248,-1.1894668 1.04248,-1.4125769 0,-0.1164131 0.735749,-0.564078 0.927077,-0.564078 0.484154,0 0.780122,0.622183 0.780931,1.6416752 8.55e-4,1.118388 0.3999,1.9980096 1.049391,2.3133963 0.156566,0.076026 0.300776,0.2417626 0.365945,0.4205684 0.07323,0.2009366 0.214053,0.3492033 0.441324,0.4646672 0.193282,0.098196 0.427897,0.3221692 0.5574,0.5321148 0.123001,0.1993993 0.420468,0.5097187 0.661048,0.6895985 0.333831,0.249604 0.437418,0.3823396 0.437418,0.5605112 0,0.196677 0.04113,0.2373462 0.261026,0.2581459 0.193499,0.018299 0.269457,0.073762 0.293612,0.2143917 0.01793,0.1043362 0.194733,0.3501203 0.392914,0.546187 0.19818,0.1960678 0.391204,0.4442656 0.428942,0.5515524 0.03774,0.1072879 0.165426,0.282847 0.283752,0.390134 0.118324,0.107288 0.243136,0.324698 0.277359,0.483134 0.0428,0.198156 0.208845,0.413119 0.531983,0.688718 0.360638,0.307581 0.514225,0.518986 0.661166,0.91006 0.105273,0.280175 0.191402,0.560966 0.191402,0.62398 0,0.253318 0.498507,1.31294 0.77066,1.638105 0.159497,0.190566 0.449771,0.441627 0.645053,0.557912 0.321461,0.191425 0.346712,0.232006 0.266874,0.428898 -0.1399,0.34501 -0.0011,0.707911 0.455933,1.19169 0.335109,0.354754 0.424288,0.512586 0.424288,0.750919 0,0.444385 0.265806,1.425027 0.537453,1.982828 0.130727,0.268431 0.473456,0.814878 0.761626,1.214326 0.603967,0.83719 0.651267,0.926313 0.882633,1.663107 0.09442,0.300687 0.343701,0.81521 0.553956,1.143386 0.210254,0.328173 0.410227,0.766842 0.444383,0.974817 0.105936,0.645008 0.329051,1.202334 0.85421,2.133737 0.658466,1.167833 0.707302,1.422947 0.38364,2.004103 -0.170848,0.306769 -0.243042,0.558486 -0.229903,0.801589 0.01153,0.21318 -0.04687,0.458936 -0.146547,0.616759 -0.09114,0.1443 -0.189048,0.448315 -0.217582,0.675585 -0.04253,0.338739 -0.101139,0.443159 -0.325181,0.579318 -0.210854,0.12815 -0.260486,0.208062 -0.217224,0.349757 0.03085,0.101014 0.0099,0.207116 -0.04653,0.235788 -0.05643,0.02867 -0.10261,0.117416 -0.10261,0.197207 0,0.0798 -0.18854,0.32665 -0.418979,0.548572 -0.230437,0.221921 -0.446962,0.495146 -0.481163,0.607165 -0.0342,0.112021 -0.469322,0.552364 -0.966934,0.97854 -1.125194,0.963669 -1.811431,1.72035 -2.757752,3.040852 -0.968837,1.35192 -1.73501,2.013315 -2.547689,2.199275 -0.309851,0.0709 -1.058962,0.26689 -1.664693,0.435529 -0.88991,0.247756 -1.236334,0.306617 -1.804607,0.306617 -0.492009,0 -0.931047,0.05972 -1.461479,0.198795 -0.417009,0.109338 -1.099907,0.23424 -1.517549,0.277561 -1.040125,0.107887 -1.453519,0.187296 -2.610686,0.501485 -1.70652,0.463346 -2.499139,0.565539 -3.253633,0.419494 z m 4.850397,-3.291894 c 0.01778,-0.07643 0.170031,-0.262521 0.338339,-0.413545 0.285408,-0.256097 0.324856,-0.268405 0.585719,-0.182764 0.153836,0.05051 0.706835,0.09614 1.228889,0.101438 0.839928,0.0085 0.983254,-0.01035 1.245138,-0.163922 0.162774,-0.09545 0.349486,-0.279783 0.41492,-0.409641 0.06543,-0.129857 0.150572,-0.236104 0.189195,-0.236104 0.03862,0 0.27201,-0.15447 0.518635,-0.343265 0.391252,-0.299511 0.444768,-0.377983 0.419859,-0.615654 -0.02344,-0.223579 0.0366,-0.331669 0.33502,-0.6032 0.199962,-0.181945 0.474096,-0.528138 0.609187,-0.76932 0.309003,-0.551674 0.376093,-1.47629 0.208678,-2.875903 -0.09427,-0.788123 -0.0931,-1.120267 0.0061,-1.714081 0.100079,-0.599253 0.100397,-0.80456 0.0017,-1.101494 -0.12128,-0.364725 -0.16476,-0.857263 -0.218196,-2.471681 -0.02581,-0.779875 -0.0089,-0.883119 0.185189,-1.129994 0.227415,-0.289275 0.287398,-0.846017 0.128223,-1.190161 C 30.203843,24.015093 29.96545,23.740686 29.721026,23.50682 29.098509,22.911196 29.038352,22.790898 28.861163,21.787346 28.680395,20.763517 28.492662,20.272705 28.076471,19.735835 27.914126,19.526417 27.753137,19.2007 27.718717,19.01202 27.684293,18.82334 27.55442,18.555782 27.4301,18.417447 c -0.124314,-0.138336 -0.300832,-0.354644 -0.392249,-0.480685 -0.09141,-0.126041 -0.264193,-0.313514 -0.383941,-0.416606 -0.119743,-0.103094 -0.285023,-0.325699 -0.367273,-0.49468 -0.08226,-0.168981 -0.221346,-0.350186 -0.309101,-0.402675 -0.08776,-0.05249 -0.215981,-0.20955 -0.284945,-0.349022 -0.06897,-0.139473 -0.158703,-0.253587 -0.199417,-0.253587 -0.105962,0 -0.42899,-0.470363 -0.510652,-0.743573 -0.03809,-0.127469 -0.244184,-0.379304 -0.457966,-0.559632 -0.361948,-0.30531 -0.389274,-0.359318 -0.397129,-0.784896 -0.0069,-0.372092 -0.05422,-0.501739 -0.254788,-0.697635 -0.311365,-0.304105 -0.449168,-1.178601 -0.229211,-1.454556 0.07464,-0.09364 0.183173,-0.352204 0.241192,-0.574591 0.09204,-0.352756 0.08154,-0.448829 -0.08217,-0.753073 -0.217326,-0.403867 -0.469164,-0.5394117 -1.002216,-0.5394117 -0.316198,0 -0.426352,0.044516 -0.646487,0.2612797 -0.151756,0.149429 -0.265349,0.354869 -0.265349,0.4799 0,0.146331 -0.09802,0.290617 -0.296436,0.436352 -0.374527,0.275086 -0.425533,0.742628 -0.118285,1.084247 l 0.198744,0.220977 -0.356182,1.174405 c -0.360291,1.18795 -0.484243,1.445408 -1.149332,2.387245 -0.202832,0.287232 -0.494224,0.837784 -0.647539,1.223449 -0.335198,0.843206 -0.650902,1.37435 -1.188526,1.999596 -0.638273,0.742298 -0.972222,1.282103 -1.182641,1.911656 -0.16461,0.492497 -0.254699,0.625686 -0.568701,0.840777 -0.408003,0.279482 -0.528421,0.51798 -0.6183,1.224583 -0.03899,0.306599 -0.203309,0.724158 -0.480717,1.221646 -0.549211,0.984921 -0.646531,1.356325 -0.571034,2.179237 0.05739,0.625481 0.04015,0.71943 -0.273127,1.489152 -0.458619,1.126818 -0.514495,1.783205 -0.257252,3.021987 0.930876,4.48272 4.446937,7.394919 8.837123,7.319402 0.689464,-0.01186 0.810406,-0.03391 0.838063,-0.152816 l -10e-7,0 z"
       id="path5100"
       inkscape:connector-curvature="0" />
    <path
       style="fill:#ff6600;fill-opacity:1;stroke:#000000;stroke-width:0.0860593;stroke-opacity:0"
       d="m 21.605532,37.082097 c -2.811498,-0.605037 -4.764014,-2.506484 -5.669839,-5.521546 -0.185143,-0.616254 -0.251936,-1.044996 -0.257299,-1.651598 -0.0066,-0.745031 0.02225,-0.886459 0.318149,-1.560535 0.302676,-0.689506 0.32587,-0.809343 0.332217,-1.716589 l 0.0068,-0.975334 0.460202,-0.841726 c 0.318857,-0.583204 0.485855,-1.009687 0.543732,-1.388594 0.07209,-0.471986 0.12328,-0.574356 0.373749,-0.747611 0.366211,-0.253307 0.522316,-0.502541 0.789224,-1.260061 0.161,-0.456934 0.392266,-0.825993 0.94567,-1.509113 0.783561,-0.967227 1.204727,-1.662475 1.387016,-2.28965 0.06237,-0.214574 0.375295,-0.776366 0.695398,-1.248428 0.320102,-0.472062 0.694447,-1.145192 0.831878,-1.495843 l 0.249874,-0.637549 0.112879,0.346947 c 0.06718,0.206488 0.266477,0.483921 0.492272,0.685287 0.237032,0.211387 0.37939,0.413454 0.37939,0.53852 0,0.229467 0.576259,1.177669 0.874105,1.438289 0.110017,0.09626 0.275128,0.194622 0.366919,0.218571 0.09178,0.02395 0.212066,0.15007 0.267281,0.280272 0.05521,0.130202 0.208281,0.342133 0.340149,0.470959 0.131866,0.128826 0.239759,0.281082 0.239759,0.338347 0,0.05726 0.130209,0.194185 0.289365,0.304269 0.203288,0.140616 0.330987,0.331519 0.429293,0.641773 0.07696,0.24289 0.286362,0.638733 0.465335,0.879651 0.34771,0.468054 0.431535,0.709115 0.660528,1.899504 0.172568,0.897068 0.375918,1.284863 0.963084,1.83663 0.411555,0.386743 0.422221,0.408169 0.203219,0.408169 -0.211536,0 -0.235939,0.03805 -0.287778,0.448653 -0.03115,0.24676 -0.01397,0.604107 0.0382,0.794103 0.05217,0.189998 0.0895,0.646454 0.08299,1.014348 -0.01664,0.939057 0.07069,1.924366 0.198876,2.243641 0.08205,0.204343 0.08136,0.456445 -0.0028,1.025672 -0.08232,0.556984 -0.08489,0.966455 -0.0098,1.562777 0.239413,1.900734 0.106995,2.594022 -0.594586,3.112933 -0.360705,0.266789 -0.56426,0.539998 -0.668444,0.897177 -0.03995,0.136954 -0.125281,0.214574 -0.235907,0.214574 -0.221586,0 -0.455263,0.21281 -0.594686,0.541582 l -0.109566,0.258353 -0.549853,-0.04099 c -0.388804,-0.02898 -0.642578,-0.09913 -0.866445,-0.239491 -0.356195,-0.223333 -0.979768,-0.363739 -1.354159,-0.304906 -0.137138,0.02154 -0.375386,0.142797 -0.529444,0.269437 -0.225757,0.185579 -0.280105,0.297218 -0.280105,0.575373 0,0.338228 -0.0061,0.345032 -0.308485,0.340822 -0.169668,-0.0024 -0.627958,-0.07304 -1.01842,-0.157075 z m 1.027676,-2.381852 c 0.04881,0.0248 0.274934,-0.02242 0.502481,-0.104924 0.227546,-0.08251 0.699425,-0.208847 1.04862,-0.280745 0.419176,-0.08631 0.741685,-0.210334 0.949188,-0.365024 0.172858,-0.128863 0.473247,-0.318059 0.667529,-0.420434 0.685895,-0.361427 0.830793,-0.953323 0.602823,-2.462493 -0.08208,-0.543437 -0.149253,-1.26947 -0.149253,-1.61341 0,-1.393569 -0.362014,-2.563475 -1.236509,-3.995986 -0.802523,-1.314614 -1.735785,-1.948585 -2.862851,-1.944755 -1.304149,0.0045 -2.151479,0.792983 -2.364122,2.200124 -0.0537,0.355376 -0.207602,1.242122 -0.341996,1.970546 -0.278321,1.508505 -0.263304,2.306515 0.06303,3.350053 0.401937,1.285275 1.090561,2.318881 2.17521,3.264934 0.469471,0.409483 0.634117,0.509136 0.731463,0.442723 0.0691,-0.04714 0.165565,-0.06541 0.214383,-0.04061 z"
       id="path5102"
       inkscape:connector-curvature="0" />
    <path
       style="fill:#ffcc00;fill-opacity:1;stroke:#000000;stroke-width:0.0860593;stroke-opacity:0"
       d="m 22.203613,33.006462 c -1.33813,-1.482848 -1.775539,-3.078968 -1.372736,-5.009165 0.107472,-0.514976 0.238738,-1.290941 0.291712,-1.724366 0.109673,-0.897248 0.141362,-0.992264 0.443049,-1.328113 0.280721,-0.312507 0.501441,-0.355691 0.958404,-0.187512 0.513168,0.188865 0.84221,0.538228 1.369894,1.454492 0.686045,1.191241 0.840826,1.729056 0.940519,3.268008 0.04726,0.72955 0.128991,1.554682 0.181613,1.833629 0.170636,0.90445 0.144258,1.045926 -0.221768,1.18941 -0.184575,0.07236 -0.376409,0.229197 -0.450864,0.368628 -0.0804,0.150558 -0.21968,0.25883 -0.366892,0.285201 -0.130514,0.02337 -0.484621,0.107963 -0.786907,0.187954 l -0.54961,0.145447 -0.436414,-0.483613 z"
       id="path5104"
       inkscape:connector-curvature="0" />
  </g>
</svg>
