<?xml version="1.0" encoding="UTF-8" standalone="no"?>
<!-- Created with Inkscape (http://www.inkscape.org/) -->

<svg
   xmlns:dc="http://purl.org/dc/elements/1.1/"
   xmlns:cc="http://creativecommons.org/ns#"
   xmlns:rdf="http://www.w3.org/1999/02/22-rdf-syntax-ns#"
   xmlns:svg="http://www.w3.org/2000/svg"
   xmlns="http://www.w3.org/2000/svg"
   xmlns:sodipodi="http://sodipodi.sourceforge.net/DTD/sodipodi-0.dtd"
   xmlns:inkscape="http://www.inkscape.org/namespaces/inkscape"
   width="48"
   height="48"
   id="svg3376"
   version="1.1"
   inkscape:version="0.91 r13725"
   viewBox="0 0 48 48"
   sodipodi:docname="tree.svg">
  <defs
     id="defs3378" />
  <sodipodi:namedview
     id="base"
     pagecolor="#ffffff"
     bordercolor="#666666"
     borderopacity="1.0"
     inkscape:pageopacity="0.0"
     inkscape:pageshadow="2"
     inkscape:zoom="14"
     inkscape:cx="18.709658"
     inkscape:cy="20.004504"
     inkscape:current-layer="layer2"
     showgrid="true"
     inkscape:grid-bbox="true"
     inkscape:document-units="px"
     inkscape:window-width="1436"
     inkscape:window-height="856"
     inkscape:window-x="4"
     inkscape:window-y="0"
     inkscape:window-maximized="1" />
  <metadata
     id="metadata3381">
    <rdf:RDF>
      <cc:Work
         rdf:about="">
        <dc:format>image/svg+xml</dc:format>
        <dc:type
           rdf:resource="http://purl.org/dc/dcmitype/StillImage" />
        <dc:title></dc:title>
      </cc:Work>
    </rdf:RDF>
  </metadata>
  <g
     inkscape:groupmode="layer"
     id="layer2"
     inkscape:label="Trunk"
     style="display:inline">
    <path
       style="fill:none;fill-rule:evenodd;stroke:#000000;stroke-width:1px;stroke-linecap:butt;stroke-linejoin:miter;stroke-opacity:1"
       d="M 5.8588848,42.747207 C 5.9599,42.61252 6.0609153,42.477833 6.1619305,42.343146 c 0.033672,0 0.1010153,0.03367 0.1010153,0 0,-0.04762 -0.1160737,-0.05584 -0.1010153,-0.101016 0.030117,-0.09035 0.134687,-0.134687 0.2020305,-0.20203 0.033672,-0.03367 0.085957,-0.05584 0.1010153,-0.101015 0.021296,-0.06389 -0.021296,-0.138143 0,-0.202031 0.015059,-0.04518 0.067343,-0.06734 0.1010152,-0.101015 0.067343,-0.06734 0.1719136,-0.11168 0.2020306,-0.202031 0.015058,-0.04518 -0.1223112,-0.05842 -0.1010153,-0.101015 0.033672,-0.06734 0.1568551,-0.04078 0.2020305,-0.101015 0.063888,-0.08518 0.06147,-0.204182 0.1010153,-0.303046 0.027963,-0.06991 0.067343,-0.134687 0.1010152,-0.20203 0.033672,-0.06734 0.067343,-0.134687 0.1010153,-0.202031 0.067343,-0.134687 0.1273196,-0.273317 0.2020305,-0.404061 0.060234,-0.105409 0.1477364,-0.194457 0.2020305,-0.303046 0.047619,-0.09524 0.063628,-0.203346 0.1010152,-0.303045 0.063669,-0.169783 0.134687,-0.336718 0.2020305,-0.505077 0.067344,-0.168358 0.1209382,-0.342891 0.2020306,-0.505076 0.5072441,-1.014488 -0.1272291,0.53257 0.404061,-0.707107 0.041944,-0.09787 0.049304,-0.209966 0.1010152,-0.303045 0.1179192,-0.212255 0.2753718,-0.400189 0.404061,-0.606092 0.3903303,-0.624528 -0.3197093,0.366781 0.3030458,-0.505076 0.097857,-0.136999 0.2195164,-0.257885 0.3030458,-0.404061 0.052829,-0.09245 0.041951,-0.21445 0.1010152,-0.303046 0.079243,-0.118864 0.2138036,-0.191493 0.3030456,-0.303046 0.04703,-0.05879 0.06734,-0.134687 0.101015,-0.20203 0.101016,-0.202031 0.16752,-0.42539 0.303046,-0.606092 0.07284,-0.09712 0.2172,-0.116184 0.303046,-0.20203 0.37896,-0.37896 0.06391,-0.18623 0.303046,-0.505077 0.157791,-0.210387 0.363886,-0.384221 0.505076,-0.606091 0.09735,-0.15298 0.101448,-0.354202 0.202031,-0.505076 0.04176,-0.06265 0.156855,-0.04078 0.20203,-0.101016 0.06389,-0.08518 0.04195,-0.214449 0.101015,-0.303045 0.145878,-0.218817 0.347286,-0.395704 0.505077,-0.606092 0.04517,-0.06023 0.06366,-0.136658 0.101015,-0.20203 0.09741,-0.17047 0.21524,-0.329466 0.303046,-0.505077 0.04762,-0.09524 0.0493,-0.209966 0.101015,-0.303046 0.117919,-0.212254 0.295473,-0.388915 0.404061,-0.606091 0.03012,-0.06023 -0.03012,-0.141797 0,-0.202031 0.607869,-1.215737 0.03592,0.36476 0.505076,-0.808122 0.07909,-0.197727 0.11554,-0.411487 0.202031,-0.606091 0.04931,-0.110942 0.147736,-0.194458 0.20203,-0.303046 0.0011,-0.0022 0.402257,-1.006183 0.404061,-1.010152 0.09347,-0.205631 0.240993,-0.388906 0.303046,-0.606092 0.01308,-0.04579 -0.116074,-0.05584 -0.101015,-0.101015 0.06209,-0.186263 0.21524,-0.329466 0.303045,-0.505076 0.06734,-0.168359 0.134687,-0.336718 0.202031,-0.505077 0,-0.06734 -0.0213,-0.138143 0,-0.20203 0.314579,-0.943739 0.07153,0.06879 0.404061,-0.707107 0.05469,-0.127607 0.04945,-0.275159 0.101015,-0.404061 0.01769,-0.04421 0.06734,-0.06734 0.101015,-0.101015 0.03367,-0.06734 0.07721,-0.130602 0.101016,-0.202031 0.0439,-0.131708 0.04945,-0.275158 0.101015,-0.404061 0.01769,-0.04421 0.07972,-0.05842 0.101015,-0.101015 0.01506,-0.03012 -0.0082,-0.06835 0,-0.101015 0.02582,-0.103301 0.101015,-0.196567 0.101015,-0.303046 0,-0.03367 -0.101015,0.03367 -0.101015,0 0,-0.51031 0.07763,-0.07763 0.202031,-0.202031 0.02381,-0.02381 -0.01065,-0.06907 0,-0.101015 0.02381,-0.07143 0.101015,-0.126738 0.101015,-0.20203 0,-0.03367 -0.101015,0.03367 -0.101015,0 0,-0.04762 0.08596,-0.05584 0.101015,-0.101016 0.0213,-0.06389 0,-0.134687 0,-0.20203 0,-0.03367 0,-0.06734 0,-0.101015 0,-0.06734 -0.01633,-0.136698 0,-0.202031 0.01826,-0.07304 0.101015,-0.126738 0.101015,-0.20203 0,-0.07529 -0.101015,-0.126739 -0.101015,-0.202031 0,-0.07529 0.08275,-0.128986 0.101015,-0.20203 0.01633,-0.06533 -0.0213,-0.138143 0,-0.202031 0.01506,-0.04518 0.08596,-0.05584 0.101015,-0.101015 0.0213,-0.06389 -0.01321,-0.135995 0,-0.202031 0.02088,-0.104411 0.101016,-0.196566 0.101016,-0.303045 0,-0.164274 -0.18928,-0.0255 -0.101016,-0.202031 0.0213,-0.04259 0.08947,-0.05482 0.101016,-0.101015 0.0245,-0.098 0,-0.202031 0,-0.303046 0,-0.101015 0,-0.202031 0,-0.303046 0,-0.101015 0,-0.20203 0,-0.303046 0,-0.03367 -0.03367,-0.101015 0,-0.101015 0.03367,0 0,0.134687 0,0.101015 0,-0.06734 0,-0.134687 0,-0.20203 0,-0.06734 0,-0.134687 0,-0.202031 0.03367,0 0.08596,0.03012 0.101015,0 0.03012,-0.06023 0,-0.134687 0,-0.20203 0,-0.03367 0,0.134687 0,0.101015 0,-0.101015 0,-0.20203 0,-0.303046 0,-0.03367 0,0.134687 0,0.101016 0,-0.06734 0,-0.134687 0,-0.202031 0,-0.03367 0,0.134687 0,0.101015 0,-0.134687 0,-0.269374 0,-0.404061"
       id="path4285"
       inkscape:connector-curvature="0" />
    <path
       style="fill:none;fill-rule:evenodd;stroke:#000000;stroke-width:1px;stroke-linecap:butt;stroke-linejoin:miter;stroke-opacity:1"
       d="m 34.446202,40.625886 c -0.335593,-1.342372 0.193883,0.390483 -0.404061,-0.606091 -0.05197,-0.08662 0.03547,-0.208462 0,-0.303046 -0.06894,-0.183837 -0.215241,-0.329466 -0.303046,-0.505076 -0.01506,-0.03012 0.01506,-0.0709 0,-0.101015 -0.05429,-0.108589 -0.141797,-0.197637 -0.202031,-0.303046 -0.07471,-0.130744 -0.127319,-0.273317 -0.20203,-0.404061 -0.06023,-0.105409 -0.141797,-0.197637 -0.202031,-0.303046 -0.07471,-0.130744 -0.134687,-0.269374 -0.20203,-0.404061 -0.03367,-0.06734 -0.07721,-0.130602 -0.101015,-0.20203 -0.0439,-0.131708 -0.02959,-0.285014 -0.101016,-0.404061 -0.03874,-0.06456 -0.163292,-0.03645 -0.20203,-0.101016 -0.07143,-0.119047 -0.05711,-0.272353 -0.101015,-0.404061 -0.08301,-0.249027 -0.264462,-0.373425 -0.404061,-0.606091 -0.01732,-0.02887 0.0066,-0.068 0,-0.101016 -0.02723,-0.136136 -0.04946,-0.275158 -0.101016,-0.404061 -0.01769,-0.04421 -0.08333,-0.0568 -0.101015,-0.101015 -0.05156,-0.128902 -0.05227,-0.274068 -0.101015,-0.404061 -0.05287,-0.140997 -0.154412,-0.261204 -0.202031,-0.404061 -0.0213,-0.06389 0.02501,-0.139503 0,-0.20203 -0.164956,-0.412392 -0.303045,-0.192321 -0.303045,-0.707107 0,-0.138832 0.120649,-0.266624 0.101015,-0.404061 -0.01717,-0.120185 -0.168678,-0.186312 -0.202031,-0.303046 -0.037,-0.129505 0.05002,-0.279007 0,-0.404061 -0.02796,-0.06991 -0.183769,-0.02797 -0.20203,-0.101015 -0.02583,-0.1033 0.11852,-0.198015 0.101015,-0.303046 -0.01996,-0.119753 -0.178221,-0.183998 -0.20203,-0.303046 -0.01477,-0.07383 0.06734,-0.134687 0.101015,-0.20203 -0.06734,-0.101015 -0.163639,-0.187871 -0.202031,-0.303046 -0.01065,-0.03194 0.09285,0.03267 0.101016,0 0.03267,-0.130666 0.04259,-0.276286 0,-0.404061 -0.03012,-0.09035 -0.122788,-0.149202 -0.202031,-0.202031 -0.02802,-0.01868 -0.101015,0.03367 -0.101015,0 0.334095,-1.336382 0.108688,0.124035 -0.101015,-0.505076 -0.02381,-0.07143 0.101015,-0.126738 0.101015,-0.20203 0,-0.150585 -0.202031,-0.253477 -0.202031,-0.404061 0,-0.03367 0.101016,0.03367 0.101016,0 0,-0.10648 -0.08013,-0.198634 -0.101016,-0.303046 -0.01321,-0.06604 0,-0.134687 0,-0.202031 0,-0.06734 0.03012,-0.141796 0,-0.20203 -0.01506,-0.03012 -0.101015,0.03367 -0.101015,0 0,-0.12074 0.311216,-0.09285 0.101015,-0.303046 -0.03367,-0.03367 -0.05842,0.122311 -0.101015,0.101015 -0.293257,-0.146628 -0.04614,-0.210767 0,-0.303045 0.01506,-0.03012 0.02381,-0.07721 0,-0.101016 -0.05324,-0.05324 -0.168359,-0.03367 -0.20203,-0.101015 -0.0213,-0.04259 0.122311,-0.05842 0.101015,-0.101015 -0.03367,-0.06734 -0.178221,-0.02959 -0.202031,-0.101015 -0.02381,-0.07143 0.124825,-0.130602 0.101016,-0.202031 -0.02381,-0.07143 -0.168359,-0.03367 -0.202031,-0.101015 -0.0213,-0.04259 0.116074,-0.05584 0.101015,-0.101015 -0.03012,-0.09035 -0.159438,-0.116847 -0.20203,-0.202031 -0.03012,-0.06023 0.03012,-0.141797 0,-0.20203 -0.04259,-0.08518 -0.144888,-0.12584 -0.202031,-0.202031 -0.577653,-0.366834 0.03012,-0.141797 0,-0.20203 -0.04259,-0.08518 -0.144887,-0.12584 -0.20203,-0.202031 -0.04518,-0.06023 -0.06734,-0.134687 -0.101015,-0.20203 -0.03367,-0.06734 -0.06734,-0.134687 -0.101016,-0.202031 -0.03367,-0.06734 -0.07721,-0.130602 -0.101015,-0.20203 -0.0439,-0.131708 -0.05711,-0.272354 -0.101015,-0.404061 -0.02381,-0.07143 -0.07305,-0.132124 -0.101015,-0.202031 -0.03955,-0.09886 -0.06147,-0.204182 -0.101016,-0.303046 -0.02796,-0.06991 -0.08625,-0.1282 -0.101015,-0.20203 -0.01981,-0.09905 0.05603,-0.218996 0,-0.303046 -0.03735,-0.05603 -0.164675,0.05603 -0.20203,0 -0.05603,-0.08405 0.01981,-0.203992 0,-0.303046 -0.01477,-0.07383 -0.07721,-0.130602 -0.101016,-0.20203 -0.0213,-0.06389 0.0213,-0.138143 0,-0.202031 -0.02381,-0.07143 -0.05925,-0.139383 -0.101015,-0.20203 -0.02641,-0.03962 -0.101015,-0.0534 -0.101015,-0.101016 0,-0.07529 0.101015,-0.126738 0.101015,-0.20203 0,-0.04762 -0.0746,-0.06139 -0.101015,-0.101015 -0.04176,-0.06265 -0.101016,-0.126739 -0.101016,-0.202031 0,-0.03367 0.101016,0.03367 0.101016,0 0,-0.106479 -0.08013,-0.198634 -0.101016,-0.303046 -0.01321,-0.06604 0,-0.134687 0,-0.20203 0,-0.03367 0,-0.06734 0,-0.101015 0,-0.06734 0.01633,-0.136698 0,-0.202031 -0.01826,-0.07304 -0.08275,-0.128986 -0.101015,-0.20203 -0.01633,-0.06533 0,-0.134687 0,-0.202031 0,-0.101015 0,-0.20203 0,-0.303046 0,-0.235702 0,-0.471404 0,-0.707106 0,-0.235703 0,-0.471405 0,-0.707107 0,-0.06734 0,-0.134687 0,-0.202031 0,-0.03367 0.01506,-0.0709 0,-0.101015 -0.0213,-0.04259 -0.101015,-0.0534 -0.101015,-0.101015 0,-0.03367 0.07721,0.02381 0.101015,0 0.02381,-0.02381 0,-0.06734 0,-0.101016 0,-0.06734 0,-0.134687 0,-0.20203 0,-0.235702 0,-0.471405 0,-0.707107"
       id="path4287"
       inkscape:connector-curvature="0" />
    <path
       style="fill:none;fill-rule:evenodd;stroke:#000000;stroke-width:1px;stroke-linecap:butt;stroke-linejoin:miter;stroke-opacity:1"
       d="m 16.465486,19.513698 c -0.134687,-0.06734 -0.269374,-0.134687 -0.404061,-0.20203 -0.06734,0 -0.141796,0.03012 -0.20203,0 -0.03012,-0.01506 0.03012,-0.08596 0,-0.101016 -0.06023,-0.03012 -0.134687,0 -0.202031,0 -0.20203,0 -0.404061,0 -0.606091,0 -0.03367,0 -0.06734,0 -0.101015,0 -0.03367,0 -0.101016,0.03367 -0.101016,0 0,-0.03367 0.134687,0 0.101016,0 -0.101016,0 -0.202031,0 -0.303046,0 -0.101015,0 -0.202031,0 -0.303046,0 -0.03367,0 -0.06734,0 -0.101015,0 -0.03367,0 -0.0709,-0.01506 -0.101015,0 -0.04259,0.0213 -0.06734,0.06734 -0.101016,0.101016 -0.03367,0.03367 -0.0534,0.101015 -0.101015,0.101015 -0.04762,0 -0.05842,-0.122311 -0.101015,-0.101015 -0.06734,0.03367 -0.03367,0.168358 -0.101015,0.20203 -0.179583,0.08979 -0.02245,-0.359165 -0.202031,0 -0.01506,0.03012 0.03012,0.08596 0,0.101015 -0.06023,0.03012 -0.134687,0 -0.20203,0 -0.03367,0 -0.0709,-0.01506 -0.101016,0 -0.335025,0.335026 0.09524,-0.04762 -0.20203,0.101016 -0.04259,0.0213 -0.0534,0.101015 -0.101015,0.101015 -0.04762,0 -0.05842,-0.07972 -0.101016,-0.101015 -0.04214,-0.02107 -0.178513,0.02352 -0.20203,0 -0.02381,-0.02381 -0.01065,-0.06907 0,-0.101016 0.195897,-0.587691 -0.01,-0.04303 0.20203,-0.20203 0.114286,-0.08571 0.202031,-0.202031 0.303046,-0.303046 0.03367,-0.03367 0.06734,-0.06734 0.101015,-0.101015 0.03367,-0.03367 0.07972,-0.05842 0.101016,-0.101015 0.03367,-0.101016 0.06734,-0.202031 0.101015,-0.303046 0.06734,0.03367 0.148791,0.154255 0.20203,0.101015 0.07143,-0.07143 -0.07143,-0.231617 0,-0.303046 0.05324,-0.05324 0.139384,0.14278 0.202031,0.101016 0.0886,-0.05906 0.04195,-0.21445 0.101015,-0.303046 0.01868,-0.02802 0.0709,0.01506 0.101015,0 0.04259,-0.0213 0.06139,-0.0746 0.101016,-0.101015 0.06265,-0.04177 0.141796,-0.05584 0.20203,-0.101016 0.07619,-0.05714 0.122788,-0.149201 0.202031,-0.20203 0.02802,-0.01868 0.07721,0.02381 0.101015,0 0.08585,-0.08585 0.104906,-0.230203 0.20203,-0.303046 0.05387,-0.04041 0.141797,0.03012 0.202031,0 0.08518,-0.04259 0.12584,-0.144888 0.20203,-0.20203 0.06023,-0.04518 0.130602,-0.07721 0.202031,-0.101016 0.03194,-0.01065 0.07721,0.02381 0.101015,0 0.08585,-0.08585 0.101015,-0.235702 0.202031,-0.303045 0.03962,-0.02641 0.0534,0.101015 0.101015,0.101015 0.03367,0 -0.02381,-0.07721 0,-0.101015 0.02381,-0.02381 0.07721,0.02381 0.101015,0 0.02381,-0.02381 -0.02381,-0.07721 0,-0.101016 0.02381,-0.02381 0.07721,0.02381 0.101015,0 0.02381,-0.02381 0,-0.06734 0,-0.101015 0,-0.03367 0,-0.06734 0,-0.101015 0,-0.03367 0.01506,-0.0709 0,-0.101015 -0.02129,-0.04259 -0.0746,-0.06139 -0.101015,-0.101016 -0.04176,-0.06265 -0.06734,-0.134687 -0.101015,-0.20203 -0.03367,-0.06734 -0.04778,-0.148791 -0.101015,-0.202031 -0.02381,-0.02381 -0.08234,0.02802 -0.101016,0 -0.05906,-0.0886 -0.0534,-0.207807 -0.101015,-0.303045 -0.0213,-0.04259 -0.06734,-0.06734 -0.101015,-0.101016 -0.03367,-0.134687 -0.04945,-0.275158 -0.101015,-0.404061 -0.01769,-0.04421 -0.0746,-0.06139 -0.101016,-0.101015 -0.04176,-0.06265 -0.06734,-0.134687 -0.101015,-0.20203 -0.03367,-0.06734 -0.06734,-0.134687 -0.101015,-0.202031 -0.03367,-0.06734 -0.05925,-0.139383 -0.101015,-0.20203 -0.02642,-0.03962 -0.08947,-0.05482 -0.101016,-0.101016 -0.0245,-0.098 0.03194,-0.207214 0,-0.303046 -0.01065,-0.03194 -0.0709,0.01506 -0.101015,0 -0.04259,-0.0213 -0.08596,-0.05584 -0.101015,-0.101015 -0.0213,-0.06389 0.0213,-0.138143 0,-0.20203 0.03776,-0.220063 -0.168359,-0.03367 -0.202031,-0.101016 -0.03012,-0.06023 0,-0.134687 0,-0.20203 0,-0.03367 -0.03012,0.08596 0,0.101015 0.06023,0.03012 0.134687,0 0.202031,0 0.168359,0 0.336717,0 0.505076,0 0.134687,0 0.269374,0 0.404061,0 0.101015,0 0.205917,-0.02775 0.303046,0 0.375087,0.107168 0.494431,0.357983 0.909137,0.404061 0.137983,0.01533 0.266624,-0.120649 0.404061,-0.101015 0.120185,0.01717 0.186312,0.168678 0.303046,0.20203 0.129505,0.037 0.273395,-0.03267 0.404061,0 0.988824,0.247206 -0.07819,0.202031 0.707107,0.202031 0.101015,0 0.209255,-0.03752 0.303046,0 0.08843,0.03537 0.122787,0.149202 0.20203,0.202031 0.02802,0.01868 0.0709,-0.01506 0.101015,0 0.04259,0.0213 0.05842,0.07972 0.101016,0.101015 0.04214,0.02107 0.178513,-0.02352 0.20203,0 0.02381,0.02381 0.03367,0.101015 0,0.101015 -0.03367,0 0,-0.06734 0,-0.101015 0,-0.134687 0,-0.269374 0,-0.404061 0,-0.06734 0,-0.134687 0,-0.202031 0,-0.134687 -0.01671,-0.270414 0,-0.404061 0.01722,-0.13776 0.07379,-0.267925 0.101015,-0.404061 0.0066,-0.03302 0,-0.06734 0,-0.101015 0.03367,-0.134687 0.06734,-0.269374 0.101016,-0.404061 0.03367,-0.134687 0.0838,-0.266301 0.101015,-0.404061 0.08264,-0.661125 -0.11785,-0.151525 0.101015,-0.808122 0.02381,-0.07143 0.07305,-0.132123 0.101015,-0.202031 0.03955,-0.09886 0.06147,-0.204182 0.101016,-0.303045 0.02796,-0.06991 0.08033,-0.129636 0.101015,-0.202031 0.04717,-0.165087 0.05385,-0.339989 0.101015,-0.505076 0.02069,-0.0724 0.07136,-0.132826 0.101015,-0.202031 0.07143,-0.1666664 0.152216,-0.3307248 0.202031,-0.505076 0.0185,-0.064752 -0.02501,-0.1395036 0,-0.2020305 0.04509,-0.1127219 0.147736,-0.1944576 0.20203,-0.3030457 0.316172,-0.6323425 0.110139,-0.3304151 0.303046,-0.9091373 0.02381,-0.071429 0.07305,-0.1321234 0.101015,-0.2020305 0.07909,-0.1977274 0.12294,-0.4083642 0.202031,-0.6060916 0.02796,-0.069907 0.06734,-0.134687 0.101015,-0.2020305 0.03367,-0.067343 0.05925,-0.1393835 0.101015,-0.2020305 0.02642,-0.039621 0.08947,-0.054818 0.101016,-0.1010152 0.0245,-0.097999 -0.04518,-0.212695 0,-0.3030458 0.0213,-0.042592 0.06734,0.067343 0.101015,0.1010153 0,-0.067343 0,-0.134687 0,-0.2020305 0,-0.033672 -0.03367,0.1010152 0,0.1010152 0.04762,0 0.07972,-0.058423 0.101015,-0.1010152 0.01506,-0.030117 -0.03367,-0.1010153 0,-0.1010153 0.03367,0 0.03367,0.1010153 0,0.1010153 -0.03367,0 0,-0.1346871 0,-0.1010153 0,0.269374 0,0.538748 0,0.808122 0,0.7071068 0,1.4142136 0,2.1213204 0,0.1010152 0,0.2020305 0,0.3030457 0,0.134687 0.01671,0.2704141 0,0.4040611 -0.01722,0.1377599 -0.0838,0.2663009 -0.101015,0.4040609 -0.01671,0.133647 0.01905,0.270728 0,0.404061 -0.01506,0.105409 -0.07519,0.199746 -0.101015,0.303046 -0.0082,0.03267 0,0.06734 0,0.101015 0,0.101015 0,0.202031 0,0.303046 0,0.168359 0,0.336717 0,0.505076 0,0.03367 0,-0.134687 0,-0.101015 0,0.06734 0,0.134687 0,0.20203 0,0.03367 -0.03367,-0.101015 0,-0.101015 0.03367,0 0,0.06734 0,0.101015 0,0.03367 0.03367,0.101016 0,0.101016 -0.03367,0 -0.03367,-0.101016 0,-0.101016 0.03367,0 0,0.06734 0,0.101016 0,0.03367 0,0.06734 0,0.101015 0,0.03367 0,0.06734 0,0.101015 0,0.03367 0.03367,0.101015 0,0.101015 -0.03367,0 -0.03367,-0.101015 0,-0.101015 0.03367,0 0,0.06734 0,0.101015 0,0.03367 0.03367,0.101016 0,0.101016 -0.03367,0 0,-0.134687 0,-0.101016 0,0.101016 0,0.202031 0,0.303046 0,0.06734 -0.04762,0.154412 0,0.202031 0.03367,0.03367 0.05842,-0.122311 0.101015,-0.101016 0.06734,0.03367 0.101015,0.126739 0.101015,0.202031 0,0.04762 -0.06734,0.134687 -0.101015,0.101015 -0.03367,-0.03367 0.0534,-0.101015 0.101015,-0.101015 0.04762,0 0.05842,0.07972 0.101015,0.101015 0.03012,0.01506 0.06734,0 0.101016,0 0.03367,0 0.06734,0 0.101015,0 0.169638,0 0.152486,0.02381 0.303046,-0.20203 0.01868,-0.02802 0,-0.06734 0,-0.101016 0.101015,-0.03367 0.227753,-0.02572 0.303046,-0.101015 0.07529,-0.07529 0.02572,-0.227753 0.101015,-0.303046 0.04762,-0.04762 0.148155,0.04041 0.20203,0 0.09712,-0.07284 0.129188,-0.205921 0.202031,-0.303045 0.02857,-0.0381 0.06734,-0.06734 0.101015,-0.101016 0.06734,-0.06734 0.116847,-0.159438 0.202031,-0.20203 0.06023,-0.03012 0.164675,0.05603 0.20203,0 0.05603,-0.08405 -0.08405,-0.247013 0,-0.303046 0.0886,-0.05906 0.199746,0.12684 0.303046,0.101015 0.0029,-7.23e-4 0.123301,-0.303045 0.20203,-0.303045 0.04762,0 0.101016,0.148634 0.101016,0.101015 0,-0.07529 -0.154255,-0.148791 -0.101016,-0.202031 0.05324,-0.05324 0.130602,0.07721 0.202031,0.101016 0.03194,0.01065 0.101015,0.03367 0.101015,0 0,-0.04762 -0.101015,-0.0534 -0.101015,-0.101016 0,-0.03367 0.06734,0 0.101015,0 0.03367,0 0.06734,0 0.101015,0 0.03367,0 0.07721,-0.02381 0.101016,0 0.02381,0.02381 0,0.06734 0,0.101016 0,0.06734 0,0.134687 0,0.20203 0,0.538748 0,1.077496 0,1.616244 0,0.202031 0,0.404061 0,0.606092 0,0.03367 0.03367,0.101015 0,0.101015 -0.03367,0 -0.02381,-0.07721 0,-0.101015 0.02381,-0.02381 0.06734,0 0.101015,0 0.134687,0 0.269374,0 0.404061,0 0.57242,0 1.144839,0 1.717259,0 1.14484,0 2.289679,0 3.434519,0 0.269374,0 0.538748,0 0.808122,0 0.03367,0 0.06734,0 0.101015,0 0.03367,0 0.08596,0.03012 0.101015,0 0.03012,-0.06023 -0.04762,-0.154412 0,-0.202031 0.03367,-0.03367 0.05842,0.07972 0.101016,0.101015 0.03012,0.01506 0.134687,0 0.101015,0 -0.06734,0 -0.136698,-0.01633 -0.202031,0 -0.07304,0.01826 -0.134687,0.06734 -0.20203,0.101016 -0.134687,0.06734 -0.278767,0.118501 -0.404061,0.20203 -0.07924,0.05283 -0.109636,0.178932 -0.202031,0.202031 -0.07304,0.01826 -0.134687,-0.134687 -0.20203,-0.101016 -0.108588,0.05429 -0.09344,0.248752 -0.202031,0.303046 -0.120467,0.06023 -0.271206,-0.02214 -0.404061,0 -0.07427,0.01238 -0.134687,0.06734 -0.20203,0.101016 -0.06734,0.03367 -0.130602,0.07721 -0.202031,0.101015 -0.131707,0.0439 -0.267925,0.07379 -0.404061,0.101015 -0.03302,0.0066 -0.07721,-0.02381 -0.101015,0 -0.05324,0.05324 -0.04778,0.148791 -0.101015,0.202031 -0.269374,0.269374 -0.134687,0 -0.404061,0 -0.03367,0 0.02381,0.07721 0,0.101015 -0.05324,0.05324 -0.126738,0.101015 -0.202031,0.101015 -0.03367,0 0.03012,-0.08596 0,-0.101015 -0.06023,-0.03012 -0.134687,0 -0.20203,0 -0.03367,0 0.134687,0 0.101015,0 -0.06734,0 -0.134687,0 -0.202031,0 -0.03367,0 0.134687,0 0.101016,0 -0.06734,0 -0.154412,-0.04762 -0.202031,0 -0.03367,0.03367 0.07972,0.05842 0.101015,0.101015 0.01506,0.03012 0.03367,0.101015 0,0.101015 -0.04762,0 -0.05842,-0.07972 -0.101015,-0.101015 -0.03012,-0.01506 -0.101015,-0.03367 -0.101015,0 0,0.07529 0.04778,0.148791 0.101015,0.202031 0.02381,0.02381 0,-0.134687 0,-0.101016 0,0.06734 -0.03736,0.145998 0,0.202031 0.04176,0.06265 0.130602,0.07721 0.202031,0.101015 0.03194,0.01065 0.101015,-0.03367 0.101015,0 0,0.106479 -0.134687,0.202031 -0.101015,0.303046 0.0213,0.06389 0.138143,-0.0213 0.20203,0 0.04518,0.01506 0.06734,0.06734 0.101016,0.101015 0.03367,0.03367 0.101015,0.0534 0.101015,0.101015 0,0.04762 -0.122311,0.05842 -0.101015,0.101016 0.03367,0.06734 0.168358,0.03367 0.20203,0.101015 0.0213,0.04259 -0.101015,0.0534 -0.101015,0.101015 0,0.295577 0.14166,-0.01972 0.20203,0.101015 0.03012,0.06023 -0.0213,0.138143 0,0.202031 0.0769,0.230696 0.202031,-0.06244 0.202031,0.303046 0,0.04762 -0.101015,-0.148635 -0.101015,-0.101016 0,0.07529 0.03367,0.168359 0.101015,0.202031 0.04259,0.0213 0.06734,-0.134687 0.101015,-0.101015 -0.01972,0.01972 -0.175332,0.127713 -0.101015,0.20203 0.02381,0.02381 0.07721,-0.02381 0.101015,0 0.02381,0.02381 0,0.06734 0,0.101015 0,0.03367 0.03367,0.101016 0,0.101016 -0.03367,0 0.03012,-0.08596 0,-0.101016 -0.06023,-0.03012 -0.134687,0 -0.20203,0 -0.101016,0 -0.202031,0 -0.303046,0 -0.37039,0 -0.740779,0 -1.111168,0 -0.03367,0 0.06734,0 0.101015,0 0.134687,0 0.269374,0 0.404061,0 0.168359,0 0.336718,0 0.505077,0 0.135593,0 0.06644,0 0.20203,0 0.03367,0 0.101015,-0.03367 0.101015,0 0,0.03367 -0.134687,0 -0.101015,0 0.06734,0 0.134687,0 0.202031,0 0.03367,0 -0.101016,-0.03367 -0.101016,0 0,0.07529 0.04778,0.148791 0.101016,0.202031 0.02381,0.02381 -0.03367,-0.101015 0,-0.101015 0.03367,0 0,0.06734 0,0.101015 0,0.03367 0.03367,0.101015 0,0.101015 -0.03367,0 0,-0.134687 0,-0.101015 0,0.134687 0,0.269374 0,0.404061 0,0.101015 0,0.20203 0,0.303046 0,0.03367 0.0082,0.06835 0,0.101015 -0.02583,0.1033 -0.03713,0.217862 -0.101016,0.303046 -0.04518,0.06023 -0.148791,0.04778 -0.20203,0.101015 -0.02381,0.02381 0.08596,-0.03012 0.101015,0 0.03012,0.06023 0.04762,0.154411 0,0.20203 -0.04762,0.04762 -0.134687,0 -0.20203,0 -0.03367,0 0.08596,-0.03012 0.101015,0 0.03012,0.06023 0.04762,0.154412 0,0.202031 -0.03367,0.03367 -0.05842,-0.07972 -0.101015,-0.101015 -0.03012,-0.01506 -0.101016,-0.03367 -0.101016,0 0,0.07529 0.04778,0.148791 0.101016,0.20203 0.02381,0.02381 0.02381,-0.07721 0,-0.101015 -0.04762,-0.04762 -0.202031,0.06734 -0.202031,0 0,-0.03367 0.116074,-0.03012 0.101015,0 -0.04259,0.08518 -0.134687,0.134687 -0.20203,0.20203 -0.03367,0.03367 0.06734,-0.134687 0.101015,-0.101015 0.03367,0.03367 -0.06734,0.06734 -0.101015,0.101015 -0.03367,0.03367 -0.06734,0.134687 -0.101016,0.101016 -0.03367,-0.03367 0.134687,-0.134687 0.101016,-0.101016 -0.06734,0.06734 -0.134687,0.134687 -0.202031,0.202031 -0.03367,0.03367 0.101015,-0.0534 0.101015,-0.101015 0,-0.03367 -0.06734,0 -0.101015,0 -0.03367,0 -0.101015,-0.03367 -0.101015,0 0,0.04762 0.07972,0.05842 0.101015,0.101015 0.01506,0.03012 0,0.06734 0,0.101015"
       id="path4289"
       inkscape:connector-curvature="0" />
    <path
       style="fill:none;fill-rule:evenodd;stroke:#000000;stroke-width:1px;stroke-linecap:butt;stroke-linejoin:miter;stroke-opacity:1"
       d="m 5.9599,43.050253 c -0.134687,0.06734 -0.269374,0.134687 -0.404061,0.20203 -0.033672,0.03367 -0.061394,0.0746 -0.1010153,0.101015 -0.062647,0.04176 -0.1393835,0.05925 -0.2020305,0.101016 -0.039621,0.02641 -0.054818,0.08947 -0.1010152,0.101015 -0.097999,0.0245 -0.212695,-0.04518 -0.3030458,0 -0.067343,0.03367 -0.047775,0.148791 -0.1010152,0.20203 -0.05324,0.05324 -0.1393835,0.05925 -0.2020305,0.101016 -0.115348,0.0769 -0.119941,0.20203 -0.3030458,0.20203 -0.047619,0 -0.05584,-0.116074 -0.1010153,-0.101015 -0.090351,0.03012 -0.1227876,0.149202 -0.2020305,0.20203 -0.028017,0.01868 -0.070898,-0.01506 -0.1010152,0 -0.042592,0.0213 -0.053396,0.101016 -0.1010153,0.101016 -0.047619,0 -0.053396,-0.101016 -0.1010152,-0.101016 -0.047619,0 -0.079719,0.05842 -0.1010153,0.101016 -0.015058,0.03012 0.033672,0.101015 0,0.101015 -0.047619,0 -0.053396,-0.101015 -0.1010152,-0.101015 -0.033672,0 0.02381,0.0772 0,0.101015 -0.02381,0.02381 -0.1010153,0.03367 -0.1010153,0 0,-0.03367 0.067343,0 0.1010153,0 0.067344,0 0.1395036,0.02501 0.2020305,0 0.1127219,-0.04509 0.2020305,-0.134687 0.3030457,-0.202031 0.2020305,-0.03367 0.4084913,-0.04712 0.6060916,-0.101015 0.1749386,-0.04771 0.3367175,-0.134687 0.5050762,-0.20203 0.2020305,-0.134687 0.3757413,-0.327278 0.6060916,-0.404061 0.2892636,-0.09642 0.6088662,-0.04803 0.9091372,-0.101016 0.2734394,-0.04825 0.5417405,-0.123683 0.8081221,-0.20203 0.6687301,0.06666 1.0549603,-0.531706 1.616244,-0.707107 0.2910312,-0.09095 0.6123321,-0.03118 0.9091373,-0.101015 0.2800441,-0.06589 0.5351941,-0.21207 0.8081221,-0.303046 2.1222,-0.7074 -0.894941,0.426838 1.515229,-0.606092 0.32305,-0.262378 0.756783,-0.155385 1.111168,-0.303045 1.701421,-0.708926 -0.121516,-0.114352 1.212183,-0.707107 0.126866,-0.05638 0.285013,-0.02959 0.404061,-0.101015 0.225507,-0.135305 0.390646,-0.354265 0.606091,-0.505077 0.853418,-0.597392 -0.05044,0.246169 0.808122,-0.505076 0.738542,-0.646224 0.104392,-0.134218 0.707107,-0.909137 0.116941,-0.150353 0.269374,-0.269374 0.404061,-0.404061 0.03367,-0.03367 0.07972,-0.05842 0.101015,-0.101015 0.08109,-0.162185 0.09664,-0.357524 0.202031,-0.505077 0.07057,-0.09879 0.235702,-0.101015 0.303046,-0.20203 0.675387,-1.013081 -0.190201,-0.112845 0.20203,-0.505077 0.03367,-0.03367 0.0746,-0.06139 0.101015,-0.101015 0.04177,-0.06265 0.04778,-0.148791 0.101016,-0.20203 0.02381,-0.02381 0.0772,0.02381 0.101015,0 0.02381,-0.02381 -0.03367,-0.101016 0,-0.101016 0.03367,0 0,0.06734 0,0.101016 0,0.03367 0,0.06734 0,0.101015 0,0.134687 0,0.269374 0,0.404061 0,0.101015 0.03194,0.207214 0,0.303046 -0.01065,0.03194 -0.09285,-0.03267 -0.101015,0 -0.03267,0.130665 0,0.269374 0,0.404061 0,0.06734 0,0.134687 0,0.20203 0,0.57242 0,1.14484 0,1.71726 0,0.168358 0,0.336717 0,0.505076 0,0.06734 -0.0213,0.138143 0,0.20203 0.1051,0.315301 0.06734,-0.03367 0.20203,0.101016 0.04762,0.04762 -0.06734,0.20203 0,0.20203 0.04762,0 0.06734,-0.134687 0.101015,-0.101015 0.04762,0.04762 -0.0213,0.138143 0,0.20203 0.124825,0.374475 0.101016,-0.02789 0.101016,0 0,0.06734 -0.0213,0.138143 0,0.202031 0.01506,0.04518 0.0534,0.101015 0.101015,0.101015 0.03367,0 -0.02381,-0.124825 0,-0.101015 0.394236,0.394236 -0.02338,0.05425 0.101015,0.303046 0.0145,0.029 0.194511,0.179472 0.202031,0.20203 0.02129,0.06389 -0.0213,0.138143 0,0.202031 0.01506,0.04518 0.08596,0.05584 0.101015,0.101015 0,0.45985 -0.04762,0.0058 0.101015,0.303046 0.03012,0.06023 -0.03012,0.141796 0,0.20203 0.0213,0.04259 0.0534,0.101015 0.101015,0.101015 0.03367,0 -0.03367,-0.101015 0,-0.101015 0.06734,0 -0.06734,0.202031 0,0.202031 0.04762,0 0.07972,-0.05842 0.101016,-0.101016 0.04762,-0.09524 0.03713,-0.217862 0.101015,-0.303045 0.04518,-0.06023 0.148791,-0.04778 0.20203,-0.101016 0.08826,-0.08826 0.162582,-0.426178 0.202031,-0.505076 0.08781,-0.17561 0.230127,-0.32278 0.303046,-0.505076 0.01251,-0.03126 -0.121219,0.02694 -0.101016,0 0.114286,-0.152381 0.282122,-0.257733 0.404061,-0.404061 0.0482,-0.05784 0.06734,-0.134687 0.101016,-0.202031 0.06734,-0.134687 0.107961,-0.286474 0.20203,-0.404061 0.04704,-0.05879 0.148791,-0.04777 0.202031,-0.101015 0.121897,-0.121897 0.223334,-0.345653 0.303045,-0.505076 0.03367,-0.06734 0.04778,-0.148791 0.101016,-0.202031 0.02381,-0.02381 0.0772,0.02381 0.101015,0 0.05324,-0.05324 0.04778,-0.14879 0.101015,-0.20203 0.02381,-0.02381 0.07721,0.02381 0.101015,0 0.04762,-0.04762 -0.06734,-0.202031 0,-0.202031 0.04762,0 0.0534,0.101016 0.101016,0.101016 0.03367,0 -0.02381,-0.07721 0,-0.101016 0.02381,-0.02381 0.06734,0 0.101015,0 0.03367,0 0.101015,-0.03367 0.101015,0 0,0.04762 -0.134687,0.06734 -0.101015,0.101016 0.04762,0.04762 0.148156,-0.04041 0.20203,0 0.09713,0.07284 0.104907,0.230202 0.202031,0.303045 0.05387,0.04041 0.148156,-0.04041 0.202031,0 0.09712,0.07284 0.116184,0.2172 0.20203,0.303046 0.119048,0.119048 0.277358,0.192181 0.404061,0.303046 0.143348,0.125429 0.260713,0.278631 0.404061,0.404061 0.86167,0.753961 0.0088,0.005 0.707107,0.404061 0.146176,0.08353 0.277358,0.192181 0.404061,0.303046 0.143348,0.125429 0.233694,0.318877 0.404061,0.404061 0.183194,0.0916 0.422897,0.0094 0.606091,0.101015 0.170367,0.08518 0.233694,0.318877 0.404061,0.404061 0.183195,0.0916 0.419633,0.01626 0.606092,0.101015 0.196279,0.08922 0.322244,0.289791 0.505076,0.404061 0.0903,0.05643 0.207808,0.0534 0.303046,0.101015 0.24281,0.121406 0.464296,0.282656 0.707107,0.404062 1.133285,0.566642 -0.764298,-0.537757 0.707107,0.303045 1.152285,0.768191 -0.455036,-0.22242 0.606091,0.202031 0.08843,0.03537 0.12584,0.144887 0.202031,0.20203 0.06023,0.04518 0.139383,0.05925 0.20203,0.101016 0.03962,0.02641 0.0534,0.101015 0.101015,0.101015 0.04762,0 0.05842,-0.07972 0.101016,-0.101015 0.03012,-0.01506 0.101015,-0.03367 0.101015,0 0,0.04762 -0.101015,0.0534 -0.101015,0.101015 0,0.03367 0.06734,0 0.101015,0 0.03367,0 0.08596,0.03012 0.101015,0 0.105047,-0.210093 -0.100939,-0.277697 -0.20203,-0.404061 -0.07584,-0.0948 -0.147737,-0.194458 -0.202031,-0.303046 -0.04762,-0.09524 -0.03713,-0.217862 -0.101015,-0.303046 -0.04518,-0.06023 -0.163293,-0.03645 -0.202031,-0.101015 -0.07143,-0.119048 -0.05711,-0.272353 -0.101015,-0.404061 -0.02381,-0.07143 -0.06734,-0.134687 -0.101015,-0.202031 -0.03367,-0.06734 -0.06734,-0.134687 -0.101015,-0.20203 -0.03367,-0.06734 -0.08625,-0.1282 -0.101016,-0.202031 -0.01981,-0.09905 0.05603,-0.218996 0,-0.303045 -0.03736,-0.05603 -0.154411,0.04762 -0.20203,0 -0.03367,-0.03367 0.08596,-0.05584 0.101015,-0.101016 0.163549,-0.490645 -0.08177,-0.141902 0,-0.101015 0.06023,0.03012 0.134687,0 0.202031,0 0.06734,0 0.134687,0 0.20203,0 0.303046,0 0.606092,0 0.909137,0 0.202031,0 0.404061,0 0.606092,0 0.03367,0.06734 0.02797,0.18377 0.101015,0.202031 2.222336,0.555584 -0.317476,-0.317477 1.111168,0 1.845165,0.410036 -0.79067,0.101015 1.010152,0.101015 0.171693,0 0.336153,0.0703 0.505077,0.101015 0.201513,0.03664 0.409155,0.04475 0.606091,0.101015 0.04579,0.01308 0.0534,0.101016 0.101016,0.101016 0.171692,0 0.334433,-0.08205 0.505076,-0.101016 0.133863,-0.01487 0.269374,0 0.404061,0 0.454707,0 -0.098,-0.01633 0.606091,0.101016 0.06643,0.01107 0.134687,0 0.202031,0 0.101015,0 0.20203,0 0.303046,0 0.303045,0 0.606091,0 0.909137,0 0.03367,0 -0.134687,0 -0.101015,0 0.134687,0 0.269374,0 0.404061,0 0.03367,0 0.101015,-0.03367 0.101015,0 0,0.03367 -0.101015,0.03367 -0.101015,0 0,-0.04762 0.143607,-0.07972 0.101015,-0.101016 -0.153567,-0.07678 -0.339433,-0.05584 -0.505076,-0.101015 -0.296108,-0.08076 -1.671589,-0.584343 -1.71726,-0.606091 -0.354532,-0.168825 -0.658931,-0.430481 -1.010152,-0.606092 -0.190476,-0.09524 -0.407613,-0.124844 -0.606092,-0.20203 -0.407969,-0.158655 -0.813686,-0.323942 -1.212183,-0.505077 -0.336717,-0.168358 -0.673435,-0.336717 -1.010152,-0.505076 -0.06734,-0.06734 -0.119024,-0.155339 -0.202031,-0.20203 -0.45936,-0.258391 -0.947339,-0.462554 -1.414213,-0.707107 -0.240477,-0.125964 -0.464297,-0.282656 -0.707107,-0.404061 -0.03012,-0.01506 -0.06734,0 -0.101015,0 -0.101016,-0.03367 -0.21445,-0.04195 -0.303046,-0.101015 -0.118865,-0.07924 -0.175271,-0.239159 -0.303046,-0.303046 -0.04259,-0.0213 -0.05842,0.122311 -0.101015,0.101015 -0.06734,-0.03367 -0.04778,-0.148791 -0.101015,-0.20203 -0.02381,-0.02381 0.03367,0.101015 0,0.101015 -0.07529,0 -0.148791,-0.04778 -0.202031,-0.101015 -0.02381,-0.02381 0.06734,0 0.101015,0"
       id="path4293"
       inkscape:connector-curvature="0" />
    <path
       style="fill:none;fill-rule:evenodd;stroke:#000000;stroke-width:1px;stroke-linecap:butt;stroke-linejoin:miter;stroke-opacity:1"
       d="m 14.950258,25.473598 c -0.134687,0.03367 -0.267925,0.07379 -0.404061,0.101016 -0.03302,0.0066 -0.06734,0 -0.101016,0 -0.20203,0 -0.404061,0 -0.606091,0 -0.101015,0 -0.209256,-0.03752 -0.303046,0 -0.08843,0.03537 -0.107265,0.192553 -0.20203,0.20203 -0.270123,0.02701 -0.536652,-0.101015 -0.808122,-0.101015 -0.07529,0 -0.127763,0.08864 -0.202031,0.101015 -0.132854,0.02214 -0.269374,0 -0.404061,0 -0.168359,0 -0.336717,0 -0.505076,0 -0.471405,0 -0.942809,0 -1.414214,0 -0.1346869,0 -0.298888,0.08414 -0.4040608,0 C 9.4880395,25.689916 9.5761285,25.485555 9.4954339,25.372583 9.3975774,25.235584 9.2104205,25.188585 9.0913729,25.069537 8.9723253,24.95049 8.8893424,24.800163 8.7883271,24.665476 8.6199684,24.564461 8.429996,24.492871 8.2832509,24.36243 7.2644902,23.456865 8.3392349,24.247784 7.6771593,23.453293 7.5994376,23.360027 7.4751288,23.318606 7.3741136,23.251263 7.1720831,23.049232 6.9394506,22.873743 6.7680221,22.645171 c -0.040406,-0.05388 0.040406,-0.148156 0,-0.20203 -0.072843,-0.09713 -0.2357023,-0.101016 -0.3030458,-0.202031 -0.07701,-0.115515 -0.014288,-0.295651 -0.1010153,-0.404061 -0.066517,-0.08315 -0.2482625,-0.0097 -0.3030457,-0.101015 -0.2164613,-0.360769 0.054115,-0.288615 0,-0.505076 -0.025825,-0.103301 -0.07519,-0.199746 -0.1010153,-0.303046 -0.00817,-0.03267 0,-0.06734 0,-0.101015 0,-0.101016 0,-0.202031 0,-0.303046 0,-0.168359 0,-0.336718 0,-0.505076 0,-0.03367 -0.018678,-0.073 0,-0.101016 0.052829,-0.07924 0.1448877,-0.12584 0.2020305,-0.20203 0.1374074,-0.18321 0.055618,-0.280347 0.3030458,-0.404061 0.060234,-0.03012 0.1481557,0.04041 0.2020305,0 0.097124,-0.07284 0.116184,-0.2172 0.2020305,-0.303046 0.05324,-0.05324 0.1417967,-0.05584 0.2020305,-0.101015 0.076191,-0.05714 0.12584,-0.144888 0.2020305,-0.202031 0.060234,-0.04518 0.1374679,-0.06228 0.2020305,-0.101015 0.1041042,-0.06246 0.1903239,-0.156942 0.3030458,-0.202031 0.062527,-0.02501 0.1417966,0.03012 0.2020305,0 0.085184,-0.04259 0.134687,-0.134687 0.2020305,-0.20203 0.033672,-0.03367 0.053396,-0.101015 0.1010153,-0.101015 0.047619,0 0.053396,0.101015 0.1010152,0.101015 0.047619,0 0.058423,-0.07972 0.1010153,-0.101015 0.030117,-0.01506 0.1010152,-0.03367 0.1010152,0 0,0.03367 -0.067344,0 -0.1010152,0 -0.1010153,0 -0.2020305,0 -0.3030458,0 -0.3030458,0 -0.6060915,0 -0.9091373,0 -0.3411979,0 -0.2530242,0.02501 -0.7071068,-0.202031 C 6.4574034,17.84316 6.3487922,17.78127 6.2629458,17.695424 6.1770993,17.609577 6.1467617,17.478224 6.0609153,17.392378 5.9418676,17.27333 5.7578695,17.224019 5.6568543,17.089332 5.5480575,16.94427 5.5428844,16.742765 5.4548237,16.584256 c -0.4395156,-0.791128 -0.2359112,0.01569 -0.404061,-0.909137 -0.036639,-0.201514 -0.05134,-0.40739 -0.1010152,-0.606092 -0.05165,-0.2066 -0.1856973,-0.39376 -0.2020305,-0.606091 -0.018261,-0.237394 0.1010152,-0.469012 0.1010152,-0.707107 0,-0.171693 -0.086757,-0.333977 -0.1010152,-0.505077 -0.019574,-0.234888 0,-0.471404 0,-0.707106 0,-0.269374 0,-0.538748 0,-0.808122 0,-0.269374 -0.056442,-0.544728 0,-0.808122 C 4.8070459,10.650533 5.4735813,9.6502842 5.555839,9.513188 5.6955093,9.2804041 5.8002288,9.0256291 5.9599,8.8060813 6.0719327,8.6520363 6.229274,8.5367072 6.363961,8.4020202 6.5323198,8.2336615 6.6739821,8.0334826 6.8690373,7.896944 7.0175869,7.7929592 7.2186262,7.7882059 7.3741136,7.6949135 7.5589928,7.5839859 7.6765662,7.3645338 7.8791898,7.2908524 c 0.189867,-0.069043 0.4056212,0.025059 0.6060916,0 0.074711,-0.00934 0.134687,-0.067344 0.2020305,-0.1010152 0.1683587,-0.033672 0.3333833,-0.1010153 0.5050763,-0.1010153 0.1388321,0 0.2660779,0.085684 0.404061,0.1010153 0.167329,0.018592 0.3367175,0 0.5050758,0 0.06734,0 0.135995,0.013207 0.202031,0 0.719563,-0.1439126 -0.1716,-0.076501 0.707107,-0.2020305 0.1,-0.014286 0.205046,0.0245 0.303046,0 0.0462,-0.011549 0.0568,-0.08333 0.101015,-0.1010153 1.058024,-0.4232097 0.09743,0.1037044 0.505076,-0.2020305 0.09712,-0.072843 0.194458,-0.1477364 0.303046,-0.2020305 0.03012,-0.015059 0.07408,0.020203 0.101015,0 0.114286,-0.085714 0.170406,-0.2499899 0.303046,-0.3030458 0.06991,-0.027963 0.134687,0.1346871 0.20203,0.1010153 0.108588,-0.054294 0.116184,-0.2171993 0.202031,-0.3030458 0.05324,-0.05324 0.139383,-0.059251 0.20203,-0.1010152 0.03962,-0.026414 0.0534,-0.1010153 0.101016,-0.1010153 0.04762,0 0.06734,0.134687 0.101015,0.1010153 0.04762,-0.047619 -0.04762,-0.1544115 0,-0.2020305 0.04762,-0.047619 0.141796,0.030117 0.20203,0 0.03012,-0.015059 -0.03367,-0.1010153 0,-0.1010153 0.04762,0 0.05842,0.079719 0.101016,0.1010153 0.03012,0.015058 0.101015,-0.033672 0.101015,0 0,0.033672 -0.08596,0.030117 -0.101015,0 -0.03012,-0.060234 0,-0.134687 0,-0.2020305 0,-0.033672 -0.01506,0.1311321 0,0.1010152 0.04762,-0.095238 0.06147,-0.2041821 0.101015,-0.3030457 0.02796,-0.069907 0.101015,-0.1267382 0.101015,-0.2020306 0,-0.047619 -0.112564,-0.054818 -0.101015,-0.1010152 0.02944,-0.1177804 0.182071,-0.1832924 0.20203,-0.3030458 0.0175,-0.1050306 -0.11852,-0.1980151 -0.101015,-0.3030457 0.01996,-0.1197534 0.168678,-0.1863118 0.202031,-0.3030458 0.037,-0.1295048 -0.02642,-0.2719895 0,-0.404061 0.0093,-0.046694 0.07972,-0.058423 0.101015,-0.1010153 0.399428,-0.7988562 -0.314031,0.2556186 0.404061,-0.6060915 0.07772,-0.093266 0.09662,-0.2428119 0.20203,-0.3030458 0.149072,-0.085183 0.33851,-0.059374 0.505077,-0.1010152 0.450793,-0.1126984 0.223037,-0.148841 0.808122,-0.2020305 0.201201,-0.018291 0.404061,0 0.606091,0 0.269374,0 0.538748,0 0.808122,0 0.538748,0 1.077496,0 1.616244,0 0.235703,0 0.471405,0 0.707107,0 0.269374,0 0.540593,-0.031474 0.808122,0 0.308312,0.036272 0.602923,0.1509948 0.909137,0.2020305 0.300762,0.050127 0.614971,0.020788 0.909138,0.1010152 0.09188,0.025059 0.112856,0.1685902 0.20203,0.2020305 0.902911,0.3385915 0.305064,-0.1005667 1.212183,0.1010153 0.118515,0.026337 0.183998,0.178221 0.303046,0.2020305 0.07383,0.014766 0.127763,-0.1133932 0.202031,-0.1010152 0.148535,0.024756 0.257972,0.1655083 0.404061,0.2020305 0.03267,0.00817 -0.03367,-0.1010153 0,-0.1010153 0.106479,0 0.199745,0.07519 0.303045,0.1010153 0.03267,0.00817 0.06734,0 0.101016,0 0.101015,0 0.20203,0 0.303045,0 0.101016,0 0.208463,0.035469 0.303046,0 1.438514,-0.5394427 -0.495572,-0.1033912 1.111168,-0.5050763 0.198702,-0.049676 0.404578,-0.064376 0.606091,-0.1010153 0.168924,-0.030713 0.336153,-0.070302 0.505077,-0.1010152 0.397915,-0.072348 1.033697,-0.1727601 1.414213,-0.2020305 0.167863,-0.012913 0.337553,0.016752 0.505077,0 0.17084,-0.017084 0.333976,-0.086757 0.505076,-0.1010153 0.234888,-0.019574 0.471404,0 0.707107,0 0.808122,0 1.616244,0 2.424366,0 0.437733,0 0.875465,0 1.313198,0 0.101015,0 0.202031,0 0.303046,0 0.136872,0 0.292398,-0.010648 0.404061,0.1010153 0.07529,0.075292 0.0534,0.2078076 0.101015,0.3030457 0.530927,0.7963905 0.04031,-0.060936 0.202031,0.5050763 0.04981,0.1743512 0.179539,0.3251486 0.20203,0.5050763 0.01321,0.1056572 -0.08781,0.1973886 -0.101015,0.3030457 -0.02088,0.1670587 0,0.3367176 0,0.5050763 0,0.067344 0,0.134687 0,0.2020305 0,0.134687 0.01905,0.2707277 0,0.404061 -0.01506,0.1054093 -0.06734,0.2020306 -0.101015,0.3030458 -0.124825,0.3744743 -0.0534,0.2078077 -0.202031,0.5050763 -0.03367,0.067344 -0.07721,0.1306019 -0.101015,0.2020305 -0.01065,0.031944 0.02381,0.077206 0,0.1010152 -0.05324,0.05324 -0.148791,0.047776 -0.202031,0.1010153 -0.02381,0.023809 0.124825,-0.02381 0.101016,0 -0.05324,0.05324 -0.148791,0.047776 -0.202031,0.1010153 -0.02381,0.023809 0.101015,-0.033672 0.101015,0 0,0.075292 -0.03367,0.1683587 -0.101015,0.2020305 -0.04259,0.021296 -0.134687,-0.067343 -0.101015,-0.1010153 0.03367,-0.033672 0.07972,0.058423 0.101015,0.1010153 0.107886,0.2157723 -0.20203,-0.00983 -0.20203,0.2020305 0,0.033672 0.101015,-0.033672 0.101015,0 0,0.033672 -0.08596,-0.030117 -0.101015,0 -0.03012,0.060234 0,0.134687 0,0.2020305 0,0.033672 -0.03012,-0.085957 0,-0.1010153 C 35.343785,6.7915533 35.56,6.7595358 35.7594,6.6847609 c 0.0705,-0.026437 0.127763,-0.088637 0.202031,-0.1010152 0.132854,-0.022142 0.269374,0 0.404061,0 0.134687,0 0.269374,0 0.404061,0 0.370389,0 0.740778,0 1.111167,0 0.202031,0 0.404061,0 0.606092,0 0.168359,0 0.35033,-0.06632 0.505076,0 0.111589,0.047824 0.116184,0.2171993 0.202031,0.3030457 0.119047,0.1190476 0.294494,0.1752183 0.404061,0.3030458 0.098,0.1143324 0.127319,0.2733169 0.20203,0.404061 0.06023,0.1054093 0.129188,0.2059216 0.202031,0.3030458 0.129362,0.1724835 0.30764,0.3122338 0.404061,0.5050762 0.109627,0.2192546 0.114032,0.478312 0.20203,0.7071068 0.08109,0.2108213 0.227075,0.3933737 0.303046,0.6060916 0.09339,0.2614881 0.134687,0.5387484 0.202031,0.8081224 0.06734,0.269374 0.16759,0.532601 0.20203,0.808122 0.03341,0.267293 -0.03147,0.540593 0,0.808122 0.250267,2.127271 0.248551,-0.154185 0.101015,1.616244 -0.01398,0.167777 0,0.336717 0,0.505076 0,0.303046 0,0.606092 0,0.909137 0,0.101016 0,0.202031 0,0.303046 0,0.101015 0.03979,0.210198 0,0.303046 -0.06632,0.154746 -0.205189,0.267062 -0.303045,0.404061 -0.318574,0.446003 -0.0662,0.167217 -0.404061,0.505076 -0.06734,0.06734 -0.134687,0.134687 -0.202031,0.202031 -0.03367,0.03367 -0.05842,0.07972 -0.101015,0.101015 -0.101015,0.03367 -0.202031,0.06734 -0.303046,0.101015 -0.03367,0.06734 -0.03837,0.160266 -0.101015,0.202031 -0.05603,0.03735 -0.134687,0 -0.202031,0 -0.03367,0 -0.0772,-0.02381 -0.101015,0 -0.02381,0.02381 0.02381,0.0772 0,0.101015 -0.04762,0.04762 -0.154411,-0.04762 -0.20203,0 -0.02381,0.02381 0.02381,0.07721 0,0.101015 -0.02381,0.02381 -0.101016,0.03367 -0.101016,0 0,-0.03367 0.124825,-0.02381 0.101016,0 -0.05324,0.05324 -0.139384,0.05925 -0.202031,0.101015 -0.03962,0.02642 -0.06734,0.06734 -0.101015,0.101016 -0.03367,0.03367 -0.05584,0.08596 -0.101016,0.101015 -0.06389,0.0213 -0.141796,-0.03012 -0.20203,0 -0.08518,0.04259 -0.12584,0.144888 -0.202031,0.20203 -0.06023,0.04518 -0.141796,0.05584 -0.20203,0.101016 -0.07619,0.05714 -0.128867,0.14106 -0.202031,0.20203 -0.129336,0.107781 -0.272594,0.197873 -0.404061,0.303046 -0.03718,0.02975 -0.06734,0.06734 -0.101015,0.101015 -0.134687,0.134687 -0.269374,0.269374 -0.404061,0.404061 -0.03367,0.03367 -0.06734,0.06734 -0.101015,0.101015 -0.101015,0.101016 -0.232169,0.179012 -0.303046,0.303046 -0.06888,0.12054 -0.02401,0.288546 -0.101015,0.404061 -0.06734,0.101016 -0.227205,0.107229 -0.303046,0.202031 -0.06652,0.08315 -0.06734,0.20203 -0.101015,0.303046 -0.03367,0.101015 -0.06734,0.20203 -0.101015,0.303045 -0.03367,0.101016 -0.0534,0.207808 -0.101016,0.303046 -0.05429,0.108588 -0.156941,0.190324 -0.20203,0.303046 -0.02501,0.06253 0.01633,0.136698 0,0.20203 -0.161249,0.644997 -0.101015,-0.450164 -0.101015,0.606092 0,1.043824 0,2.087648 0,3.131473 0,0.168358 0,0.336717 0,0.505076 0,0.06734 0.0213,0.138143 0,0.202031 -0.105101,0.3153 -0.06734,-0.03367 -0.202031,0.101015 -0.02381,0.02381 0.02381,0.07721 0,0.101015 -0.02381,0.02381 -0.101015,0.03367 -0.101015,0 0,-0.03367 0.134687,0 0.101015,0 -1.279526,0 -2.559053,0 -3.83858,0 -0.404061,0 -0.808122,0 -1.212183,0 -0.101015,0 -0.20203,0 -0.303045,0 -0.03367,0 -0.06734,0 -0.101016,0 -0.03367,0 -0.06907,0.01065 -0.101015,0 -0.07143,-0.02381 -0.130602,-0.07721 -0.20203,-0.101015 -0.03194,-0.01065 -0.06734,0 -0.101016,0 -0.06734,0 -0.138143,0.0213 -0.20203,0 -0.04518,-0.01506 -0.05842,-0.07972 -0.101015,-0.101015 -0.03012,-0.01506 -0.06734,0 -0.101016,0 -0.03367,0 -0.06734,0 -0.101015,0 -0.101015,0 -0.20203,0 -0.303046,0"
       id="path4295"
       inkscape:connector-curvature="0" />
    <path
       style="fill:#784421;stroke:#000000;stroke-width:0.05714286;stroke-linecap:square;stroke-linejoin:bevel;stroke-miterlimit:4;stroke-dasharray:0.05714286, 0.22857143;stroke-dashoffset:0;stroke-opacity:1"
       d="m 6.7246409,42.593784 c 0.050354,-0.112987 0.162164,-0.334002 0.2484661,-0.491145 0.3583715,-0.65254 1.3004545,-2.597317 1.4186493,-2.928572 0.070088,-0.196428 0.1810567,-0.421428 0.2465979,-0.5 0.065541,-0.07857 0.1924763,-0.319643 0.282078,-0.535714 0.1827165,-0.440615 0.5753732,-1.11749 0.876858,-1.511557 0.1100587,-0.143857 0.2460088,-0.371416 0.3021108,-0.505687 0.0561,-0.13427 0.154582,-0.287765 0.218845,-0.341098 0.06426,-0.05333 0.198954,-0.259704 0.299313,-0.4586 0.10036,-0.198896 0.304898,-0.466987 0.454531,-0.595757 0.149632,-0.128771 0.294585,-0.305557 0.322118,-0.392857 0.02753,-0.0873 0.17246,-0.298046 0.322059,-0.468322 0.1496,-0.170276 0.308234,-0.419383 0.352521,-0.553571 0.04429,-0.134189 0.109517,-0.24398 0.144957,-0.24398 0.03544,0 0.129574,-0.127677 0.209185,-0.283728 0.07961,-0.15605 0.23779,-0.389697 0.351507,-0.519214 0.113718,-0.129518 0.358606,-0.524162 0.544195,-0.876986 0.185589,-0.352825 0.393019,-0.721857 0.460956,-0.820072 0.06794,-0.09821 0.145958,-0.271205 0.17338,-0.384425 0.02742,-0.11322 0.109307,-0.257862 0.181968,-0.321428 0.07266,-0.06357 0.200549,-0.308432 0.284195,-0.544147 0.08365,-0.235714 0.245182,-0.621428 0.358969,-0.857142 0.487598,-1.010083 0.788701,-1.706983 0.788701,-1.825448 0,-0.0699 0.08057,-0.287518 0.179051,-0.483585 0.09848,-0.196065 0.200199,-0.46222 0.226046,-0.591454 0.02585,-0.129234 0.122059,-0.345586 0.213805,-0.480781 0.09175,-0.135196 0.167817,-0.281504 0.169045,-0.325129 0.0012,-0.04363 0.08129,-0.240032 0.177919,-0.436461 0.09663,-0.196428 0.175979,-0.397757 0.176338,-0.447397 3.57e-4,-0.04964 0.03129,-0.146069 0.06873,-0.214286 0.187104,-0.340866 0.428338,-1.262255 0.471948,-1.802602 0.02695,-0.333929 0.08203,-0.6875 0.12239,-0.785715 0.04036,-0.09821 0.101202,-0.6125 0.135196,-1.142857 0.03399,-0.530357 0.08011,-1.18125 0.102475,-1.446428 l 0.04067,-0.482143 -0.541808,0 c -0.49419,0 -0.541809,0.01256 -0.541809,0.142857 0,0.07857 -0.03214,0.142857 -0.07143,0.142857 -0.03929,0 -0.07143,0.128572 -0.07143,0.285714 0,0.157143 -0.01215,0.285715 -0.02699,0.285715 -0.01484,0 -0.135381,-0.0433 -0.267857,-0.09621 -0.164934,-0.06588 -0.488559,-0.08935 -1.02658,-0.07444 l -0.785714,0.02177 0.25,-0.210774 c 0.31609,-0.266494 1.108895,-0.804549 1.402205,-0.951637 0.402201,-0.201695 0.597795,-0.507765 0.597795,-0.935443 0,-0.249421 -0.03656,-0.408975 -0.107143,-0.467551 -0.05893,-0.04891 -0.107143,-0.127473 -0.107143,-0.174593 0,-0.04712 -0.09553,-0.211934 -0.212299,-0.366254 -0.116764,-0.15432 -0.213193,-0.322274 -0.214285,-0.373232 -0.0011,-0.05096 -0.133464,-0.332208 -0.294158,-0.625 l -0.29217,-0.53235 0.196609,0 c 0.108135,0 0.343897,0.08632 0.523916,0.191815 0.230048,0.134817 0.439051,0.19515 0.703363,0.20304 0.206832,0.0062 0.397189,0.03236 0.423017,0.05819 0.02583,0.02583 0.178209,0.04798 0.338626,0.04923 0.160417,0.0012 0.35406,0.04946 0.430319,0.107143 0.07626,0.05768 0.255372,0.104871 0.39803,0.104871 0.154917,0 0.42521,0.08982 0.671145,0.223023 0.348962,0.189006 0.435333,0.210187 0.566257,0.138865 0.407728,-0.222115 0.415576,-0.239809 0.435269,-0.981344 0.01025,-0.386085 0.07434,-0.926972 0.142415,-1.201972 0.06807,-0.275 0.148439,-0.692858 0.178587,-0.928572 0.03015,-0.235714 0.120007,-0.574496 0.199687,-0.752848 0.07968,-0.178353 0.167413,-0.435496 0.194965,-0.571429 0.02755,-0.135933 0.110443,-0.380212 0.184204,-0.542841 0.07376,-0.162629 0.15648,-0.3876287 0.183821,-0.4999997 0.02734,-0.1123709 0.08885,-0.2616084 0.136694,-0.3316389 0.07688,-0.1125417 0.09209,-0.095394 0.130958,0.1476626 0.02418,0.1512449 0.01422,0.3787189 -0.02214,0.5054978 -0.07377,0.2572142 -0.145504,1.1800132 -0.175678,2.2598822 -0.01704,0.609994 0.0019,0.757046 0.130014,1.007147 0.136759,0.267058 0.184586,0.299772 0.54283,0.371302 0.216071,0.04314 0.481346,0.06027 0.5895,0.03806 0.117417,-0.02411 0.458932,-0.296015 0.847657,-0.674873 0.358058,-0.348969 0.668824,-0.634489 0.69059,-0.634489 0.02177,0 0.09836,-0.0532 0.1702,-0.118214 0.125899,-0.113937 0.130624,-0.08521 0.130624,0.793941 0,0.909801 5e-4,0.912632 0.201881,1.097126 l 0.201881,0.18497 1.958833,-0.01088 c 1.148893,-0.0064 1.884998,0.01416 1.780262,0.04968 -0.09821,0.03331 -0.265452,0.06376 -0.371639,0.06768 -0.412995,0.01523 -0.771218,0.360754 -0.771218,0.743876 0,0.182668 0.418265,1.048959 0.506461,1.048959 0.03372,0 0.111164,0.09643 0.172111,0.214285 l 0.110811,0.214286 -0.358977,0 -0.358977,0 0,0.535714 0,0.535715 0.464286,0 0.464285,0 0,0.216527 c 0,0.120321 -0.0447,0.23368 -0.100603,0.255133 -0.05533,0.02123 -0.139588,0.132724 -0.187237,0.247758 -0.07396,0.178565 -0.125731,0.209153 -0.353974,0.209153 -0.260572,0 -0.268398,0.0077 -0.309149,0.305033 -0.03752,0.273758 0.06093,3.485968 0.123096,4.016396 0.04126,0.352015 0.187512,0.916947 0.259995,1.004285 0.03723,0.04485 0.08813,0.239027 0.113113,0.431492 0.02499,0.192465 0.08654,0.398151 0.136787,0.45708 0.05025,0.05893 0.176354,0.332143 0.280234,0.607143 0.103881,0.275 0.254167,0.660714 0.333968,0.857142 0.0798,0.196429 0.154195,0.421429 0.165317,0.5 0.01112,0.07857 0.02432,0.17014 0.02934,0.203485 0.005,0.03335 0.09915,0.145845 0.20919,0.25 0.194852,0.18443 0.58564,1.130952 0.58564,1.41847 0,0.07435 0.03603,0.171219 0.08007,0.215256 0.06548,0.06548 0.172103,0.644681 0.214054,1.162789 0.02641,0.326213 0.212651,0.960521 0.315329,1.073978 0.06536,0.07222 0.100766,0.160535 0.07869,0.196258 -0.02208,0.03572 -0.0093,0.238642 0.02837,0.450929 0.03768,0.212288 0.08155,0.482407 0.09748,0.600264 0.01594,0.117857 0.09645,0.369629 0.17892,0.559494 0.09195,0.211686 0.149945,0.4963 0.149945,0.735848 0,0.249849 0.05031,0.485844 0.139581,0.654792 0.07677,0.145284 0.209274,0.457009 0.294453,0.692723 0.08518,0.235714 0.199154,0.513888 0.253276,0.618164 0.05412,0.104275 0.0984,0.252469 0.0984,0.329318 0,0.07685 0.08503,0.264747 0.188953,0.41755 0.103924,0.152804 0.219619,0.390325 0.257099,0.527825 0.03748,0.1375 0.114029,0.301699 0.170107,0.364886 0.07913,0.08917 0.458755,0.804635 0.728602,1.373193 0.03774,0.07951 -0.332595,-0.115066 -0.731834,-0.384509 -0.177665,-0.119905 -0.589148,-0.34431 -0.914406,-0.498678 -0.325258,-0.154367 -0.768164,-0.377719 -0.984235,-0.496335 -0.216072,-0.118617 -0.44751,-0.215675 -0.514308,-0.215683 -0.0668,-9e-6 -0.147155,-0.04434 -0.178572,-0.09852 -0.110462,-0.190483 -0.555439,-0.400965 -0.848241,-0.401233 -0.501334,-4.29e-4 -0.762759,0.45234 -0.487803,0.844895 0.06266,0.08946 0.392128,0.293186 0.732143,0.452713 1.213441,0.56932 2.620085,1.296213 2.732047,1.411804 0.06261,0.06464 0.514573,0.305764 1.004361,0.535831 0.713329,0.335071 0.923139,0.46806 1.054443,0.668365 l 0.163919,0.250062 -0.632566,-0.05629 c -0.347911,-0.03096 -0.833459,-0.05981 -1.078995,-0.06411 -0.305349,-0.0054 -0.446428,-0.03604 -0.446428,-0.09711 0,-0.067 -0.239633,-0.08929 -0.96007,-0.08929 -0.564382,0 -0.978305,-0.0295 -1.004312,-0.07158 -0.07452,-0.12058 -0.630876,0.003 -0.764175,0.169715 -0.247274,0.309296 -0.231863,0.620855 0.05987,1.210443 0.147923,0.298947 0.250744,0.561746 0.228492,0.583998 -0.02225,0.02225 -0.133205,-0.0072 -0.246563,-0.06547 -0.113356,-0.05826 -0.463245,-0.226548 -0.777531,-0.373973 -0.314286,-0.147426 -0.683929,-0.35567 -0.821429,-0.462764 -0.1375,-0.107094 -0.377982,-0.217998 -0.534405,-0.246453 -0.163368,-0.02972 -0.368157,-0.135488 -0.4812,-0.24853 -0.121304,-0.121305 -0.313531,-0.216518 -0.501116,-0.24821 -0.212993,-0.03598 -0.405359,-0.142255 -0.640991,-0.354108 -0.185167,-0.166482 -0.458468,-0.359621 -0.607335,-0.429199 -0.249282,-0.11651 -0.503573,-0.322392 -1.270667,-1.028771 -0.772236,-0.711113 -0.88965,-0.79224 -1.14661,-0.79224 -0.329629,0 -0.625806,0.157043 -0.73081,0.3875 -0.04609,0.101161 -0.113095,0.183929 -0.148896,0.183929 -0.0358,0 -0.13243,0.143249 -0.214728,0.318332 -0.0823,0.175083 -0.214305,0.352944 -0.293347,0.395246 -0.07904,0.0423 -0.212352,0.212446 -0.296243,0.378096 -0.08389,0.165651 -0.256903,0.417517 -0.38447,0.559704 -0.127567,0.142186 -0.270553,0.375518 -0.317746,0.518515 -0.08284,0.25102 -0.21715,0.293901 -0.21715,0.06933 0,-0.06022 -0.066,-0.194928 -0.146666,-0.299355 -0.519792,-0.672902 -0.508926,-0.627054 -0.466293,-1.967514 0.02138,-0.672295 0.05771,-1.496523 0.08072,-1.831618 0.03779,-0.550291 0.02705,-0.62807 -0.111,-0.803571 -0.168717,-0.214488 -0.521222,-0.264929 -0.733952,-0.105023 -0.152646,0.114741 -0.622809,0.779193 -0.622809,0.880178 0,0.04238 -0.07777,0.150126 -0.172828,0.239426 -0.09505,0.0893 -0.213375,0.263653 -0.262933,0.387452 -0.04956,0.123797 -0.200452,0.33466 -0.335322,0.468583 -0.134869,0.133923 -0.354178,0.413831 -0.487353,0.622017 -0.182947,0.285991 -0.359926,0.447456 -0.723993,0.660527 -0.265021,0.155105 -0.558904,0.364443 -0.653074,0.465197 -0.09417,0.100753 -0.287028,0.220652 -0.428572,0.266441 -0.387072,0.125217 -0.935925,0.414071 -0.935925,0.492567 0,0.0992 -0.472908,0.285682 -0.907959,0.358033 -0.204734,0.03405 -0.590449,0.164101 -0.857143,0.289005 -0.88631,0.415097 -2.1592941,0.852717 -2.4804489,0.852717 -0.4036735,0 -0.7895575,0.141285 -1.2858129,0.47078 -0.2648697,0.175864 -0.5322368,0.287524 -0.7756957,0.323953 -0.2043315,0.03057 -0.44499,0.07725 -0.5347968,0.103717 -0.1565945,0.04615 -0.1595336,0.03971 -0.071732,-0.157305 z"
       id="path4301"
       inkscape:connector-curvature="0" />
    <path
       style="fill:#008000;stroke:#000000;stroke-width:0.05714286;stroke-linecap:square;stroke-linejoin:bevel;stroke-miterlimit:4;stroke-dasharray:0.05714286, 0.22857142999999999;stroke-dashoffset:0;stroke-opacity:1"
       d="m 30.102515,25.588932 c -0.653864,-0.150356 -0.687719,-0.169746 -0.825232,-0.472636 -0.07475,-0.164654 -0.136622,-0.375934 -0.137485,-0.469512 -8.65e-4,-0.09358 -0.063,-0.270363 -0.138073,-0.392857 -0.07508,-0.122494 -0.223327,-0.560217 -0.329444,-0.972717 -0.168696,-0.655755 -0.197296,-0.929515 -0.227603,-2.178571 l -0.03466,-1.428572 0.225269,-0.123984 c 0.289553,-0.159366 0.630947,-0.89151 0.693133,-1.486476 0.0247,-0.236328 0.07237,-0.446658 0.105933,-0.4674 0.03356,-0.02074 0.06102,-0.121678 0.06102,-0.224303 0,-0.102623 0.05608,-0.248553 0.124617,-0.324288 0.119495,-0.132041 0.116559,-0.144127 -0.07143,-0.294022 -0.107825,-0.08598 -0.196046,-0.17477 -0.196046,-0.197318 0,-0.02255 -0.126124,-0.270447 -0.280277,-0.550888 -0.154152,-0.280441 -0.245579,-0.509892 -0.203171,-0.509892 0.04241,0 0.176569,-0.07416 0.298134,-0.164794 0.258668,-0.192858 0.799648,-0.406635 1.029025,-0.406635 0.193747,0 1.013432,-0.403015 1.013432,-0.498275 0,-0.03721 0.131521,-0.103062 0.29227,-0.146348 0.466924,-0.125729 0.621326,-0.218209 0.706128,-0.422937 0.122619,-0.29603 -0.0115,-0.556168 -0.369343,-0.716379 -0.270781,-0.121232 -0.324804,-0.12445 -0.544968,-0.03246 -0.198022,0.08274 -0.784829,0.102113 -3.09281,0.102113 l -2.84842,0 -0.0011,-1.089286 c -5.71e-4,-0.599107 -0.02471,-1.124652 -0.05357,-1.167879 -0.18414,-0.275773 -1.05827,-0.344186 -1.300661,-0.101795 -0.07757,0.07757 -0.222215,0.161414 -0.321429,0.186315 -0.09921,0.0249 -0.180389,0.07151 -0.180389,0.10357 0,0.0853 -0.833905,0.926217 -0.9185,0.926217 -0.03953,0 -0.09228,0.06429 -0.117214,0.142858 -0.167515,0.527792 -0.242518,-0.579962 -0.108815,-1.607143 0.0358,-0.275 0.07044,-1.4116264 0.07699,-2.5258361 0.0115,-1.9568945 0.0069,-2.030831 -0.134879,-2.1726191 -0.230782,-0.2307818 -0.555586,-0.1924936 -0.825108,0.097264 -0.124853,0.1342262 -0.263493,0.3565476 -0.308089,0.4940476 -0.0446,0.1375 -0.182655,0.5071429 -0.306799,0.8214286 -0.124143,0.3142857 -0.267275,0.7192835 -0.31807,0.8999951 -0.0508,0.1807116 -0.176893,0.4728213 -0.280218,0.6491327 -0.103326,0.1763113 -0.187864,0.391344 -0.187864,0.4778505 0,0.086506 -0.06036,0.2765395 -0.13414,0.4222958 -0.07378,0.1457566 -0.156346,0.3679159 -0.183486,0.4936889 -0.02714,0.125772 -0.143563,0.473355 -0.258717,0.772406 -0.115155,0.299052 -0.209372,0.668219 -0.209372,0.82037 0,0.152152 -0.06406,0.543855 -0.142356,0.870451 -0.0783,0.326595 -0.142582,0.682203 -0.142857,0.790239 -4.29e-4,0.168059 -0.0298,0.196429 -0.203361,0.196429 -0.111573,0 -0.457109,-0.07036 -0.767857,-0.156347 -0.310749,-0.08599 -0.745896,-0.161302 -0.966994,-0.167358 -0.280869,-0.0077 -0.48247,-0.06075 -0.669069,-0.176071 -0.224564,-0.138789 -0.410692,-0.173772 -1.169431,-0.219797 l -0.90236,-0.05474 -0.196429,0.186233 c -0.210196,0.199287 -0.273376,0.625415 -0.116053,0.782739 0.101177,0.101176 0.678958,1.215019 1.047637,2.019624 0.063,0.1375 0.174498,0.318512 0.247767,0.402247 0.132003,0.150864 0.130345,0.154598 -0.182211,0.410715 -0.173484,0.142157 -0.350422,0.258467 -0.393197,0.258467 -0.04278,0 -0.260644,0.160026 -0.484152,0.355613 -0.543482,0.475589 -0.83547,0.643552 -0.979062,0.563194 -0.130145,-0.07283 -0.143776,-0.05581 -0.265148,0.331193 -0.09539,0.304171 -0.328057,0.607143 -0.466247,0.607143 -0.144097,0 -0.308097,0.23898 -0.400123,0.583055 -0.114767,0.429099 0.01049,0.641183 0.471453,0.798248 0.305502,0.104095 0.355983,0.102185 0.766632,-0.029 0.241778,-0.07724 0.575082,-0.216159 0.740675,-0.30871 0.402623,-0.225031 1.198321,-0.243226 1.75303,-0.04009 0.351458,0.128706 0.391195,0.130839 0.468916,0.02517 0.109735,-0.149198 0.05888,0.539701 -0.08225,1.114186 -0.05308,0.216071 -0.100118,0.585714 -0.104528,0.821428 -0.0057,0.304919 -0.04884,0.484412 -0.149508,0.622108 -0.07782,0.106445 -0.141959,0.299302 -0.14253,0.428572 -0.0011,0.257005 -0.158253,0.760168 -0.314463,1.00706 -0.05448,0.0861 -0.121304,0.263183 -0.148507,0.393515 -0.02721,0.130333 -0.09367,0.253935 -0.14771,0.274671 -0.05404,0.02073 -0.135,0.139338 -0.17992,0.263561 l -0.08167,0.225859 -0.811131,0.01174 c -0.446121,0.0065 -0.852306,0.03836 -0.902631,0.0709 -0.105088,0.06794 -0.422021,0.08089 -2.04707,0.08366 l -1.169856,0.002 L 9.7897974,24.94751 C 9.6475081,24.808326 9.482872,24.644112 9.4239434,24.582589 9.1692129,24.316644 9.0157959,24.187112 8.7810863,24.039814 8.6340467,23.947535 8.4683122,23.750897 8.3786632,23.562353 8.2876564,23.370953 8.0374412,23.076029 7.7576784,22.830412 7.4999694,22.604156 7.2666272,22.347847 7.2391401,22.260838 7.211653,22.173829 7.129489,22.060637 7.0565535,22.009303 6.9836179,21.957968 6.9239434,21.872042 6.9239434,21.818354 c 0,-0.05369 -0.080494,-0.193273 -0.178875,-0.310192 -0.2528797,-0.300531 -0.3322377,-1.172322 -0.1368276,-1.503125 0.07272,-0.123105 0.1815378,-0.224653 0.2418175,-0.225661 0.06028,-10e-4 0.2626871,-0.157993 0.4497943,-0.348854 0.1871071,-0.19086 0.44425,-0.387662 0.5714286,-0.437336 1.2078766,-0.471781 1.4057729,-0.682544 1.080962,-1.151247 l -0.1905856,-0.275015 -0.8070642,0 c -0.4438854,0 -0.8814782,-0.02877 -0.9724285,-0.06394 C 6.5292303,17.327871 5.5666002,15.985294 5.5667522,15.528919 5.5667788,15.449088 5.5176742,15.208017 5.4576309,14.993205 5.3794639,14.713554 5.3369152,14.092282 5.3078047,12.805527 L 5.2671483,11.008416 5.7562601,10.170553 C 6.2847778,9.2651861 7.0906862,8.3265569 7.4078689,8.2469491 7.5102514,8.2212527 7.7091854,8.1090148 7.8499446,7.9975315 8.0303904,7.8546158 8.1597396,7.8051323 8.2885218,7.8297506 c 0.1004584,0.019204 0.2976495,-0.013133 0.4382026,-0.07186 0.1943839,-0.081219 0.4260703,-0.09738 0.9679652,-0.06752 0.4714454,0.025978 0.7937824,0.010075 0.9529764,-0.047017 0.13231,-0.04745 0.385206,-0.1128874 0.561992,-0.1454157 0.549752,-0.1011535 0.794037,-0.2009495 1.27361,-0.5202991 0.162238,-0.1080358 0.363079,-0.1964286 0.446313,-0.1964286 0.08323,0 0.238502,-0.093316 0.345043,-0.2073683 0.106542,-0.1140526 0.329008,-0.2479041 0.49437,-0.2974478 0.380576,-0.1140233 0.524016,-0.3476444 0.676812,-1.1023268 0.06363,-0.3142857 0.156848,-0.7776785 0.207148,-1.0297618 0.137699,-0.690098 0.408289,-0.9938481 1.032244,-1.1587447 0.420878,-0.1112282 0.799748,-0.1294248 2.728435,-0.1310429 1.699659,-0.00143 2.336901,0.022511 2.642858,0.099273 0.221741,0.055634 0.579952,0.1232872 0.796024,0.1503404 0.216071,0.027053 0.505357,0.1181416 0.642857,0.2024187 0.19352,0.1186133 0.364703,0.153388 0.757716,0.1539259 0.279244,3.786e-4 0.552458,0.036945 0.607143,0.081252 0.119779,0.097046 0.510003,0.1541567 1.437924,0.2104448 0.693489,0.042067 0.69728,0.041388 1.225863,-0.2197899 0.429418,-0.2121795 0.758878,-0.3028808 1.732931,-0.477081 1.172586,-0.2097058 1.27561,-0.2160481 4.113423,-0.2532261 1.600893,-0.020973 2.910714,-0.025758 2.910714,-0.010634 0,0.015125 0.05839,0.1877598 0.129756,0.3836338 0.190461,0.5227496 0.161993,1.8032716 -0.05078,2.2842885 -0.08417,0.190274 -0.220203,0.393002 -0.302302,0.4505066 -0.206573,0.1446892 -0.416175,0.6359612 -0.41747,0.9784822 -9.21e-4,0.2438545 0.03351,0.3092605 0.234994,0.4464286 0.270091,0.1838714 0.452781,0.2028062 0.614468,0.063686 0.244657,-0.2105103 0.615543,-0.2601146 1.944854,-0.2601146 0.796246,0 1.346484,0.027539 1.346484,0.06739 0,0.037065 0.0922,0.1218528 0.204884,0.1884181 0.112686,0.066565 0.256413,0.2371326 0.319394,0.3790384 0.06298,0.1419057 0.243997,0.4141888 0.402259,0.6050735 0.158262,0.1908847 0.287775,0.4158847 0.287805,0.5 3.1e-5,0.084115 0.09594,0.3556112 0.213125,0.6033243 0.494283,1.0448219 0.676176,2.3772659 0.653498,4.7871429 l -0.01299,1.380387 -0.293143,0.396812 c -0.198188,0.268278 -0.382725,0.432002 -0.569701,0.505448 -0.152108,0.05975 -0.27656,0.132419 -0.27656,0.161486 0,0.02907 -0.07502,0.07168 -0.166719,0.09469 -0.0917,0.02301 -0.288972,0.138999 -0.438393,0.257743 -0.149421,0.118745 -0.307433,0.216332 -0.351138,0.216858 -0.254992,0.0031 -2.329465,1.927424 -2.329465,2.160887 0,0.05443 -0.07946,0.173617 -0.176577,0.264854 -0.09712,0.09124 -0.228205,0.345948 -0.291305,0.566023 -0.0631,0.220074 -0.162639,0.474705 -0.221199,0.565845 -0.269031,0.41871 -0.309353,0.784867 -0.310146,2.816433 l -7.73e-4,1.982143 -2.589285,-0.0083 c -1.424107,-0.0046 -2.653572,-0.02307 -2.732143,-0.04114 z"
       id="path4303"
       inkscape:connector-curvature="0" />
  </g>
</svg>
